<svg xmlns="http://www.w3.org/2000/svg" viewBox="0 0 1024 1024">
  <defs>
    <linearGradient id="a" x1="447.897" x2="568.175" y1="883.109" y2="99.233" gradientUnits="userSpaceOnUse">
      <stop offset="0" stop-color="#371826"/>
      <stop offset="1" stop-color="#551917"/>
    </linearGradient>
  </defs>
  <path fill="url(#a)" d="M784.822 132.68c4.714-.787 10.603.546 15.01 2.245 16.229 6.256 25.834 21.647 32.533 36.871 36.673 83.34 24.629 212.35-7.368 295.311q7.168 20.542 12.734 41.575c2.884 11.09 5.154 22.335 8.074 33.42 7.244 27.509 16.559 44.864 15.883 75.087-1.342 59.951-52.315 124.727-93.598 164.207q-2.602 2.48-5.248 4.914-2.645 2.433-5.335 4.819-2.689 2.385-5.42 4.722-2.731 2.337-5.504 4.625-2.773 2.288-5.586 4.526-2.813 2.237-5.666 4.424-2.853 2.187-5.745 4.323-2.892 2.135-5.821 4.219-2.93 2.083-5.896 4.113-2.966 2.031-5.968 4.008-3.003 1.977-6.04 3.9-3.037 1.923-6.108 3.791-3.071 1.868-6.175 3.681-3.104 1.813-6.24 3.57t-6.303 3.458q-3.167 1.7-6.364 3.344t-6.423 3.23q-3.226 1.586-6.48 3.114-3.254 1.528-6.534 2.997-3.281 1.47-6.588 2.88-3.306 1.41-6.637 2.761-3.331 1.351-6.686 2.643-3.355 1.291-6.732 2.521-3.378 1.231-6.777 2.401-3.399 1.17-6.818 2.279-3.42 1.109-6.858 2.157-3.439 1.048-6.896 2.033-3.457.986-6.931 1.91-3.474.924-6.964 1.785-3.49.861-6.995 1.66-3.505.799-7.023 1.535-3.519.735-7.05 1.408c-18.424 3.569-37.796 6.583-56.614 6.132-28.805-.691-57.416-6.153-85.039-14.141-77.142-22.306-135.37-61.075-190.454-118.906-20.975-23.546-39.238-48.345-53.749-76.447-31.86-61.701-18.919-89.645-.618-150.007 6.875-22.678 12.678-45.743 19.886-68.302-5.071-11.827-8.523-24.162-11.933-36.544q-2.434-8.73-4.55-17.542-2.115-8.813-3.909-17.697-1.794-8.883-3.264-17.827-1.469-8.943-2.613-17.933-1.143-8.991-1.959-18.017-.817-9.026-1.304-18.076-.487-9.05-.645-18.111-.158-9.062.013-18.123c.807-39.058 9.598-109.044 39.266-137.18 7.837-7.432 17.783-11.686 28.638-11.347 45.244 1.413 120.655 69.464 152.519 100.999 6.826 6.756 13.112 14.073 19.682 21.079 71.042-20.986 133.79-20.556 204.749.271 11.635-11.348 22.347-23.644 34.003-35.008 32.175-31.367 91.24-83.255 136.438-89.74Z"/>
  <path fill="#EC6D07" d="M167.855 624.42c3.884 4.164 9.573 22.372 12.961 29.323 13.985 28.69 33.134 54.892 54.665 78.339 5.08 5.531 10.151 11.654 16.662 15.556 1.243 1.993 2.404 4.141 3.993 5.878 6.57 14.896 16.95 27.058 25.078 40.935-1.535-.698-2.761-1.744-4.062-2.804C233.029 755.68 173.579 683.11 167.855 624.42ZM852.101 628.616l2.586-1.932c-1.064 15.346-6.887 30.311-13.263 44.188-21.877 47.614-55.937 88.26-95.28 122.444-3.583 3.113-7.302 6.326-11.44 8.674 2.666-4.861 6.906-9.245 10.316-13.639 8.221-10.591 18.354-24.745 22.823-37.365 1.897-2.381 3.342-5.326 4.86-7.968l1.771.212c5.069-2.238 9.578-8.511 13.317-12.566q5.126-5.585 9.995-11.396 4.87-5.811 9.472-11.835 4.603-6.024 8.93-12.249 4.326-6.225 8.368-12.639 4.042-6.413 7.791-13.003 3.749-6.589 7.197-13.34 3.449-6.752 6.589-13.652 3.141-6.9 5.968-13.934Z"/>
  <path fill="#F8B149" d="M620.941 259.933c37.43-40.007 76.324-77.171 123.92-105.034 12.002-7.026 25.054-15.204 39.356-15.763 10.129-.397 19.152 3.344 26.467 10.284 28.397 26.939 36.632 104.439 37.333 141.888q.32 16.412-.599 32.802l-.705.283c-1.127-1.064-1.11-3.514-1.25-5.06-.492-5.39-.253-10.775-.609-16.159-1.109-16.749-2.422-33.423-4.976-50.025-4.258-27.673-14.723-83.575-38.486-100.651-6.318-4.541-13.761-6.168-21.416-4.894-7.956 1.324-15.771 5.156-22.895 8.817-38.409 19.743-74.788 52.599-105.459 82.815-7.613 7.5-16.057 14.757-22.319 23.46l-8.362-2.763Z"/>
  <defs>
    <linearGradient id="b" x1="303.742" x2="273.241" y1="434.03" y2="137.653" gradientUnits="userSpaceOnUse">
      <stop offset="0" stop-color="#FEA50C"/>
      <stop offset="1" stop-color="#FFC213"/>
    </linearGradient>
  </defs>
  <path fill="url(#b)" d="M200.238 444.839c-4.281-9.153-6.48-20.33-8.889-30.121-10.811-43.95-16.099-87.763-14.918-133.045.956-36.656 8.983-104.778 37.019-131.041 7.299-6.838 15.624-9.966 25.628-9.517 38.253 1.72 110.009 64.441 138.017 91.331 9.074 8.711 17.598 17.995 26.142 27.221l-8.242 2.789c-6.148-6.568-12.215-13.265-18.675-19.53-27.973-27.124-99.67-90.961-136.873-91.988-9.294-.256-16.969 2.839-23.645 9.301-26.079 25.247-34.522 95.139-34.873 130.492q-.087 15.465.739 30.908.825 15.443 2.561 30.81 1.735 15.368 4.374 30.606 2.639 15.238 6.172 30.294c1.96 8.296 4.594 16.403 6.8 24.631.966 3.605 1.469 7.278 2.467 10.886.23.832.158.539.022 1.538-1.073-.396-.826-.055-1.178-.823-.844-1.842-.996-3.41-2.648-4.742Z"/>
  <path fill="#F3D5AD" d="M683.032 288.246c13.112-25.641 66.379-97.736 92.475-105.779 3.888-1.198 7.935-1.347 11.607.588 9.98 5.261 14.538 20.626 17.397 30.716 13.23 46.693 7.94 105.311 1.903 152.722-1.664 13.066-2.869 26.326-6.002 39.138-.678-.992-1.072-1.712-1.208-2.935-.587-5.267.302-11.385.588-16.731.733-13.718 1.9-27.478 2.075-41.215.39-30.688.053-62.371-5.305-92.651-2.156-12.187-5.648-33.04-16.787-40.407-2.972-1.966-6.221-2.55-9.697-1.826-18.421 3.837-43.746 36.885-54.414 52.583-7.364 10.835-13.719 22.333-21.131 33.132l-11.501-7.335ZM228.055 404.167c-13.942-49.347-21.576-109.994-15.501-161.124 1.97-16.577 6.372-46.305 20.166-56.697 3.423-2.579 7.658-3.875 11.927-3.127 23.26 4.08 62.103 54.747 75.4 72.847 7.679 10.453 14.611 21.409 22.237 31.875l-8.146 5.074c-15.956-17.03-62.824-82.145-86.514-82.912-3.573-.116-6.695 1.396-9.156 3.933-15.714 16.198-16.071 74.37-15.22 96.524.915 23.81 3.683 46.699 7.648 70.169.838 4.961.917 10.348 2.045 15.188-1.543 2.788-3.26 5.508-4.886 8.25Z"/>
  <path fill="#F8B149" d="M232.941 395.917c-1.128-4.84-1.207-10.227-2.045-15.188-3.965-23.47-6.733-46.359-7.648-70.169-.851-22.154-.494-80.326 15.22-96.524 2.461-2.537 5.583-4.049 9.156-3.933 23.69.767 70.558 65.882 86.514 82.912-45.015 31.252-70.943 57.214-101.197 102.902ZM694.533 295.581c7.412-10.799 13.767-22.297 21.131-33.132 10.668-15.698 35.993-48.746 54.414-52.583 3.476-.724 6.725-.14 9.697 1.826 11.139 7.367 14.631 28.22 16.787 40.407 5.358 30.28 5.695 61.963 5.305 92.651-.175 13.737-1.342 27.497-2.075 41.215-.286 5.346-1.175 11.464-.588 16.731.136 1.223.53 1.943 1.208 2.935-.003 1.778-.435 3.686-.68 5.454-6.268-9.263-11.282-19.339-17.642-28.584-23.89-34.728-53.419-62.449-87.557-86.92Z"/>
  <path fill="#F3D5AD" d="M256.136 753.516c5.986 1.875 16.789 13.662 22.357 18.003 8.43 6.57 17.119 13.041 26.021 18.965q5.624 3.799 11.374 7.405 5.75 3.606 11.618 7.016 5.869 3.409 11.85 6.617 5.981 3.209 12.067 6.213t12.27 5.8q6.185 2.796 12.46 5.381 6.276 2.585 12.635 4.955 6.36 2.371 12.796 4.525c33.429 11.175 73.835 18.503 109.071 18.543 6.204.008 12.385-.535 18.573-.907 63.637-3.825 124.946-25.48 178.892-59.116q16.399-10.258 31.551-22.281c3.46-2.771 6.934-5.569 10.239-8.522 4.83-4.317 11.329-12.195 17.048-14.762.291-.131.59-.244.885-.365-4.469 12.62-14.602 26.774-22.823 37.365-3.41 4.394-7.65 8.778-10.316 13.639-55.333 48.208-142.85 79.51-215.682 82.99-17.447.833-34.765-1.266-51.924-4.256q-5.147-.88-10.27-1.897-5.122-1.017-10.215-2.17t-10.154-2.442q-5.061-1.288-10.085-2.711-5.025-1.424-10.01-2.98-4.984-1.557-9.926-3.246-4.941-1.689-9.836-3.509-4.895-1.82-9.739-3.77-4.844-1.95-9.635-4.029-4.791-2.078-9.524-4.284-4.734-2.206-9.407-4.537t-9.282-4.785q-4.609-2.455-9.151-5.032t-9.014-5.274q-4.472-2.697-8.87-5.513-4.398-2.815-8.72-5.747c-11.19-7.567-22.048-15.244-32.046-24.347-8.128-13.877-18.508-26.039-25.078-40.935Z"/>
  <path fill="#FB8A07" d="M200.238 444.839c1.652 1.332 1.804 2.9 2.648 4.742.352.768.105.427 1.178.823.136-.999.208-.706-.022-1.538-.998-3.608-1.501-7.281-2.467-10.886-2.206-8.228-4.84-16.335-6.8-24.631q-3.533-15.056-6.172-30.294-2.639-15.238-4.374-30.606-1.736-15.367-2.561-30.81-.826-15.443-.739-30.908c.351-35.353 8.794-105.245 34.873-130.492 6.676-6.462 14.351-9.557 23.645-9.301 37.203 1.027 108.9 64.864 136.873 91.988 6.46 6.265 12.527 12.962 18.675 19.53q-12.426 4.496-24.425 10.033-11.999 5.536-23.483 12.074c-19.875-26.447-69.076-102.378-102.366-106.793-5.476-.727-10.709.854-15.064 4.204-15.557 11.968-20.249 40.123-22.313 58.648-6.389 57.335 2.26 114.7 16.516 170.248-7.744 14.003-15.651 28.079-20.273 43.477-1.596-3.081-2.892-6.027-3.349-9.508Z"/>
  <defs>
    <linearGradient id="c" x1="835.686" x2="706.375" y1="447.077" y2="182.097" gradientUnits="userSpaceOnUse">
      <stop offset="0" stop-color="#F67601"/>
      <stop offset="1" stop-color="#FF9108"/>
    </linearGradient>
  </defs>
  <path fill="url(#c)" d="M629.303 262.696c6.262-8.703 14.706-15.96 22.319-23.46 30.671-30.216 67.05-63.072 105.459-82.815 7.124-3.661 14.939-7.493 22.895-8.817 7.655-1.274 15.098.353 21.416 4.894 23.763 17.076 34.228 72.978 38.486 100.651 2.554 16.602 3.867 33.276 4.976 50.025.356 5.384.117 10.769.609 16.159.14 1.546.123 3.996 1.25 5.06l.705-.283c.261 8.506-1.051 17.311-2.026 25.744q-2.099 19.456-5.649 38.701-3.55 19.244-8.53 38.169c-2.7 10.341-5.466 20.744-9.657 30.598a785.784 785.784 0 0 0-17.3-38.097c3.202-12.554 5.035-25.78 6.955-38.585 7.757-51.755 12.723-116.97-.651-168.176-3.15-12.064-8.482-27.895-20.134-34.394-4.947-2.759-10.257-2.975-15.633-1.428-29.613 8.523-82.527 80.88-97.461 108.361-15.795-8.734-30.933-16.412-48.029-22.307Z"/>
  <path fill="#F8B149" d="M167.548 619.142c-.468-28.462 9.279-53.962 17.043-80.857 7.947-27.526 14.932-55.424 25.024-82.276 15.379-40.921 40.651-79.529 71.049-110.865q2.733-2.832 5.535-5.594 2.802-2.763 5.672-5.456 2.87-2.692 5.805-5.313 2.936-2.62 5.936-5.167 3-2.546 6.062-5.018 3.063-2.471 6.185-4.866 3.123-2.395 6.304-4.711 3.181-2.317 6.419-4.553 3.237-2.237 6.53-4.393 3.292-2.156 6.636-4.229 3.345-2.073 6.74-4.063 3.395-1.989 6.839-3.894 3.443-1.905 6.933-3.724 3.49-1.818 7.023-3.55 3.534-1.731 7.11-3.375 3.575-1.643 7.191-3.197 3.615-1.554 7.268-3.018 3.652-1.463 7.34-2.836 3.688-1.373 7.409-2.653 3.721-1.281 7.473-2.469 3.751-1.188 7.531-2.282 3.78-1.095 7.586-2.095 3.806-1 7.635-1.906 3.83-.905 7.681-1.715 3.851-.811 7.72-1.525 3.87-.714 7.757-1.332 3.886-.618 7.786-1.14 3.901-.521 7.813-.945 3.912-.425 7.834-.752 3.921-.327 7.85-.557 3.928-.229 7.861-.361 3.933-.133 7.868-.167c83.132-1.247 167.305 28.129 227.283 86.643 43.292 42.236 73.164 93.817 91.303 151.382 5.893 18.705 10.075 37.88 15.349 56.756 6.253 22.384 15.376 43.711 15.644 67.33q.13 8.174-.888 16.285l-2.586 1.932c-.675-16.866-2.684-32.857-6.656-49.294-3.636-15.043-8.16-29.962-12.571-44.793-11.235-37.784-24.297-75.651-45.651-109.076-7.673-12.011-16.392-23.183-25.421-34.2-23.551-28.735-51.16-52.195-82.902-71.522-71.494-43.53-164.04-55.641-245.045-35.837q-4.3 1.042-8.57 2.202-4.271 1.159-8.507 2.436-4.237 1.276-8.437 2.668-4.2 1.392-8.361 2.899-4.16 1.507-8.278 3.127-4.117 1.62-8.189 3.353-4.071 1.732-8.094 3.576-4.023 1.843-7.993 3.796-3.97 1.954-7.886 4.015-3.915 2.061-7.772 4.229-3.858 2.168-7.654 4.441-3.797 2.273-7.53 4.649-3.732 2.376-7.398 4.854-3.666 2.477-7.263 5.055-3.597 2.577-7.122 5.252t-6.975 5.445q-3.45 2.771-6.823 5.635t-6.666 5.819q-3.293 2.956-6.503 6.001-3.211 3.045-6.337 6.176-3.126 3.132-6.165 6.348-3.039 3.216-5.989 6.515-2.949 3.298-5.807 6.676-2.858 3.378-5.623 6.833-2.764 3.455-5.433 6.985-2.668 3.529-5.239 7.131-2.571 3.601-5.042 7.272-2.471 3.67-4.84 7.407-2.369 3.737-4.635 7.538-2.267 3.8-4.427 7.662-2.161 3.861-4.216 7.78-2.054 3.919-4 7.893c-11.632 23.717-19.472 49.099-26.979 74.349-5.382 18.105-11.355 36.147-16.413 54.332-2.446 8.792-4.819 27.952-8.884 34.498-.084.135-.171.267-.257.401Z"/>
  <path fill="#FB8A07" d="M167.548 619.142c.086-.134.173-.266.257-.401 4.065-6.546 6.438-25.706 8.884-34.498 5.058-18.185 11.031-36.227 16.413-54.332 7.507-25.25 15.347-50.632 26.979-74.349q1.946-3.974 4-7.893 2.055-3.919 4.216-7.78 2.16-3.862 4.427-7.662 2.266-3.801 4.635-7.538 2.369-3.737 4.84-7.407 2.471-3.671 5.042-7.272 2.571-3.602 5.239-7.131 2.669-3.53 5.433-6.985 2.765-3.455 5.623-6.833t5.807-6.676q2.95-3.299 5.989-6.515 3.039-3.216 6.165-6.348 3.126-3.131 6.337-6.176 3.21-3.045 6.503-6.001 3.293-2.955 6.666-5.819t6.823-5.635q3.45-2.77 6.975-5.445 3.525-2.675 7.122-5.252 3.596-2.578 7.263-5.055 3.666-2.478 7.398-4.854 3.733-2.376 7.53-4.649 3.796-2.273 7.653-4.441 3.858-2.168 7.773-4.229 3.916-2.061 7.886-4.015 3.97-1.953 7.993-3.796 4.022-1.844 8.094-3.576 4.072-1.733 8.189-3.353 4.118-1.62 8.278-3.127 4.16-1.507 8.361-2.899 4.2-1.392 8.437-2.668 4.236-1.277 8.507-2.436 4.27-1.16 8.57-2.202c81.005-19.804 173.551-7.693 245.045 35.837 31.742 19.327 59.351 42.787 82.902 71.522 9.029 11.017 17.748 22.189 25.421 34.2 21.354 33.425 34.416 71.292 45.651 109.076 4.411 14.831 8.935 29.75 12.571 44.793 3.972 16.437 5.981 32.428 6.656 49.294q-2.827 7.034-5.968 13.934-3.14 6.9-6.589 13.652-3.448 6.751-7.197 13.34-3.749 6.59-7.791 13.003-4.042 6.414-8.368 12.639-4.327 6.225-8.93 12.25-4.602 6.023-9.472 11.834-4.869 5.811-9.995 11.396c-3.739 4.055-8.248 10.328-13.317 12.566l-1.771-.212c-1.518 2.642-2.963 5.587-4.86 7.968-.295.121-.594.234-.885.365-5.719 2.567-12.218 10.445-17.048 14.762-3.305 2.953-6.779 5.751-10.239 8.522q-15.152 12.023-31.551 22.281c-53.946 33.636-115.255 55.291-178.892 59.116-6.188.372-12.369.915-18.573.907-35.236-.04-75.642-7.368-109.071-18.543q-6.436-2.154-12.796-4.525-6.359-2.37-12.635-4.955-6.275-2.585-12.46-5.381-6.184-2.796-12.27-5.8-6.086-3.004-12.067-6.213-5.981-3.208-11.85-6.617-5.868-3.41-11.618-7.016t-11.374-7.405c-8.902-5.924-17.591-12.395-26.021-18.965-5.568-4.341-16.371-16.128-22.357-18.003-1.589-1.737-2.75-3.885-3.993-5.878-6.511-3.902-11.582-10.025-16.662-15.556-21.531-23.447-40.68-49.649-54.665-78.339-3.388-6.951-9.077-25.159-12.961-29.323-.32-1.709-.26-3.539-.307-5.278Z"/>
  <path fill="#F3D5AD" d="M614.313 376.691c6.834-1.213 16.837 1.388 22.532 5.293 4.339 2.975 7.73 7.452 8.498 12.747.726 5.004-1.063 9.95-4.018 13.946-7.417 10.028-19.4 12.898-31.029 14.803-8.426.2-17.716-1.044-24.653-6.236-3.896-2.916-6.722-7.07-7.401-11.944-.708-5.088 1.147-9.918 4.253-13.894 7.604-9.735 20.095-13.319 31.818-14.715ZM402.868 377.165c10.827-1.4 22.884 1.062 32.179 6.813 5.706 3.53 10.811 8.777 12.2 15.548q.179.865.27 1.744.091.878.093 1.762.002.883-.085 1.762-.088.879-.263 1.745-.176.866-.438 1.71-.262.843-.607 1.656-.346.813-.772 1.587-.426.774-.928 1.501c-4.831 6.988-12.727 8.976-20.535 10.511-11.631.932-24.272-1.69-34.052-8.212-5.422-3.616-10.37-8.877-11.534-15.499q-.072-.395-.123-.792-.051-.398-.081-.798-.031-.4-.04-.801-.009-.401.003-.801.012-.401.044-.801.033-.4.087-.797.053-.398.128-.792.074-.394.169-.783.095-.39.21-.774.115-.384.25-.762.135-.377.29-.747.154-.37.328-.732.174-.361.366-.713.193-.352.404-.693.21-.341.439-.671.228-.33.473-.647c5.072-6.682 13.6-9.299 21.525-10.524Z"/>
  <path fill="#06080B" d="M380.318 445.642c11.942-1.242 24.512 2.067 34.063 9.369 10.126 7.742 16.3 18.896 17.896 31.492q.136 1.145.214 2.295.079 1.15.102 2.302.022 1.152-.013 2.304-.034 1.153-.125 2.302-.092 1.149-.239 2.292-.148 1.143-.352 2.277-.204 1.135-.463 2.258t-.574 2.232q-.314 1.109-.683 2.201-.369 1.092-.791 2.165-.422 1.072-.896 2.123-.474 1.05-1 2.076-.525 1.026-1.1 2.025-.576.999-1.2 1.968-.623.969-1.294 1.906-.671.938-1.387 1.841c-8.077 10.365-19.387 16.086-32.265 17.748-10.762 1.702-22.795-2.526-31.606-8.507-10.343-7.02-17.534-17.496-19.783-29.879q-.202-1.136-.347-2.281-.146-1.144-.236-2.294-.089-1.151-.122-2.304-.033-1.153-.01-2.307.023-1.153.103-2.304.08-1.151.216-2.297.136-1.146.328-2.284.192-1.137.439-2.264.248-1.127.55-2.241.302-1.113.659-2.211.356-1.097.766-2.176.41-1.078.872-2.135.462-1.058.975-2.091.513-1.033 1.076-2.04.563-1.007 1.175-1.986.612-.978 1.271-1.925c8.243-11.86 19.934-17.19 33.781-19.65Z"/>
  <path fill="#355D9A" d="M379.976 449.677c11.354-1.082 21.574 1.005 30.845 7.884q.863.65 1.693 1.341.83.692 1.626 1.422.795.731 1.555 1.499.759.768 1.481 1.572.721.804 1.403 1.642.682.838 1.322 1.708t1.238 1.77q.597.9 1.15 1.828.554.928 1.061 1.881.508.954.969 1.931.461.976.874 1.975.413.998.778 2.015.364 1.017.679 2.05.314 1.033.579 2.081.264 1.047.478 2.106.213 1.059.375 2.127c1.596 11.282-2.019 22.87-8.93 31.805-7.378 9.54-17.189 14.464-29.034 16.06-10.818.999-21.675-1.321-30.486-7.855-9.724-7.212-16.01-17.575-17.694-29.599-1.532-10.941 2.224-22.417 8.818-31.137 7.183-9.5 17.654-14.467 29.22-16.106Z"/>
  <path fill="#06080B" d="M385.442 457.217c9.745.301 18.266 3.168 25.297 10.141q.62.616 1.208 1.261.589.646 1.145 1.32.555.674 1.077 1.374.522.701 1.008 1.427.486.726.936 1.475.45.749.862 1.519.412.77.785 1.56.373.79.707 1.597.333.807.627 1.63.293.823.545 1.66.252.836.462 1.684.211.848.378 1.705.168.858.294 1.722.125.865.207 1.734.082.87.121 1.743.039.872.035 1.746-.001.852-.045 1.703-.043.85-.129 1.698-.086.847-.213 1.69-.128.842-.297 1.677-.17.835-.38 1.66-.211.825-.462 1.639-.251.814-.542 1.615-.291.8-.622 1.585-.331.785-.7 1.553-.369.768-.776 1.516-.407.749-.85 1.476-.444.727-.922 1.432-.479.704-.993 1.384-.513.68-1.06 1.333-.546.654-1.124 1.279-.578.626-1.187 1.222c-6.673 6.627-16.46 10.608-25.864 10.51-8.111-.308-16.616-3.29-22.866-8.511q-.674-.572-1.32-1.177-.645-.604-1.26-1.24-.614-.636-1.197-1.302-.582-.665-1.131-1.359-.548-.693-1.062-1.413-.514-.72-.991-1.464-.478-.745-.918-1.512-.44-.767-.841-1.555-.402-.788-.764-1.595-.362-.807-.683-1.63-.322-.824-.602-1.663-.281-.838-.519-1.69-.239-.852-.435-1.714t-.35-1.733q-.153-.871-.263-1.749-.11-.877-.176-1.759-.067-.864-.091-1.729-.024-.866-.005-1.732t.081-1.73q.061-.864.165-1.723.105-.86.251-1.714.147-.854.335-1.699.188-.845.418-1.68.23-.835.501-1.658.271-.822.582-1.631.312-.808.662-1.6.351-.792.741-1.565.389-.774.816-1.527.427-.754.891-1.485.464-.732.963-1.439.5-.708 1.034-1.39.533-.682 1.1-1.337c7.115-8.177 16.931-10.911 27.406-11.565Z"/>
  <path fill="#FEFEFE" d="M371.138 467.007c2.373-.039 4.835-.11 7.153.48 3.213.818 6.173 2.993 7.727 5.938 1.554 2.947 1.687 6.431.595 9.558-1.669 4.777-5.138 7.189-9.417 9.371-2.06.139-4.273.402-6.291-.135-3.64-.969-6.786-3.248-8.533-6.618q-.298-.571-.535-1.169-.237-.599-.41-1.218-.174-.62-.282-1.255-.108-.634-.15-1.277-.041-.642-.016-1.285.026-.643.118-1.281.092-.637.249-1.261.158-.624.38-1.228c1.702-4.655 5.177-6.667 9.412-8.62Z"/>
  <path fill="#06080B" d="M635.258 446.645c10.736-1.595 22.339 2.587 31.178 8.435 9.91 6.557 17.124 17.799 19.384 29.452q.219 1.128.382 2.265.164 1.137.271 2.28.107 1.144.159 2.291.051 1.148.046 2.296-.005 1.149-.067 2.296-.061 1.147-.179 2.29-.117 1.143-.291 2.278-.173 1.135-.402 2.261-.229 1.126-.513 2.239-.283 1.113-.621 2.211-.338 1.097-.73 2.177-.391 1.08-.835 2.14-.444 1.059-.939 2.095-.495 1.037-1.041 2.048-.545 1.011-1.14 1.994-.594.982-1.236 1.935c-8.397 12.403-19.511 18.627-34.058 21.355-11.477.61-22.188-1.418-31.802-8.015-11.017-7.559-18.094-19.149-20.434-32.253-2.146-12.012 1.074-24.922 8.125-34.836 8.427-11.85 20.897-16.843 34.743-19.234Z"/>
  <path fill="#355D9A" d="M634.019 450.642c10.335-.984 20.626 1.252 29.317 7.042 9.828 6.549 16.514 17.394 18.781 28.914 2.169 11.025-.697 21.947-6.988 31.147-7.176 10.492-16.817 16.403-29.232 18.726-10.129 1.979-21.509-.651-30.071-6.295q-.912-.596-1.793-1.237-.881-.641-1.729-1.325-.848-.684-1.661-1.41-.812-.725-1.588-1.491-.776-.765-1.512-1.568t-1.432-1.642q-.695-.839-1.348-1.711-.652-.873-1.26-1.776-.609-.904-1.171-1.838-.562-.933-1.077-1.893-.515-.96-.982-1.945-.466-.984-.883-1.991-.417-1.007-.783-2.033-.366-1.026-.68-2.069-.315-1.043-.576-2.101-.262-1.058-.471-2.127c-2.205-11.288-.15-22.916 6.322-32.491 7.455-11.028 18.023-16.417 30.817-18.886Z"/>
  <path fill="#06080B" d="M638.111 458.189c8.504-.88 18.239 2.252 24.844 7.612 7.45 6.046 11.551 14.738 12.441 24.206q.094.915.141 1.833.048.919.05 1.839.001.919-.043 1.838-.045.919-.136 1.834-.09.915-.227 1.825-.136.909-.318 1.811-.182.902-.409 1.793-.227.891-.499 1.77-.271.879-.586 1.743-.316.864-.674 1.711-.358.847-.758 1.675-.401.828-.842 1.635-.441.807-.922 1.591-.482.784-1.002 1.543-.52.758-1.077 1.49-.558.731-1.151 1.434c-6.602 7.942-15.535 11.549-25.614 12.409-8.816-.134-16.709-1.806-23.795-7.363q-.719-.572-1.408-1.179-.69-.607-1.348-1.248-.659-.64-1.285-1.313-.626-.672-1.218-1.375-.592-.702-1.148-1.433-.557-.731-1.076-1.489-.52-.758-1.001-1.54-.481-.783-.923-1.588-.442-.805-.844-1.632-.401-.826-.761-1.671-.36-.845-.678-1.707-.318-.862-.592-1.739-.275-.877-.506-1.766-.231-.889-.417-1.789-.187-.899-.329-1.807-.141-.907-.238-1.821c-.986-9.193 1.854-18.158 7.634-25.328 6.805-8.441 16.096-12.686 26.715-13.804Z"/>
  <path fill="#FEFEFE" d="M623.884 468.984c2.072.045 4.244.217 6.178 1.009 2.776 1.137 5.119 3.36 6.194 6.182q.207.547.359 1.111.152.565.248 1.142.095.577.133 1.161.038.583.018 1.168-.021.584-.099 1.164-.077.579-.212 1.148t-.326 1.122q-.191.553-.435 1.084c-1.716 3.808-4.674 5.826-8.47 7.246-2.774.089-5.052-.045-7.547-1.406-4.165-2.273-5.563-6.356-6.712-10.648.4-1.467.784-3.013 1.429-4.397 1.912-4.099 5.249-5.631 9.242-7.086Z"/>
  <path fill="#FBEDD9" d="M378.884 609.532c11.633-21.288 25.298-40.219 44.683-55.216 29.066-22.485 68.75-34.39 105.305-29.658 36.807 4.765 65.496 29.545 92.482 52.899 9.792 8.473 20.227 16.619 28.163 26.922 7.207-2.681 14.812-4.437 22.138-6.81q18.223-5.999 35.98-13.261c37.562-15.278 72.426-36.278 107.237-56.867 1.929 14.344 1.321 29.492.918 43.923-1.841 65.863-15.053 112.356-43.087 171.554-1.518 2.642-2.963 5.587-4.86 7.968-.295.121-.594.234-.885.365-5.719 2.567-12.218 10.445-17.048 14.762-3.305 2.953-6.779 5.751-10.239 8.522q-15.152 12.023-31.551 22.281c-53.946 33.636-115.255 55.291-178.892 59.116-6.188.372-12.369.915-18.573.907-35.236-.04-75.642-7.368-109.071-18.543q-6.436-2.154-12.796-4.525-6.359-2.37-12.635-4.955-6.275-2.585-12.46-5.381-6.184-2.796-12.27-5.8-6.086-3.004-12.067-6.213-5.981-3.208-11.85-6.617-5.868-3.41-11.618-7.016t-11.374-7.405c-8.902-5.924-17.591-12.395-26.021-18.965-5.568-4.341-16.371-16.128-22.357-18.003-1.589-1.737-2.75-3.885-3.993-5.878-2.457-7.218-6.052-14.05-9.232-20.972q-5.324-11.64-9.624-23.696-2.784-8.01-5.265-16.119-2.481-8.11-4.654-16.307-2.174-8.197-4.037-16.47t-3.413-16.61q-1.551-8.338-2.786-16.728-1.235-8.389-2.153-16.82-.918-8.43-1.518-16.889t-.881-16.935c-.384-14.267.341-28.54.932-42.791 18.959 10.519 37.212 22.285 56.249 32.695q13.547 7.449 27.416 14.281 13.868 6.832 28.03 13.034 14.162 6.201 28.589 11.759 14.426 5.558 29.088 10.462Z"/>
  <path fill="#F3D5AD" d="M438.214 740.49c3.132 3.108 7.262 7.219 9.489 11.037 19.503 17.069 43.892 26.278 69.94 24.584 21.099-1.372 39.717-9.947 55.779-23.509q4.451-5.061 9.004-10.03c.337.749.321.557.411 1.364.986 8.839-13.17 30.965-18.991 37.737-11.902 13.846-29.909 24.145-48.332 25.394-18.144 1.23-35.9-6.976-49.308-18.755q-3.841-3.411-7.258-7.245-3.417-3.835-6.365-8.041c-5.09-7.146-13.85-23.926-14.369-32.536Z"/>
  <path fill="#71706F" d="M447.703 751.527c19.503 17.069 43.892 26.278 69.94 24.584 21.099-1.372 39.717-9.947 55.779-23.509-.058.779-.003.954-.275 1.637-3.099 7.771-21.083 20.539-28.72 24.259q-1.66.805-3.358 1.527-1.698.722-3.429 1.358-1.732.637-3.493 1.187-1.76.55-3.546 1.013-1.787.462-3.593.835-1.807.373-3.63.656-1.823.283-3.658.475-1.835.193-3.677.294-1.842.101-3.687.111-1.845.009-3.688-.072-1.843-.082-3.679-.255-1.837-.173-3.663-.437-1.826-.264-3.636-.618-1.811-.354-3.602-.797-1.791-.443-3.557-.975-1.767-.532-3.505-1.15c-13.942-4.861-32.721-16.307-39.323-30.123Z"/>
  <path fill="#FEFEFE" d="M416.008 685.086c8.254 2.057 15.994 3.3 24.509 3.208 5.13 21.174 16.042 38.468 34.874 49.973q1.483.903 3.009 1.731 1.526.828 3.092 1.58 1.565.751 3.166 1.423 1.601.673 3.234 1.265 1.632.592 3.292 1.102 1.659.511 3.342.938 1.684.427 3.386.77 1.702.343 3.419.601 1.717.258 3.445.43 1.728.172 3.462.258 1.735.086 3.471.086t3.471-.087q1.734-.086 3.462-.259 1.728-.172 3.445-.431 1.717-.258 3.419-.601 1.702-.344 3.385-.771c19.26-4.866 35.538-18.149 45.481-35.2 4.046-6.938 6.442-14.334 8.409-22.081 7.883-.305 15.442-.58 23.159-2.397-4.115 20.521-11.942 38.59-23.514 55.948q-4.553 4.969-9.004 10.03c-16.062 13.562-34.68 22.137-55.779 23.509-26.048 1.694-50.437-7.515-69.94-24.584-2.227-3.818-6.357-7.929-9.489-11.037-1.324-3.756-5.364-7.403-7.46-10.938-7.067-11.92-14.783-30.594-14.746-44.466Z"/>
  <path fill="#06080B" d="M496.08 635.772c-14.558-5.367-26.173-16.79-33.285-30.471-4.686-9.014-9.568-21.495-6.111-31.689 2.361-6.959 8.462-11.209 14.839-14.197 21.055-9.866 52.203-11.279 74.056-3.327 8.056 2.931 16.134 8.113 19.742 16.198 3.949 8.848 1.762 18.646-1.732 27.228q-.593 1.495-1.259 2.959-.666 1.463-1.404 2.892-.739 1.429-1.547 2.819-.808 1.39-1.685 2.739-.876 1.348-1.818 2.651-.942 1.304-1.948 2.558-1.006 1.255-2.073 2.458-1.067 1.204-2.193 2.352-1.125 1.149-2.306 2.24-1.181 1.092-2.415 2.123-1.234 1.032-2.518 2-1.283.969-2.613 1.873-1.331.904-2.704 1.74-1.374.837-2.787 1.604-1.413.767-2.863 1.464-1.45.696-2.932 1.319c-12.311 3.642-20.092 3.845-32.444.467Z"/>
  <path fill="#111B34" d="M563.121 576.273c1.869 9.7.783 20.389-4.892 28.735q-1.248 1.81-2.673 3.484c1.994-8.707 6.378-18.934 5.069-27.918.59-1.577 1.57-2.908 2.496-4.301Z"/>
  <path fill="#0B234E" d="M470.036 609.635q-2.233-2.561-4.085-5.41-1.852-2.85-3.286-5.93c-3.204-6.748-6.061-16.6-3.255-23.862 2.381-6.162 8.419-9.93 14.224-12.442 21.083-9.125 52.11-10.843 73.632-2.304 8.417 3.339 12.389 8.501 15.855 16.586-.926 1.393-1.906 2.724-2.496 4.301-8.019 9.028-17.244 12.613-28.751 15.453 6.303 9.513 5.267 16.356 2.077 26.641-.467 1.507-1.149 3.08-.836 4.67.191.973.271 1.288-.185 2.253-5.994 4.877-18.242 4.253-25.49 3.753-3.951-.273-14-.767-16.749-3.898-.744-16.642-8.005-14.745.41-32.625-2.942-1.833-6.117-2.743-9.366-3.87-8.436-2.926-14.19-6.58-19.98-13.405 1.053 10.825 3.918 20.177 8.281 30.089Z"/>
  <path fill="#B4BBDA" d="M510.607 562.738q8.121-.103 16.13 1.243c2.417.395 5.787 1.167 7.296 3.241l-.376.906c-6.268 3.609-19.934 2.782-27.282 3.082-6.053.214-13.009 1.005-18.91-.578-1.288-.346-1.979-.589-2.686-1.723.234-.496.245-.606.692-1.054 4.682-4.691 18.694-4.775 25.136-5.117Z"/>
  <path fill="#06080B" d="M364.384 620.735q-3.298 2.057-6.412 4.383-3.114 2.325-6.023 4.903-2.909 2.578-5.592 5.39t-5.122 5.838l-.18-.623c2.139-4.781 6.363-9.443 10.013-13.171 10.585-10.81 19.679-14.695 34.854-14.885l-6.09 1.597c5.159 15.706 16.004 30.067 31.015 37.558 13.799 6.886 31.585 8.651 46.249 3.551 4.458-1.551 36.785-17.386 38.984-19.504 12.352 3.378 20.133 3.175 32.444-.467 2.696 2.091 6.109 3.699 9.078 5.399 12.764 7.311 26.759 15.475 41.484 17.618 16.553 2.408 35.988-1.651 49.468-11.812 10-7.538 15.155-18.262 16.926-30.425-.881-.067-3.432-.021-3.978-.566 7.657-1.905 14.027-.819 20.818 3.262q2.592 1.578 4.97 3.463 2.378 1.886 4.505 4.05c3.138 3.149 15.689 18.807 16.047 22.623.031.324-.008.651-.012.976l-.029.017c-1.361-.93-2.44-3.804-3.39-5.248-1.383-2.105-3.333-4.014-5.074-5.825-6.506-6.772-13.836-12.585-21.31-18.234.243 18.033-4.362 33.081-17.205 46.21-9.155 9.357-22.203 16.635-34.882 19.811-7.717 1.817-15.276 2.092-23.159 2.397-1.967 7.747-4.363 15.143-8.409 22.081-9.943 17.051-26.221 30.334-45.481 35.2q-1.683.427-3.385.771-1.702.343-3.419.601-1.718.259-3.445.431-1.728.173-3.462.259-1.735.087-3.471.087t-3.471-.086q-1.734-.086-3.462-.258-1.728-.172-3.445-.43-1.717-.258-3.419-.601-1.703-.343-3.386-.77t-3.342-.938q-1.66-.51-3.292-1.102-1.633-.592-3.234-1.265-1.601-.672-3.166-1.423-1.566-.752-3.092-1.58-1.526-.828-3.009-1.731c-18.832-11.505-29.744-28.799-34.874-49.973-8.515.092-16.255-1.151-24.509-3.208-9.706-3.356-18.246-8.044-26.009-14.819-14.522-12.674-24.296-30.178-25.615-49.532Z"/>
  <path fill="#86241B" d="M445.516 687.758c6.325-.997 12.732-2.334 18.753-4.531 15.419-5.625 29.234-14.627 45.162-19.168-1.823 13.644-.935 27.999-.522 41.729-5.414-4.484-10.595-7.328-17.896-6.665-7.777.706-15.072 5.059-19.926 11.084-3.239 4.02-4.995 8.341-6.365 13.268-10.008-9.938-15.226-22.439-19.206-35.717ZM513.009 664.048c22.601 6.149 41.944 19.616 65.116 24.409-4.566 13.378-9.253 24.678-19.314 34.915-1.219-4.362-2.759-8.547-5.409-12.262-4.411-6.187-11.138-10.077-18.573-11.299-8.421-1.385-14.824 1.114-21.51 5.93q-.046-20.847-.31-41.693Z"/>
  <path fill="#E05EA6" d="M464.722 723.475c1.37-4.927 3.126-9.248 6.365-13.268 4.854-6.025 12.149-10.378 19.926-11.084 7.301-.663 12.482 2.181 17.896 6.665q1.048 9.833 1.975 19.678c1.333-6.542 1.891-13.083 2.435-19.725 6.686-4.816 13.089-7.315 21.51-5.93 7.435 1.222 14.162 5.112 18.573 11.299 2.65 3.715 4.19 7.9 5.409 12.262-.129.141-.256.284-.388.422-12.089 12.561-28.439 20.072-45.907 20.252-19.055.196-34.411-7.361-47.794-20.571Z"/>
  <path fill="#F3D5AD" d="M370.26 618.057c3.108-1.493 6.352-2.664 9.572-3.89 5.159 15.706 16.004 30.067 31.015 37.558 13.799 6.886 31.585 8.651 46.249 3.551 4.458-1.551 36.785-17.386 38.984-19.504 12.352 3.378 20.133 3.175 32.444-.467 2.696 2.091 6.109 3.699 9.078 5.399 12.764 7.311 26.759 15.475 41.484 17.618 16.553 2.408 35.988-1.651 49.468-11.812 10-7.538 15.155-18.262 16.926-30.425 2.803.445 5.428 1.318 8.121 2.187-.169 12.601-3.499 23.83-10.711 34.234-7.337 10.584-17.963 18.76-29.569 24.211-34.282 16.101-53.686-.692-84.639-12.651-4.917-1.9-10.642-4.399-15.992-4.38-16.481.058-41.43 18.155-60.94 21.552-18.222 3.173-35.93-.586-51.08-11.306-18.372-13.003-26.617-30.204-30.41-51.875Z"/>
</svg>
