<?xml version="1.0" encoding="utf-8" ?>
<svg xmlns="http://www.w3.org/2000/svg" xmlns:xlink="http://www.w3.org/1999/xlink" width="1024" height="1024">
	<defs>
		<linearGradient id="gradient_0" gradientUnits="userSpaceOnUse" x1="447.89719" y1="883.10858" x2="568.17468" y2="99.23307">
			<stop offset="0" stop-color="#371826"/>
			<stop offset="1" stop-color="#551917"/>
		</linearGradient>
	</defs>
	<path fill="url(#gradient_0)" d="M784.822 132.68C789.536 131.893 795.425 133.226 799.832 134.925C816.061 141.181 825.666 156.572 832.365 171.796C869.038 255.136 856.994 384.146 824.997 467.107Q832.165 487.649 837.731 508.682C840.615 519.772 842.885 531.017 845.805 542.102C853.049 569.611 862.364 586.966 861.688 617.189C860.346 677.14 809.373 741.916 768.09 781.396Q765.488 783.876 762.842 786.31Q760.197 788.743 757.507 791.129Q754.818 793.514 752.087 795.851Q749.356 798.188 746.583 800.476Q743.81 802.764 740.997 805.002Q738.184 807.239 735.331 809.426Q732.478 811.613 729.586 813.749Q726.694 815.884 723.765 817.968Q720.835 820.051 717.869 822.081Q714.903 824.112 711.901 826.089Q708.898 828.066 705.861 829.989Q702.824 831.912 699.753 833.78Q696.682 835.648 693.578 837.461Q690.474 839.274 687.338 841.031Q684.202 842.788 681.035 844.489Q677.868 846.189 674.671 847.833Q671.474 849.477 668.248 851.063Q665.022 852.649 661.768 854.177Q658.514 855.705 655.234 857.174Q651.953 858.644 648.646 860.054Q645.34 861.464 642.009 862.815Q638.678 864.166 635.323 865.458Q631.968 866.749 628.591 867.979Q625.213 869.21 621.814 870.38Q618.415 871.55 614.996 872.659Q611.576 873.768 608.138 874.816Q604.699 875.864 601.242 876.849Q597.785 877.835 594.311 878.759Q590.837 879.683 587.347 880.544Q583.857 881.405 580.352 882.204Q576.847 883.003 573.329 883.739Q569.81 884.474 566.279 885.147C547.855 888.716 528.483 891.73 509.665 891.279C480.86 890.588 452.249 885.126 424.626 877.138C347.484 854.832 289.256 816.063 234.172 758.232C213.197 734.686 194.934 709.887 180.423 681.785C148.563 620.084 161.504 592.14 179.805 531.778C186.68 509.1 192.483 486.035 199.691 463.476C194.62 451.649 191.168 439.314 187.758 426.932Q185.324 418.202 183.208 409.39Q181.093 400.577 179.299 391.693Q177.505 382.81 176.035 373.866Q174.566 364.923 173.422 355.933Q172.279 346.942 171.463 337.916Q170.646 328.89 170.159 319.84Q169.672 310.79 169.514 301.729Q169.356 292.667 169.527 283.606C170.334 244.548 179.125 174.562 208.793 146.426C216.63 138.994 226.576 134.74 237.431 135.079C282.675 136.492 358.086 204.543 389.95 236.078C396.776 242.834 403.062 250.151 409.632 257.157C480.674 236.171 543.422 236.601 614.381 257.428C626.016 246.08 636.728 233.784 648.384 222.42C680.559 191.053 739.624 139.165 784.822 132.68Z"/>
	<path fill="#EC6D07" d="M167.855 624.42C171.739 628.584 177.428 646.792 180.816 653.743C194.801 682.433 213.95 708.635 235.481 732.082C240.561 737.613 245.632 743.736 252.143 747.638C253.386 749.631 254.547 751.779 256.136 753.516C262.706 768.412 273.086 780.574 281.214 794.451C279.679 793.753 278.453 792.707 277.152 791.647C233.029 755.68 173.579 683.11 167.855 624.42Z"/>
	<path fill="#EC6D07" d="M852.101 628.616L854.687 626.684C853.623 642.03 847.8 656.995 841.424 670.872C819.547 718.486 785.487 759.132 746.144 793.316C742.561 796.429 738.842 799.642 734.704 801.99C737.37 797.129 741.61 792.745 745.02 788.351C753.241 777.76 763.374 763.606 767.843 750.986C769.74 748.605 771.185 745.66 772.703 743.018L774.474 743.23C779.543 740.992 784.052 734.719 787.791 730.664Q792.917 725.079 797.786 719.268Q802.656 713.457 807.258 707.433Q811.861 701.409 816.188 695.184Q820.514 688.959 824.556 682.545Q828.598 676.132 832.347 669.542Q836.096 662.953 839.544 656.202Q842.993 649.45 846.133 642.55Q849.274 635.65 852.101 628.616Z"/>
	<path fill="#F8B149" d="M620.941 259.933C658.371 219.926 697.265 182.762 744.861 154.899C756.863 147.873 769.915 139.695 784.217 139.136C794.346 138.739 803.369 142.48 810.684 149.42C839.081 176.359 847.316 253.859 848.017 291.308Q848.337 307.72 847.418 324.11L846.713 324.393C845.586 323.329 845.603 320.879 845.463 319.333C844.971 313.943 845.21 308.558 844.854 303.174C843.745 286.425 842.432 269.751 839.878 253.149C835.62 225.476 825.155 169.574 801.392 152.498C795.074 147.957 787.631 146.33 779.976 147.604C772.02 148.928 764.205 152.76 757.081 156.421C718.672 176.164 682.293 209.02 651.622 239.236C644.009 246.736 635.565 253.993 629.303 262.696L620.941 259.933Z"/>
	<defs>
		<linearGradient id="gradient_1" gradientUnits="userSpaceOnUse" x1="303.74164" y1="434.02969" x2="273.2413" y2="137.65292">
			<stop offset="0" stop-color="#FEA50C"/>
			<stop offset="1" stop-color="#FFC213"/>
		</linearGradient>
	</defs>
	<path fill="url(#gradient_1)" d="M200.238 444.839C195.957 435.686 193.758 424.509 191.349 414.718C180.538 370.768 175.25 326.955 176.431 281.673C177.387 245.017 185.414 176.895 213.45 150.632C220.749 143.794 229.074 140.666 239.078 141.115C277.331 142.835 349.087 205.556 377.095 232.446C386.169 241.157 394.693 250.441 403.237 259.667L394.995 262.456C388.847 255.888 382.78 249.191 376.32 242.926C348.347 215.802 276.65 151.965 239.447 150.938C230.153 150.682 222.478 153.777 215.802 160.239C189.723 185.486 181.28 255.378 180.929 290.731Q180.842 306.196 181.668 321.639Q182.493 337.082 184.229 352.449Q185.964 367.817 188.603 383.055Q191.242 398.293 194.775 413.349C196.735 421.645 199.369 429.752 201.575 437.98C202.541 441.585 203.044 445.258 204.042 448.866C204.272 449.698 204.2 449.405 204.064 450.404C202.991 450.008 203.238 450.349 202.886 449.581C202.042 447.739 201.89 446.171 200.238 444.839Z"/>
	<path fill="#F3D5AD" d="M683.032 288.246C696.144 262.605 749.411 190.51 775.507 182.467C779.395 181.269 783.442 181.12 787.114 183.055C797.094 188.316 801.652 203.681 804.511 213.771C817.741 260.464 812.451 319.082 806.414 366.493C804.75 379.559 803.545 392.819 800.412 405.631C799.734 404.639 799.34 403.919 799.204 402.696C798.617 397.429 799.506 391.311 799.792 385.965C800.525 372.247 801.692 358.487 801.867 344.75C802.257 314.062 801.92 282.379 796.562 252.099C794.406 239.912 790.914 219.059 779.775 211.692C776.803 209.726 773.554 209.142 770.078 209.866C751.657 213.703 726.332 246.751 715.664 262.449C708.3 273.284 701.945 284.782 694.533 295.581L683.032 288.246Z"/>
	<path fill="#F3D5AD" d="M228.055 404.167C214.113 354.82 206.479 294.173 212.554 243.043C214.524 226.466 218.926 196.738 232.72 186.346C236.143 183.767 240.378 182.471 244.647 183.219C267.907 187.299 306.75 237.966 320.047 256.066C327.726 266.519 334.658 277.475 342.284 287.941L334.138 293.015C318.182 275.985 271.314 210.87 247.624 210.103C244.051 209.987 240.929 211.499 238.468 214.036C222.754 230.234 222.397 288.406 223.248 310.56C224.163 334.37 226.931 357.259 230.896 380.729C231.734 385.69 231.813 391.077 232.941 395.917C231.398 398.705 229.681 401.425 228.055 404.167Z"/>
	<path fill="#F8B149" d="M232.941 395.917C231.813 391.077 231.734 385.69 230.896 380.729C226.931 357.259 224.163 334.37 223.248 310.56C222.397 288.406 222.754 230.234 238.468 214.036C240.929 211.499 244.051 209.987 247.624 210.103C271.314 210.87 318.182 275.985 334.138 293.015C289.123 324.267 263.195 350.229 232.941 395.917Z"/>
	<path fill="#F8B149" d="M694.533 295.581C701.945 284.782 708.3 273.284 715.664 262.449C726.332 246.751 751.657 213.703 770.078 209.866C773.554 209.142 776.803 209.726 779.775 211.692C790.914 219.059 794.406 239.912 796.562 252.099C801.92 282.379 802.257 314.062 801.867 344.75C801.692 358.487 800.525 372.247 799.792 385.965C799.506 391.311 798.617 397.429 799.204 402.696C799.34 403.919 799.734 404.639 800.412 405.631C800.409 407.409 799.977 409.317 799.732 411.085C793.464 401.822 788.45 391.746 782.09 382.501C758.2 347.773 728.671 320.052 694.533 295.581Z"/>
	<path fill="#F3D5AD" d="M256.136 753.516C262.122 755.391 272.925 767.178 278.493 771.519C286.923 778.089 295.612 784.56 304.514 790.484Q310.138 794.283 315.888 797.889Q321.638 801.495 327.506 804.905Q333.375 808.314 339.356 811.522Q345.337 814.731 351.423 817.735Q357.509 820.739 363.693 823.535Q369.878 826.331 376.153 828.916Q382.429 831.501 388.788 833.871Q395.148 836.242 401.584 838.396C435.013 849.571 475.419 856.899 510.655 856.939C516.859 856.947 523.04 856.404 529.228 856.032C592.865 852.207 654.174 830.552 708.12 796.916Q724.519 786.658 739.671 774.635C743.131 771.864 746.605 769.066 749.91 766.113C754.74 761.796 761.239 753.918 766.958 751.351C767.249 751.22 767.548 751.107 767.843 750.986C763.374 763.606 753.241 777.76 745.02 788.351C741.61 792.745 737.37 797.129 734.704 801.99C679.371 850.198 591.854 881.5 519.022 884.98C501.575 885.813 484.257 883.714 467.098 880.724Q461.951 879.844 456.828 878.827Q451.706 877.81 446.613 876.657Q441.52 875.504 436.459 874.215Q431.398 872.927 426.374 871.504Q421.349 870.08 416.364 868.524Q411.38 866.967 406.438 865.278Q401.497 863.589 396.602 861.769Q391.707 859.949 386.863 857.999Q382.019 856.049 377.228 853.97Q372.437 851.892 367.704 849.686Q362.97 847.48 358.297 845.149Q353.624 842.818 349.015 840.364Q344.406 837.909 339.864 835.332Q335.322 832.755 330.85 830.058Q326.378 827.361 321.98 824.545Q317.582 821.73 313.26 818.798C302.07 811.231 291.212 803.554 281.214 794.451C273.086 780.574 262.706 768.412 256.136 753.516Z"/>
	<path fill="#FB8A07" d="M200.238 444.839C201.89 446.171 202.042 447.739 202.886 449.581C203.238 450.349 202.991 450.008 204.064 450.404C204.2 449.405 204.272 449.698 204.042 448.866C203.044 445.258 202.541 441.585 201.575 437.98C199.369 429.752 196.735 421.645 194.775 413.349Q191.242 398.293 188.603 383.055Q185.964 367.817 184.229 352.449Q182.493 337.082 181.668 321.639Q180.842 306.196 180.929 290.731C181.28 255.378 189.723 185.486 215.802 160.239C222.478 153.777 230.153 150.682 239.447 150.938C276.65 151.965 348.347 215.802 376.32 242.926C382.78 249.191 388.847 255.888 394.995 262.456Q382.569 266.952 370.57 272.489Q358.571 278.025 347.087 284.563C327.212 258.116 278.011 182.185 244.721 177.77C239.245 177.043 234.012 178.624 229.657 181.974C214.1 193.942 209.408 222.097 207.344 240.622C200.955 297.957 209.604 355.322 223.86 410.87C216.116 424.873 208.209 438.949 203.587 454.347C201.991 451.266 200.695 448.32 200.238 444.839Z"/>
	<defs>
		<linearGradient id="gradient_2" gradientUnits="userSpaceOnUse" x1="835.68616" y1="447.07712" x2="706.37524" y2="182.09702">
			<stop offset="0" stop-color="#F67601"/>
			<stop offset="1" stop-color="#FF9108"/>
		</linearGradient>
	</defs>
	<path fill="url(#gradient_2)" d="M629.303 262.696C635.565 253.993 644.009 246.736 651.622 239.236C682.293 209.02 718.672 176.164 757.081 156.421C764.205 152.76 772.02 148.928 779.976 147.604C787.631 146.33 795.074 147.957 801.392 152.498C825.155 169.574 835.62 225.476 839.878 253.149C842.432 269.751 843.745 286.425 844.854 303.174C845.21 308.558 844.971 313.943 845.463 319.333C845.603 320.879 845.586 323.329 846.713 324.393L847.418 324.11C847.679 332.616 846.367 341.421 845.392 349.854Q843.293 369.31 839.743 388.555Q836.193 407.799 831.213 426.724C828.513 437.065 825.747 447.468 821.556 457.322C816.105 444.419 810.382 431.818 804.256 419.225C807.458 406.671 809.291 393.445 811.211 380.64C818.968 328.885 823.934 263.67 810.56 212.464C807.41 200.4 802.078 184.569 790.426 178.07C785.479 175.311 780.169 175.095 774.793 176.642C745.18 185.165 692.266 257.522 677.332 285.003C661.537 276.269 646.399 268.591 629.303 262.696Z"/>
	<path fill="#F8B149" d="M167.548 619.142C167.08 590.68 176.827 565.18 184.591 538.285C192.538 510.759 199.523 482.861 209.615 456.009C224.994 415.088 250.266 376.48 280.664 345.144Q283.397 342.312 286.199 339.55Q289.001 336.787 291.871 334.094Q294.741 331.402 297.676 328.781Q300.612 326.161 303.612 323.614Q306.612 321.068 309.674 318.596Q312.737 316.125 315.859 313.73Q318.982 311.335 322.163 309.019Q325.344 306.702 328.582 304.466Q331.819 302.229 335.112 300.073Q338.404 297.917 341.748 295.844Q345.093 293.771 348.488 291.781Q351.883 289.792 355.327 287.887Q358.77 285.982 362.26 284.163Q365.75 282.345 369.283 280.613Q372.817 278.882 376.393 277.238Q379.968 275.595 383.584 274.041Q387.199 272.487 390.852 271.023Q394.504 269.56 398.192 268.187Q401.88 266.814 405.601 265.534Q409.322 264.253 413.074 263.065Q416.825 261.877 420.605 260.783Q424.385 259.688 428.191 258.688Q431.997 257.688 435.826 256.782Q439.656 255.877 443.507 255.067Q447.358 254.256 451.227 253.542Q455.097 252.828 458.984 252.21Q462.87 251.592 466.77 251.07Q470.671 250.549 474.583 250.125Q478.495 249.7 482.417 249.373Q486.338 249.046 490.267 248.816Q494.195 248.587 498.128 248.455Q502.061 248.322 505.996 248.288C589.128 247.041 673.301 276.417 733.279 334.931C776.571 377.167 806.443 428.748 824.582 486.313C830.475 505.018 834.657 524.193 839.931 543.069C846.184 565.453 855.307 586.78 855.575 610.399Q855.705 618.573 854.687 626.684L852.101 628.616C851.426 611.75 849.417 595.759 845.445 579.322C841.809 564.279 837.285 549.36 832.874 534.529C821.639 496.745 808.577 458.878 787.223 425.453C779.55 413.442 770.831 402.27 761.802 391.253C738.251 362.518 710.642 339.058 678.9 319.731C607.406 276.201 514.86 264.09 433.855 283.894Q429.555 284.936 425.285 286.096Q421.014 287.255 416.778 288.532Q412.541 289.808 408.341 291.2Q404.141 292.592 399.98 294.099Q395.82 295.606 391.702 297.226Q387.585 298.846 383.513 300.579Q379.442 302.311 375.419 304.155Q371.396 305.998 367.426 307.951Q363.456 309.905 359.54 311.966Q355.625 314.027 351.768 316.195Q347.91 318.363 344.114 320.636Q340.317 322.909 336.584 325.285Q332.852 327.661 329.186 330.139Q325.52 332.616 321.923 335.194Q318.326 337.771 314.801 340.446Q311.276 343.121 307.826 345.891Q304.376 348.662 301.003 351.526Q297.63 354.39 294.337 357.345Q291.044 360.301 287.834 363.346Q284.623 366.391 281.497 369.522Q278.371 372.654 275.332 375.87Q272.293 379.086 269.343 382.385Q266.394 385.683 263.536 389.061Q260.678 392.439 257.913 395.894Q255.149 399.349 252.48 402.879Q249.812 406.408 247.241 410.01Q244.67 413.611 242.199 417.282Q239.728 420.952 237.359 424.689Q234.99 428.426 232.724 432.227Q230.457 436.027 228.297 439.889Q226.136 443.75 224.081 447.669Q222.027 451.588 220.081 455.562C208.449 479.279 200.609 504.661 193.102 529.911C187.72 548.016 181.747 566.058 176.689 584.243C174.243 593.035 171.87 612.195 167.805 618.741C167.721 618.876 167.634 619.008 167.548 619.142Z"/>
	<path fill="#FB8A07" d="M167.548 619.142C167.634 619.008 167.721 618.876 167.805 618.741C171.87 612.195 174.243 593.035 176.689 584.243C181.747 566.058 187.72 548.016 193.102 529.911C200.609 504.661 208.449 479.279 220.081 455.562Q222.027 451.588 224.081 447.669Q226.136 443.75 228.297 439.889Q230.457 436.027 232.724 432.227Q234.99 428.426 237.359 424.689Q239.728 420.952 242.199 417.282Q244.67 413.611 247.241 410.01Q249.812 406.408 252.48 402.879Q255.149 399.349 257.913 395.894Q260.678 392.439 263.536 389.061Q266.394 385.683 269.343 382.385Q272.293 379.086 275.332 375.87Q278.371 372.654 281.497 369.522Q284.623 366.391 287.834 363.346Q291.044 360.301 294.337 357.345Q297.63 354.39 301.003 351.526Q304.376 348.662 307.826 345.891Q311.276 343.121 314.801 340.446Q318.326 337.771 321.923 335.194Q325.519 332.616 329.186 330.139Q332.852 327.661 336.584 325.285Q340.317 322.909 344.114 320.636Q347.91 318.363 351.767 316.195Q355.625 314.027 359.54 311.966Q363.456 309.905 367.426 307.951Q371.396 305.998 375.419 304.155Q379.441 302.311 383.513 300.579Q387.585 298.846 391.702 297.226Q395.82 295.606 399.98 294.099Q404.14 292.592 408.341 291.2Q412.541 289.808 416.778 288.532Q421.014 287.255 425.285 286.096Q429.555 284.936 433.855 283.894C514.86 264.09 607.406 276.201 678.9 319.731C710.642 339.058 738.251 362.518 761.802 391.253C770.831 402.27 779.55 413.442 787.223 425.453C808.577 458.878 821.639 496.745 832.874 534.529C837.285 549.36 841.809 564.279 845.445 579.322C849.417 595.759 851.426 611.75 852.101 628.616Q849.274 635.65 846.133 642.55Q842.993 649.45 839.544 656.202Q836.096 662.953 832.347 669.542Q828.598 676.132 824.556 682.545Q820.514 688.959 816.188 695.184Q811.861 701.409 807.258 707.434Q802.656 713.457 797.786 719.268Q792.917 725.079 787.791 730.664C784.052 734.719 779.543 740.992 774.474 743.23L772.703 743.018C771.185 745.66 769.74 748.605 767.843 750.986C767.548 751.107 767.249 751.22 766.958 751.351C761.239 753.918 754.74 761.796 749.91 766.113C746.605 769.066 743.131 771.864 739.671 774.635Q724.519 786.658 708.12 796.916C654.174 830.552 592.865 852.207 529.228 856.032C523.04 856.404 516.859 856.947 510.655 856.939C475.419 856.899 435.013 849.571 401.584 838.396Q395.148 836.242 388.788 833.871Q382.429 831.501 376.153 828.916Q369.878 826.331 363.693 823.535Q357.509 820.739 351.423 817.735Q345.337 814.731 339.356 811.522Q333.375 808.314 327.506 804.905Q321.638 801.495 315.888 797.889Q310.138 794.283 304.514 790.484C295.612 784.56 286.923 778.089 278.493 771.519C272.925 767.178 262.122 755.391 256.136 753.516C254.547 751.779 253.386 749.631 252.143 747.638C245.632 743.736 240.561 737.613 235.481 732.082C213.95 708.635 194.801 682.433 180.816 653.743C177.428 646.792 171.739 628.584 167.855 624.42C167.535 622.711 167.595 620.881 167.548 619.142Z"/>
	<path fill="#F3D5AD" d="M614.313 376.691C621.147 375.478 631.15 378.079 636.845 381.984C641.184 384.959 644.575 389.436 645.343 394.731C646.069 399.735 644.28 404.681 641.325 408.677C633.908 418.705 621.925 421.575 610.296 423.48C601.87 423.68 592.58 422.436 585.643 417.244C581.747 414.328 578.921 410.174 578.242 405.3C577.534 400.212 579.389 395.382 582.495 391.406C590.099 381.671 602.59 378.087 614.313 376.691Z"/>
	<path fill="#F3D5AD" d="M402.868 377.165C413.695 375.765 425.752 378.227 435.047 383.978C440.753 387.508 445.858 392.755 447.247 399.526Q447.426 400.391 447.517 401.27Q447.608 402.148 447.61 403.032Q447.612 403.915 447.525 404.794Q447.437 405.673 447.262 406.539Q447.086 407.405 446.824 408.249Q446.562 409.092 446.217 409.905Q445.871 410.718 445.445 411.492Q445.019 412.266 444.517 412.993C439.686 419.981 431.79 421.969 423.982 423.504C412.351 424.436 399.71 421.814 389.93 415.292C384.508 411.676 379.56 406.415 378.396 399.793Q378.324 399.398 378.273 399.001Q378.222 398.603 378.192 398.203Q378.161 397.803 378.152 397.402Q378.143 397.001 378.155 396.601Q378.167 396.2 378.199 395.8Q378.232 395.4 378.286 395.003Q378.339 394.605 378.414 394.211Q378.488 393.817 378.583 393.428Q378.678 393.038 378.793 392.654Q378.908 392.27 379.043 391.892Q379.178 391.515 379.333 391.145Q379.487 390.775 379.661 390.413Q379.835 390.052 380.027 389.7Q380.22 389.348 380.431 389.007Q380.641 388.666 380.87 388.336Q381.098 388.006 381.343 387.689C386.415 381.007 394.943 378.39 402.868 377.165Z"/>
	<path fill="#06080B" d="M380.318 445.642C392.26 444.4 404.83 447.709 414.381 455.011C424.507 462.753 430.681 473.907 432.277 486.503Q432.413 487.648 432.491 488.798Q432.57 489.948 432.593 491.1Q432.615 492.252 432.58 493.404Q432.546 494.557 432.455 495.706Q432.363 496.855 432.216 497.998Q432.068 499.141 431.864 500.275Q431.66 501.41 431.401 502.533Q431.142 503.656 430.827 504.765Q430.513 505.874 430.144 506.966Q429.775 508.058 429.353 509.131Q428.931 510.203 428.457 511.254Q427.983 512.304 427.457 513.33Q426.932 514.356 426.357 515.355Q425.781 516.354 425.157 517.323Q424.534 518.292 423.863 519.229Q423.192 520.167 422.476 521.07C414.399 531.435 403.089 537.156 390.211 538.818C379.449 540.52 367.416 536.292 358.605 530.311C348.262 523.291 341.071 512.815 338.822 500.432Q338.62 499.296 338.475 498.151Q338.329 497.007 338.239 495.857Q338.15 494.706 338.117 493.553Q338.084 492.4 338.107 491.246Q338.13 490.093 338.21 488.942Q338.29 487.791 338.426 486.645Q338.562 485.499 338.754 484.361Q338.946 483.224 339.193 482.097Q339.441 480.97 339.743 479.856Q340.045 478.743 340.402 477.645Q340.758 476.548 341.168 475.469Q341.578 474.391 342.04 473.334Q342.502 472.276 343.015 471.243Q343.528 470.21 344.091 469.203Q344.654 468.196 345.266 467.217Q345.878 466.239 346.537 465.292C354.78 453.432 366.471 448.102 380.318 445.642Z"/>
	<path fill="#355D9A" d="M379.976 449.677C391.33 448.595 401.55 450.682 410.821 457.561Q411.684 458.211 412.514 458.902Q413.344 459.594 414.14 460.324Q414.935 461.055 415.695 461.823Q416.454 462.591 417.176 463.395Q417.897 464.199 418.579 465.037Q419.261 465.875 419.901 466.745Q420.541 467.615 421.139 468.515Q421.736 469.415 422.289 470.343Q422.843 471.271 423.35 472.224Q423.858 473.178 424.319 474.155Q424.78 475.131 425.193 476.13Q425.606 477.128 425.971 478.145Q426.335 479.162 426.65 480.195Q426.964 481.228 427.229 482.276Q427.493 483.323 427.707 484.382Q427.92 485.441 428.082 486.509C429.678 497.791 426.063 509.379 419.152 518.314C411.774 527.854 401.963 532.778 390.118 534.374C379.3 535.373 368.443 533.053 359.632 526.519C349.908 519.307 343.622 508.944 341.938 496.92C340.406 485.979 344.162 474.503 350.756 465.783C357.939 456.283 368.41 451.316 379.976 449.677Z"/>
	<path fill="#06080B" d="M385.442 457.217C395.187 457.518 403.708 460.385 410.739 467.358Q411.359 467.974 411.947 468.619Q412.536 469.265 413.092 469.939Q413.647 470.613 414.169 471.313Q414.691 472.014 415.177 472.74Q415.663 473.466 416.113 474.215Q416.563 474.964 416.975 475.734Q417.387 476.504 417.76 477.294Q418.133 478.084 418.467 478.891Q418.8 479.698 419.094 480.521Q419.387 481.344 419.639 482.181Q419.891 483.017 420.101 483.865Q420.312 484.713 420.479 485.57Q420.647 486.428 420.773 487.292Q420.898 488.157 420.98 489.026Q421.062 489.896 421.101 490.769Q421.14 491.641 421.136 492.515Q421.135 493.367 421.091 494.218Q421.048 495.068 420.962 495.916Q420.876 496.763 420.749 497.606Q420.621 498.448 420.452 499.283Q420.282 500.118 420.072 500.943Q419.861 501.768 419.61 502.582Q419.359 503.396 419.068 504.197Q418.777 504.997 418.446 505.782Q418.115 506.567 417.746 507.335Q417.377 508.103 416.97 508.851Q416.563 509.6 416.12 510.327Q415.676 511.054 415.198 511.759Q414.719 512.463 414.205 513.143Q413.692 513.823 413.145 514.476Q412.599 515.13 412.021 515.755Q411.443 516.381 410.834 516.977C404.161 523.604 394.374 527.585 384.97 527.487C376.859 527.179 368.354 524.197 362.104 518.976Q361.43 518.404 360.784 517.799Q360.139 517.195 359.524 516.559Q358.91 515.923 358.327 515.257Q357.745 514.592 357.196 513.898Q356.648 513.205 356.134 512.485Q355.62 511.765 355.143 511.021Q354.665 510.276 354.225 509.509Q353.785 508.742 353.384 507.954Q352.982 507.166 352.62 506.359Q352.258 505.552 351.937 504.729Q351.615 503.905 351.335 503.066Q351.054 502.228 350.816 501.376Q350.577 500.524 350.381 499.662Q350.185 498.8 350.031 497.929Q349.878 497.058 349.768 496.18Q349.658 495.303 349.592 494.421Q349.525 493.557 349.501 492.692Q349.477 491.826 349.496 490.96Q349.515 490.094 349.577 489.23Q349.638 488.366 349.742 487.507Q349.847 486.647 349.993 485.793Q350.14 484.939 350.328 484.094Q350.516 483.249 350.746 482.414Q350.976 481.579 351.247 480.756Q351.518 479.934 351.829 479.125Q352.141 478.317 352.491 477.525Q352.842 476.733 353.232 475.96Q353.621 475.186 354.048 474.433Q354.475 473.679 354.939 472.948Q355.403 472.216 355.902 471.509Q356.402 470.801 356.936 470.119Q357.469 469.437 358.036 468.782C365.151 460.605 374.967 457.871 385.442 457.217Z"/>
	<path fill="#FEFEFE" d="M371.138 467.007C373.511 466.968 375.973 466.897 378.291 467.487C381.504 468.305 384.464 470.48 386.018 473.425C387.572 476.372 387.705 479.856 386.613 482.983C384.944 487.76 381.475 490.172 377.196 492.354C375.136 492.493 372.923 492.756 370.905 492.219C367.265 491.25 364.119 488.971 362.372 485.601Q362.074 485.03 361.837 484.432Q361.6 483.833 361.427 483.214Q361.253 482.594 361.145 481.959Q361.037 481.325 360.995 480.682Q360.954 480.04 360.979 479.397Q361.005 478.754 361.097 478.116Q361.189 477.479 361.346 476.855Q361.504 476.231 361.726 475.627C363.428 470.972 366.903 468.96 371.138 467.007Z"/>
	<path fill="#06080B" d="M635.258 446.645C645.994 445.05 657.597 449.232 666.436 455.08C676.346 461.637 683.56 472.879 685.82 484.532Q686.039 485.66 686.202 486.797Q686.366 487.934 686.473 489.077Q686.58 490.221 686.632 491.368Q686.683 492.516 686.678 493.664Q686.673 494.813 686.611 495.96Q686.55 497.107 686.432 498.25Q686.315 499.393 686.141 500.528Q685.968 501.663 685.739 502.789Q685.51 503.915 685.226 505.028Q684.943 506.141 684.605 507.239Q684.267 508.336 683.875 509.416Q683.484 510.496 683.04 511.556Q682.596 512.615 682.101 513.651Q681.606 514.688 681.06 515.699Q680.515 516.71 679.92 517.693Q679.326 518.675 678.684 519.628C670.287 532.031 659.173 538.255 644.626 540.983C633.149 541.593 622.438 539.565 612.824 532.968C601.807 525.409 594.73 513.819 592.39 500.715C590.244 488.703 593.464 475.793 600.515 465.879C608.942 454.029 621.412 449.036 635.258 446.645Z"/>
	<path fill="#355D9A" d="M634.019 450.642C644.354 449.658 654.645 451.894 663.336 457.684C673.164 464.233 679.85 475.078 682.117 486.598C684.286 497.623 681.42 508.545 675.129 517.745C667.953 528.237 658.312 534.148 645.897 536.471C635.768 538.45 624.388 535.82 615.826 530.176Q614.914 529.58 614.033 528.939Q613.152 528.298 612.304 527.614Q611.456 526.93 610.643 526.204Q609.831 525.479 609.055 524.713Q608.279 523.948 607.543 523.145Q606.807 522.342 606.111 521.503Q605.416 520.664 604.763 519.792Q604.111 518.919 603.503 518.016Q602.894 517.112 602.332 516.178Q601.77 515.245 601.255 514.285Q600.74 513.325 600.273 512.34Q599.807 511.356 599.39 510.349Q598.973 509.342 598.607 508.316Q598.241 507.29 597.927 506.247Q597.612 505.204 597.351 504.146Q597.089 503.088 596.88 502.019C594.675 490.731 596.73 479.103 603.202 469.528C610.657 458.5 621.225 453.111 634.019 450.642Z"/>
	<path fill="#06080B" d="M638.111 458.189C646.615 457.309 656.35 460.441 662.955 465.801C670.405 471.847 674.506 480.539 675.396 490.007Q675.49 490.922 675.537 491.84Q675.585 492.759 675.587 493.679Q675.588 494.598 675.544 495.517Q675.499 496.436 675.408 497.351Q675.318 498.266 675.181 499.176Q675.045 500.085 674.863 500.987Q674.681 501.889 674.454 502.78Q674.227 503.671 673.955 504.55Q673.684 505.429 673.369 506.293Q673.053 507.157 672.695 508.004Q672.337 508.851 671.937 509.679Q671.536 510.507 671.095 511.314Q670.654 512.121 670.173 512.905Q669.691 513.689 669.171 514.448Q668.651 515.206 668.094 515.938Q667.536 516.669 666.943 517.372C660.341 525.314 651.408 528.921 641.329 529.781C632.513 529.647 624.62 527.975 617.534 522.418Q616.815 521.846 616.126 521.239Q615.436 520.632 614.778 519.991Q614.119 519.351 613.493 518.678Q612.867 518.006 612.275 517.303Q611.683 516.601 611.127 515.87Q610.57 515.139 610.051 514.381Q609.531 513.623 609.05 512.841Q608.569 512.058 608.127 511.253Q607.685 510.448 607.283 509.621Q606.882 508.795 606.522 507.95Q606.162 507.105 605.844 506.243Q605.526 505.381 605.252 504.504Q604.977 503.627 604.746 502.738Q604.515 501.849 604.329 500.949Q604.142 500.05 604 499.142Q603.859 498.235 603.762 497.321C602.776 488.128 605.616 479.163 611.396 471.993C618.201 463.552 627.492 459.307 638.111 458.189Z"/>
	<path fill="#FEFEFE" d="M623.884 468.984C625.956 469.029 628.128 469.201 630.062 469.993C632.838 471.13 635.181 473.353 636.256 476.175Q636.463 476.722 636.615 477.286Q636.767 477.851 636.863 478.428Q636.958 479.005 636.996 479.589Q637.034 480.172 637.014 480.757Q636.993 481.341 636.915 481.921Q636.838 482.5 636.703 483.069Q636.568 483.638 636.377 484.191Q636.186 484.744 635.942 485.275C634.226 489.083 631.268 491.101 627.472 492.521C624.698 492.61 622.42 492.476 619.925 491.115C615.76 488.842 614.362 484.759 613.213 480.467C613.613 479 613.997 477.454 614.642 476.07C616.554 471.971 619.891 470.439 623.884 468.984Z"/>
	<path fill="#FBEDD9" d="M378.884 609.532C390.517 588.244 404.182 569.313 423.567 554.316C452.633 531.831 492.317 519.926 528.872 524.658C565.679 529.423 594.368 554.203 621.354 577.557C631.146 586.03 641.581 594.176 649.517 604.479C656.724 601.798 664.329 600.042 671.655 597.669Q689.878 591.67 707.635 584.408C745.197 569.13 780.061 548.13 814.872 527.541C816.801 541.885 816.193 557.033 815.79 571.464C813.949 637.327 800.737 683.82 772.703 743.018C771.185 745.66 769.74 748.605 767.843 750.986C767.548 751.107 767.249 751.22 766.958 751.351C761.239 753.918 754.74 761.796 749.91 766.113C746.605 769.066 743.131 771.864 739.671 774.635Q724.519 786.658 708.12 796.916C654.174 830.552 592.865 852.207 529.228 856.032C523.04 856.404 516.859 856.947 510.655 856.939C475.419 856.899 435.013 849.571 401.584 838.396Q395.148 836.242 388.788 833.871Q382.429 831.501 376.153 828.916Q369.878 826.331 363.693 823.535Q357.509 820.739 351.423 817.735Q345.337 814.731 339.356 811.522Q333.375 808.314 327.506 804.905Q321.638 801.495 315.888 797.889Q310.138 794.283 304.514 790.484C295.612 784.56 286.923 778.089 278.493 771.519C272.925 767.178 262.122 755.391 256.136 753.516C254.547 751.779 253.386 749.631 252.143 747.638C249.686 740.42 246.091 733.588 242.911 726.666Q237.587 715.026 233.287 702.97Q230.503 694.96 228.022 686.851Q225.541 678.741 223.368 670.544Q221.194 662.347 219.331 654.074Q217.468 645.801 215.918 637.464Q214.367 629.126 213.132 620.736Q211.897 612.347 210.979 603.916Q210.061 595.486 209.461 587.027Q208.861 578.568 208.58 570.092C208.196 555.825 208.921 541.552 209.512 527.301C228.471 537.82 246.724 549.586 265.761 559.996Q279.308 567.445 293.177 574.277Q307.045 581.109 321.207 587.311Q335.369 593.512 349.796 599.07Q364.222 604.628 378.884 609.532Z"/>
	<path fill="#F3D5AD" d="M438.214 740.49C441.346 743.598 445.476 747.709 447.703 751.527C467.206 768.596 491.595 777.805 517.643 776.111C538.742 774.739 557.36 766.164 573.422 752.602Q577.873 747.541 582.426 742.572C582.763 743.321 582.747 743.129 582.837 743.936C583.823 752.775 569.667 774.901 563.846 781.673C551.944 795.519 533.937 805.818 515.514 807.067C497.37 808.297 479.614 800.091 466.206 788.312Q462.365 784.901 458.948 781.067Q455.531 777.232 452.583 773.026C447.493 765.88 438.733 749.1 438.214 740.49Z"/>
	<path fill="#71706F" d="M447.703 751.527C467.206 768.596 491.595 777.805 517.643 776.111C538.742 774.739 557.36 766.164 573.422 752.602C573.364 753.381 573.419 753.556 573.147 754.239C570.048 762.01 552.064 774.778 544.427 778.498Q542.767 779.303 541.069 780.025Q539.371 780.747 537.64 781.383Q535.908 782.02 534.147 782.57Q532.387 783.12 530.601 783.583Q528.814 784.045 527.008 784.418Q525.201 784.791 523.378 785.074Q521.555 785.357 519.72 785.549Q517.885 785.742 516.043 785.843Q514.201 785.944 512.356 785.954Q510.511 785.963 508.668 785.882Q506.825 785.8 504.989 785.627Q503.152 785.454 501.326 785.19Q499.5 784.926 497.69 784.572Q495.879 784.218 494.088 783.775Q492.297 783.332 490.531 782.8Q488.764 782.268 487.026 781.65C473.084 776.789 454.305 765.343 447.703 751.527Z"/>
	<path fill="#FEFEFE" d="M416.008 685.086C424.262 687.143 432.002 688.386 440.517 688.294C445.647 709.468 456.559 726.762 475.391 738.267Q476.874 739.17 478.4 739.998Q479.926 740.826 481.492 741.578Q483.057 742.329 484.658 743.001Q486.259 743.674 487.892 744.266Q489.524 744.858 491.184 745.368Q492.843 745.879 494.526 746.306Q496.21 746.733 497.912 747.076Q499.614 747.419 501.331 747.677Q503.048 747.935 504.776 748.107Q506.504 748.279 508.238 748.365Q509.973 748.451 511.709 748.451Q513.445 748.451 515.18 748.364Q516.914 748.278 518.642 748.105Q520.37 747.933 522.087 747.674Q523.804 747.416 525.506 747.073Q527.208 746.729 528.891 746.302C548.151 741.436 564.429 728.153 574.372 711.102C578.418 704.164 580.814 696.768 582.781 689.021C590.664 688.716 598.223 688.441 605.94 686.624C601.825 707.145 593.998 725.214 582.426 742.572Q577.873 747.541 573.422 752.602C557.36 766.164 538.742 774.739 517.643 776.111C491.595 777.805 467.206 768.596 447.703 751.527C445.476 747.709 441.346 743.598 438.214 740.49C436.89 736.734 432.85 733.087 430.754 729.552C423.687 717.632 415.971 698.958 416.008 685.086Z"/>
	<path fill="#06080B" d="M496.08 635.772C481.522 630.405 469.907 618.982 462.795 605.301C458.109 596.287 453.227 583.806 456.684 573.612C459.045 566.653 465.146 562.403 471.523 559.415C492.578 549.549 523.726 548.136 545.579 556.088C553.635 559.019 561.713 564.201 565.321 572.286C569.27 581.134 567.083 590.932 563.589 599.514Q562.996 601.009 562.33 602.473Q561.664 603.936 560.926 605.365Q560.187 606.794 559.379 608.184Q558.571 609.574 557.694 610.923Q556.818 612.271 555.876 613.574Q554.934 614.878 553.928 616.132Q552.922 617.387 551.855 618.59Q550.788 619.794 549.662 620.942Q548.537 622.091 547.356 623.182Q546.175 624.274 544.941 625.305Q543.707 626.337 542.423 627.305Q541.14 628.274 539.81 629.178Q538.479 630.082 537.106 630.918Q535.732 631.755 534.319 632.522Q532.906 633.289 531.456 633.986Q530.006 634.682 528.524 635.305C516.213 638.947 508.432 639.15 496.08 635.772Z"/>
	<path fill="#111B34" d="M563.121 576.273C564.99 585.973 563.904 596.662 558.229 605.008Q556.981 606.818 555.556 608.492C557.55 599.785 561.934 589.558 560.625 580.574C561.215 578.997 562.195 577.666 563.121 576.273Z"/>
	<path fill="#0B234E" d="M470.036 609.635Q467.803 607.074 465.951 604.225Q464.099 601.375 462.665 598.295C459.461 591.547 456.604 581.695 459.41 574.433C461.791 568.271 467.829 564.503 473.634 561.991C494.717 552.866 525.744 551.148 547.266 559.687C555.683 563.026 559.655 568.188 563.121 576.273C562.195 577.666 561.215 578.997 560.625 580.574C552.606 589.602 543.381 593.187 531.874 596.027C538.177 605.54 537.141 612.383 533.951 622.668C533.484 624.175 532.802 625.748 533.115 627.338C533.306 628.311 533.386 628.626 532.93 629.591C526.936 634.468 514.688 633.844 507.44 633.344C503.489 633.071 493.44 632.577 490.691 629.446C489.947 612.804 482.686 614.701 491.101 596.821C488.159 594.988 484.984 594.078 481.735 592.951C473.299 590.025 467.545 586.371 461.755 579.546C462.808 590.371 465.673 599.723 470.036 609.635Z"/>
	<path fill="#B4BBDA" d="M510.607 562.738Q518.728 562.635 526.737 563.981C529.154 564.376 532.524 565.148 534.033 567.222L533.657 568.128C527.389 571.737 513.723 570.91 506.375 571.21C500.322 571.424 493.366 572.215 487.465 570.632C486.177 570.286 485.486 570.043 484.779 568.909C485.013 568.413 485.024 568.303 485.471 567.855C490.153 563.164 504.165 563.08 510.607 562.738Z"/>
	<path fill="#06080B" d="M364.384 620.735Q361.086 622.792 357.972 625.118Q354.858 627.443 351.949 630.021Q349.04 632.599 346.357 635.411Q343.674 638.223 341.235 641.249L341.055 640.626C343.194 635.845 347.418 631.183 351.068 627.455C361.653 616.645 370.747 612.76 385.922 612.57L379.832 614.167C384.991 629.873 395.836 644.234 410.847 651.725C424.646 658.611 442.432 660.376 457.096 655.276C461.554 653.725 493.881 637.89 496.08 635.772C508.432 639.15 516.213 638.947 528.524 635.305C531.22 637.396 534.633 639.004 537.602 640.704C550.366 648.015 564.361 656.179 579.086 658.322C595.639 660.73 615.074 656.671 628.554 646.51C638.554 638.972 643.709 628.248 645.48 616.085C644.599 616.018 642.048 616.064 641.502 615.519C649.159 613.614 655.529 614.7 662.32 618.781Q664.912 620.359 667.29 622.244Q669.668 624.13 671.795 626.294C674.933 629.443 687.484 645.101 687.842 648.917C687.873 649.241 687.834 649.568 687.83 649.893L687.801 649.91C686.44 648.98 685.361 646.106 684.411 644.662C683.028 642.557 681.078 640.648 679.337 638.837C672.831 632.065 665.501 626.252 658.027 620.603C658.27 638.636 653.665 653.684 640.822 666.813C631.667 676.17 618.619 683.448 605.94 686.624C598.223 688.441 590.664 688.716 582.781 689.021C580.814 696.768 578.418 704.164 574.372 711.102C564.429 728.153 548.151 741.436 528.891 746.302Q527.208 746.729 525.506 747.073Q523.804 747.416 522.087 747.674Q520.369 747.933 518.642 748.105Q516.914 748.278 515.18 748.364Q513.445 748.451 511.709 748.451Q509.973 748.451 508.238 748.365Q506.504 748.279 504.776 748.107Q503.048 747.935 501.331 747.677Q499.614 747.419 497.912 747.076Q496.209 746.733 494.526 746.306Q492.843 745.879 491.184 745.368Q489.524 744.858 487.892 744.266Q486.259 743.674 484.658 743.001Q483.057 742.329 481.492 741.578Q479.926 740.826 478.4 739.998Q476.874 739.17 475.391 738.267C456.559 726.762 445.647 709.468 440.517 688.294C432.002 688.386 424.262 687.143 416.008 685.086C406.302 681.73 397.762 677.042 389.999 670.267C375.477 657.593 365.703 640.089 364.384 620.735Z"/>
	<path fill="#86241B" d="M445.516 687.758C451.841 686.761 458.248 685.424 464.269 683.227C479.688 677.602 493.503 668.6 509.431 664.059C507.608 677.703 508.496 692.058 508.909 705.788C503.495 701.304 498.314 698.46 491.013 699.123C483.236 699.829 475.941 704.182 471.087 710.207C467.848 714.227 466.092 718.548 464.722 723.475C454.714 713.537 449.496 701.036 445.516 687.758Z"/>
	<path fill="#86241B" d="M513.009 664.048C535.61 670.197 554.953 683.664 578.125 688.457C573.559 701.835 568.872 713.135 558.811 723.372C557.592 719.01 556.052 714.825 553.402 711.11C548.991 704.923 542.264 701.033 534.829 699.811C526.408 698.426 520.005 700.925 513.319 705.741Q513.273 684.894 513.009 664.048Z"/>
	<path fill="#E05EA6" d="M464.722 723.475C466.092 718.548 467.848 714.227 471.087 710.207C475.941 704.182 483.236 699.829 491.013 699.123C498.314 698.46 503.495 701.304 508.909 705.788Q509.957 715.621 510.884 725.466C512.217 718.924 512.775 712.383 513.319 705.741C520.005 700.925 526.408 698.426 534.829 699.811C542.264 701.033 548.991 704.923 553.402 711.11C556.052 714.825 557.592 719.01 558.811 723.372C558.682 723.513 558.555 723.656 558.423 723.794C546.334 736.355 529.984 743.866 512.516 744.046C493.461 744.242 478.105 736.685 464.722 723.475Z"/>
	<path fill="#F3D5AD" d="M370.26 618.057C373.368 616.564 376.612 615.393 379.832 614.167C384.991 629.873 395.836 644.234 410.847 651.725C424.646 658.611 442.432 660.376 457.096 655.276C461.554 653.725 493.881 637.89 496.08 635.772C508.432 639.15 516.213 638.947 528.524 635.305C531.22 637.396 534.633 639.004 537.602 640.704C550.366 648.015 564.361 656.179 579.086 658.322C595.639 660.73 615.074 656.671 628.554 646.51C638.554 638.972 643.709 628.248 645.48 616.085C648.283 616.53 650.908 617.403 653.601 618.272C653.432 630.873 650.102 642.102 642.89 652.506C635.553 663.09 624.927 671.266 613.321 676.717C579.039 692.818 559.635 676.025 528.682 664.066C523.765 662.166 518.04 659.667 512.69 659.686C496.209 659.744 471.26 677.841 451.75 681.238C433.528 684.411 415.82 680.652 400.67 669.932C382.298 656.929 374.053 639.728 370.26 618.057Z"/>
</svg>
