<svg xmlns="http://www.w3.org/2000/svg" viewBox="0 0 1024 1024"><path fill="#020203" fill-opacity=".984" d="M876.923 665.44c2.376 8.15 3.533 16.795 4.619 25.202-1.516-.326-1.565-.542-2.607-1.725-.591-5.294-1.598-10.565-2.431-15.827.025-2.644-.63-5.128.419-7.65ZM911.991 774.193c.586-.828.52-.585.772-1.334.497-1.474 1.023-2.647 1.825-3.986-.871 19.684-10.426 47.618-24.973 61.451-.352-2.289 1.395-2.663 1.495-4.865 10.94-15.66 17.983-32.38 20.881-51.266ZM690.856 153.709c10.761 23.747 7.464 67.496 4.387 92.984-.821 6.807-1.44 14.272-3.267 20.884-1.148-2.287-.871-6.051-.967-8.647.065-6 1.942-12.46 2.522-18.52 2.516-26.287 4.936-57.35-3.668-82.77.199-1.337.624-2.633.993-3.931ZM314.048 170.683c.942.826 1.458 1.235 1.772 2.472-5.263 34.198-3.44 70.463 3.947 104.259l-.076.893c-.093 1.229.039 2.4.187 3.618l-.818 1.274c-8.464-29.52-13.046-82.726-5.012-112.516Z"/><path fill="#020203" d="M314.048 170.683c.104-7.685 6.298-23.612 11.644-29.121 4.304-4.435 9.99-6.47 16.089-6.6 29.597-.627 74.395 30.574 95.294 50.912 49.857-13.862 85.515-13.748 135.328-.808 20.069-18.565 48.573-36.521 74.595-44.973 10.166-3.302 22.208-5.999 32.201-.675 5.615 2.991 9.725 8.271 11.657 14.291-.369 1.298-.794 2.594-.993 3.931 8.604 25.42 6.184 56.483 3.668 82.77-.58 6.06-2.457 12.52-2.522 18.52.096 2.596-.181 6.36.967 8.647-.399 9.959-4.195 23.314-6.498 33.263 4.09 13.64 9.748 26.776 13.702 40.493 5.273 18.29 8.389 37.171 12.265 55.787 10.169 6.879 21.383 13.699 29.803 22.689 29.07-5.097 46.799-4.838 75.706.437 13.224-13.905 43.647-35.638 62.865-36.036 4.809-.1 9.179 1.369 12.612 4.806 9.556 9.565 9.855 29.838 9.584 42.581-.218 10.231-1.321 20.746-3.564 30.722-2.037 9.06-6.643 18.864-6.22 28.143.677 14.871 8.447 29.233 13.364 43.082 9.348 26.324-.262 52.084-20.009 70.726-7.528 7.107-16.304 12.293-25.253 17.371 5.079 9.435 16.406 34.044 16.59 43.799-1.049 2.522-.394 5.006-.419 7.65.833 5.262 1.84 10.533 2.431 15.827 1.042 1.183 1.091 1.399 2.607 1.725q1.207 9.352 1.597 18.774c13.427 6.464 23.163 17.518 28.146 31.559 2.786 7.852 5.06 19.659 3.303 27.898-.802 1.339-1.328 2.512-1.825 3.986-.252.749-.186.506-.772 1.334-2.898 18.886-9.941 35.606-20.881 51.266-.1 2.202-1.847 2.576-1.495 4.865-11.483 14.125-31.245 21.571-48.869 23.492-9.088 10.054-16.294 18.186-30.724 18.932-8.645.448-18.785-1.465-25.39-7.409-3.221-2.898-4.861-6.017-6.515-9.909-3.126.007-6.27.109-9.382-.22-2.545 6.731-6.187 11.873-12.899 15.019-8.848 4.146-20.433 4.293-29.504.797-7.404-2.853-13.292-8.366-18.1-14.55-22.551-5.261-36.62-15.337-52.552-31.729-14.355 12.187-28.174 17.552-46.58 21.02-9.192 14.013-17.728 24.153-34.901 27.62-4.56.92-9.244 1.281-13.888 1.458-2.65 6.818-7.08 12.794-13.927 15.907-4.992 2.27-11.738 2.676-16.847.554-3.336-1.385-5.521-3.108-7.078-6.358q-7.454.07-14.857-.799c-3.772 4.802-8.105 7.918-14.345 8.689-5.769.713-11.831-.586-16.355-4.357-5.547-4.624-8.058-12.316-9.794-19.078-13.758 7.327-27.659 9.093-42.692 4.43-13.582-4.213-23.071-13.457-30.883-25.008-12.364-3.425-25.556-10.363-34.57-19.624-15.207 13.617-28.845 20.525-48.445 26.13-7.539 9.318-15.28 16.897-27.763 18.173-9.774.998-21.307-.639-29.158-6.987-3.79-3.065-6.495-7.225-7.001-12.138-.447-4.34.817-9.263 2.741-13.172q-7.256-.769-14.531-1.331c1.474 4.717 3.388 9.736 2.596 14.754-.837 5.313-3.862 9.624-8.228 12.682-7.839 5.491-18.686 7.242-28.013 5.666-11.252-1.901-19.278-9.558-25.708-18.532-7.189-.645-14.421-1.709-21.302-3.954-18.689-6.099-33.108-22.35-41.725-39.504-10.072-20.051-14.634-45.54-7.37-67.232 5.242-15.657 15.713-27.376 30.397-34.725q.018-2.775.116-5.548t.277-5.542q.178-2.769.437-5.531.259-2.763.598-5.517.339-2.754.757-5.497.419-2.743.917-5.473.498-2.73 1.074-5.444.577-2.714 1.233-5.41.655-2.696 1.388-5.372.734-2.677 1.544-5.33.811-2.654 1.698-5.283.887-2.629 1.85-5.231.963-2.603 2.001-5.176 1.038-2.573 2.151-5.115 1.112-2.542 2.298-5.051 1.185-2.509 2.443-4.982c-16.056-11.181-32.797-24.259-41.024-42.53-3.004-6.672-4.931-14.005-5.119-21.341-.294-11.523 6.438-38.685 10.046-50.25 1.834-5.878 4.105-11.616 6.318-17.359-5.225-16.9-7.904-39.386-8.094-57.103-.145-13.587.025-35.1 10.497-45.299 3.467-3.376 7.89-4.7 12.658-4.446 14.301.762 39.2 16.712 50.49 25.691 4.589 3.649 8.65 7.652 12.581 11.992 26.01-6.018 50.426-5.369 76.308 1.14 3.584-4 7.587-7.653 11.603-11.207 2.082-25.562 11.463-60.175 18.864-84.83 3.05-10.16 8.43-20.658 9.519-31.212.444-4.303-1.312-9.246-1.822-13.576l.818-1.274c-.148-1.218-.28-2.389-.187-3.618l.076-.893c-7.387-33.796-9.21-70.061-3.947-104.259-.314-1.237-.83-1.646-1.772-2.472Z"/><path fill="#DD4538" d="M360.158 483.841c1.093 4.039.651 10.013.294 14.205-.113 1.314-.054 3.19-1.061 4.059l-.469-.334-2.891-7.757c1.275-3.448 2.595-6.83 4.127-10.173Z"/><path fill="#FDFAF5" d="M764.413 837.809c6.276.968 11.925.676 18.213.157-1.828 4.777-3.392 9.523-4.39 14.547l-9.381-.009c-1.264-5.005-2.756-9.82-4.442-14.695Z"/><path fill="#FC8A06" d="M345.422 609.403c.966 6.014-6.905 23.843-9.35 29.926l-2.076-4.407q-2.709-6.674-5.038-13.49c5.609-3.822 11.033-7.958 16.464-12.029Z"/><path fill="#FDFAF5" d="M506.26 869.079c6.325-2.003 13.046-2.056 19.617-2.054-2.44 5.214-3.814 9.66-3.866 15.486-3.467.053-9.205.93-11.915-1.81-2.623-2.652-2.839-8.152-3.836-11.622Z"/><path fill="#FC8A06" d="M372.228 806.33c.746.676 1.336 1.489 1.814 2.375 2.275 4.214 3.858 8.906 5.907 13.253 3.765 7.989 7.876 15.845 11.87 23.722-2.563-.956-5.088-2.027-7.622-3.056-8.619-4.329-15.925-9.506-23.116-15.934 4.883-6.213 7.977-13.189 11.147-20.36Z"/><path fill="#FDFAF5" d="M528.732 866.881c10.957-.23 20.423 2.6 30.365 7.05-3.201 5.919-7.105 11.305-13.395 14.255-4.506 2.113-10.277 2.895-14.978.944-2.534-1.052-4.524-2.953-5.477-5.552-2.09-5.701 1.068-11.659 3.485-16.697ZM658.907 477.417c2.207 2.017 3.617 10.245 4.585 13.336-5.487 12.449-9.292 25.178-12.993 38.249l-2.488-6.697q-5.064-13.721-10.337-27.362c7.221-5.659 14.182-11.657 21.233-17.526ZM502.337 865.478c2.058 5.479 4.657 11.549 2.085 17.341-1.433 3.228-4.245 5.501-7.555 6.621-4.975 1.683-11.153 1.008-15.802-1.351-6.17-3.13-7.98-9.073-10.238-15.092 10.457-4.119 20.276-6.815 31.51-7.519Z"/><path fill="#FC8A06" d="M344.285 624.432c1.496 1.724 2.23 24.816 3.144 29.592 4.436 23.156 12.219 45.024 20.456 67.04l-3.773-3.73c-4.415-3.464-8.305-5.324-13.616-7.118-.195-22.813-6.053-44.91-13.3-66.385 2.673-6.398 5.035-12.78 7.089-19.399ZM674.265 610.784l7.721 5.72c-11.503 30.994-17.157 60.424-17.453 93.458-2.957 1.91-5.813 3.869-8.609 6.008l-4.261 4.66c4.044-24.611 8.13-49.098 13.522-73.459 2.698-12.187 6.003-24.289 9.08-36.387ZM637.71 788.36c1.693 1.732 3.394 8.931 4.399 11.429q2.367 5.946 5.388 11.587 3.022 5.642 6.66 10.907c-9.258 7.225-17.959 12.798-29.035 16.886-4.491 1.541-9.144 2.38-13.811 3.186 3.125-6.401 6.942-12.433 10.316-18.7a288.985 288.985 0 0 0 16.083-35.295Z"/><path fill="#F3D5AD" d="M581.189 814.365c12.25 1.124 24.639 7.35 34.564 14.346-5.659 8.743-10.018 18.452-16.518 26.642-9.407 11.851-21.631 14.629-35.95 16.204 9.696-18.212 14.419-37.053 17.904-57.192Z"/><path fill="#FDFAF5" d="M260.288 822.288c17.714 2.334 40.125 9.02 55.383 18.308-5.08 9.19-10.82 20.783-20.501 25.841-9.815 5.128-21.999 5.281-32.406 1.896-4.807-1.564-9.638-4.185-11.871-8.953-4.944-10.552 5.856-27.154 9.395-37.092ZM169.655 837.195c14.476-7.462 37.822-15.467 54.168-16.348 3.895 9.543 13.685 27.681 9.613 37.615-1.891 4.613-5.98 7.46-10.488 9.222-9.183 3.587-19.861 3.793-28.93-.208-12.557-5.539-18.976-18.421-24.363-30.281ZM794.122 818.551c16.767 3.192 38.046 9.989 53.213 17.56-5.926 11.375-13.037 25.527-25.547 30.756-9.396 3.927-20.702 3.811-30.093-.096-4.111-1.711-7.851-4.359-9.493-8.653-4.173-10.915 7.733-29.512 11.92-39.567ZM752.562 818.486l.259.679c4.119 10.664 16.795 28.263 11.343 40.113-2.171 4.718-6.946 7.446-11.672 9.071-8.988 3.092-19.719 2.914-28.357-1.208-11.875-5.667-19.331-19.907-24.761-31.179 17.467-6.496 35.142-12.797 53.188-17.476ZM387.212 829.722c19.884-16.41 36.847-23.976 62.958-24.745 3.086 21.102 9.105 40.828 15.842 61.016-12.394 7.047-24.859 9.233-38.792 5.479-14.52-3.912-25.027-13.8-32.321-26.662q-4.157-7.384-7.687-15.088Z"/><path fill="#FC8A06" d="M819.736 420.956c13.932-11.282 44.078-35.839 62.318-33.56 4.321.54 7.859 2.797 10.374 6.323 10.071 14.121 7.006 47.575 3.833 64.146q-2.412 12.346-6.058 24.385c-3.78-7.504-7.681-14.488-12.46-21.425-11.244-13.341-23.748-23.06-38.794-31.745-6.31-2.973-12.723-5.571-19.213-8.124Z"/><path fill="#F3D5AD" d="M838.949 429.08c6.608-9.459 14.668-17.904 26.569-19.938 4.338-.741 8.78-.246 12.351 2.501 4.225 3.25 5.926 8.6 6.429 13.713 1.054 10.732-.867 26.104-6.555 35.469-11.244-13.341-23.748-23.06-38.794-31.745Z"/><path fill="#FC8A06" d="M664.34 712.925c2.158 10.992 2.066 22.495 3.923 33.579 5.772 34.453 19.124 77.557 37.791 107.075-6.204-2.111-12.284-4.416-18.203-7.239-12.684-5.54-24.822-15.498-32.791-26.806-13.634-19.346-19.346-45.519-15.123-68.759 2.873-15.809 11.196-28.764 24.403-37.85ZM350.521 713.06c8.656 3.656 15.712 8.734 20.581 16.942 10.77 18.154 7.224 44.296 2.107 63.849-6.745 25.777-15.856 36.39-38.345 49.622-6.949 3.686-13.649 5.896-21.349 7.474 24.315-43.914 35.183-87.99 37.006-137.887ZM665.167 488.825c-1.979-6.39-3.591-12.681-4.65-19.297-2.812-17.572-4.791-65.135 6.214-79.418 1.868-2.425 4.195-3.634 7.234-3.888 5.844-.49 12.014 2.155 17.282 4.394 17.715 7.529 32.522 17.706 47.105 30.102-6.748 2.393-13.493 4.585-19.715 8.188-15.956 10.159-28.637 20.659-39.905 36.041-1.258 2.883-3.533 5.76-5.216 8.442-3.165 5.043-5.924 9.989-8.349 15.436Z"/><path fill="#F3D5AD" d="M678.732 464.947c-6.519-9.581-6.308-25.865-5.167-36.865.656-6.322 2.17-14.002 7.527-18.073 2.571-1.953 5.659-2.532 8.814-2.055 10.981 1.66 22.594 12.206 28.731 20.952-15.956 10.159-28.637 20.659-39.905 36.041Z"/><path fill="#FC8A06" d="M128.489 488.164c-3.265-12.022-5.382-23.736-6.365-36.137-1.264-15.942-3.385-47.006 7.719-59.417 2.681-2.997 6.247-4.559 10.244-4.74 17.941-.811 48.495 23.768 61.715 35.869-8.101 2.887-15.982 5.585-23.405 10.032-15.275 10.177-28.384 21.263-39.353 36.103-3.614 6.04-7.301 12.045-10.555 18.29Z"/><path fill="#F3D5AD" d="M139.044 469.874c-5.55-10.125-5.809-37.83-3.193-48.936.968-4.112 2.87-8.336 6.712-10.497 3.15-1.773 6.786-1.608 10.151-.574 11.953 3.673 19.982 13.282 25.683 23.904-15.275 10.177-28.384 21.263-39.353 36.103Z"/><path fill="#FC8A06" d="M283.272 424.518c20.725-17.772 37.595-31.104 65.359-36.111 6.576 3.703 10.294 7.379 12.415 14.886 1.866 6.606 2.394 13.624 2.699 20.454 1.032 23.128-2.624 44.448-8.755 66.625-4.247-8.347-8.489-16.488-13.557-24.375-11.672-14.257-22.978-23.709-38.586-33.333-6.43-3.02-12.872-5.78-19.575-8.146Z"/><path fill="#FDFAF5" d="M302.847 432.664c5.469-9.703 18.34-18.602 28.96-21.569 3.508-.98 7.569-1.515 10.87.395 3.132 1.811 4.449 5.522 5.211 8.86 2.357 10.329.218 36.24-5.945 44.964-.164.232-.34.456-.51.683-11.672-14.257-22.978-23.709-38.586-33.333Z"/><path fill="#FC8A06" d="M882.965 712.629c6.633 3.375 12.16 7.441 16.938 13.182 11.563 13.895 13.6 30.953 12.088 48.382-2.898 18.886-9.941 35.606-20.881 51.266-2.403 1.91-4.424 4.595-6.569 6.811-10.262 10.601-26.335 17.37-40.993 17.596 3.355-7.786 7.676-15.149 10.99-23.006 15.264-36.185 25.976-74.962 28.427-114.231ZM135.036 712.515c1.176 1.314.805 11.211.99 13.763q1.309 17.063 4.649 33.848c6.426 32.043 18.685 61.648 32.841 90.934-9.081-.598-16.638-2.138-24.936-5.894-13.468-6.866-22.945-16.481-30.277-29.631-11.466-20.562-17.974-45.862-11.168-69.073 4.49-15.311 14.057-26.325 27.901-33.947Z"/><path fill="#FDFAF5" d="M479.65 710.932c8.57-3.17 15.977-9.371 24.682-11.865 25.443-7.287 30.342 10.676 43.939 10.934 7.924.15 13.73-6.014 21.287-6.626 7.279-.59 11.443 5.697 16.261 10.028-3.663 14.53-12.008 24.255-24.802 31.878-21.005 12.515-47.843 15.345-71.351 9.337-17.222-4.401-33.939-13.219-43.138-29.019-1.548-2.658-2.735-5.442-3.832-8.311 3.989-4.249 6.876-9.246 11.663-12.778 1.477-1.089 3.366-2.31 5.284-2.204 2.263.125 12.732 7.445 19.333 8.522l.674.104Z"/><path fill="#020203" d="M508.606 704.616c2.818-.323 6.206-.612 9.013-.145 2.233.371 5.039 1.441 6.188 3.543.597 1.091.637 2.492.185 3.641-1.336 3.392-5.453 5.36-8.521 6.897.015 2.851-.125 5.695-.245 8.542.772.694 1.543 1.377 2.386 1.985 2.44 1.762 5.75 2.398 8.698 1.897 7.238-1.232 11.756-7.208 15.716-12.798-1.508 4.898-3.71 9.138-7.971 12.207-4.494 3.236-9.445 3.749-14.764 2.768-1.69-1.008-3.154-2.351-4.655-3.616-1.121.78-2.253 1.571-3.466 2.205q-.729.379-1.491.685-.762.306-1.551.536-.788.229-1.596.381-.807.151-1.625.223-.818.072-1.64.063-.821-.009-1.637-.098-.817-.089-1.621-.258-.803-.168-1.587-.415c-6.244-1.975-9.601-6.941-12.49-12.426 2.673 2.433 5.111 5.515 8.212 7.413 3.53 2.161 8.797 4.254 12.989 3.08 2.243-.628 5.028-2.131 5.943-4.405 2.17-5.387-6.887-11.315-8.909-15.663-.603-1.296-.685-2.609.02-3.893.738-1.342 3.061-1.872 4.419-2.349Z"/><path fill="#F3D5AD" d="M365.306 454.808c26.993 28.993 77.316 45.647 116.339 47.163 5.224.203 16.302 1.214 20.804-1.184.19-.36.468-.772.571-1.163l5.222-.11c.427.378.765.718 1.293.981 3.802 1.889 20.047-.342 25.068-.854 31.587-3.225 64.201-7.35 93.537-20.305 9.893-4.369 18.717-10.804 28.545-15.099.158-.07.318-.136.477-.203.44 3.22 1.044 6.426 1.595 9.629-32.308 30.013-70.917 46.529-114.462 52.13-42.253 5.435-84.9 4.249-125.09-11.003-6.513-2.471-13.172-4.972-19.317-8.27-13.771-7.392-26.484-17.501-38.805-27.025 1.431-8.241 3.127-16.387 4.223-24.687Z"/><path fill="#FC8A06" d="M575.724 186.292c17.697-14.296 35.516-27.349 56.359-36.78 12.173-5.508 30.489-13.95 43.783-8.591 7.622 3.072 10.99 9.621 13.997 16.719 8.604 25.42 6.184 56.483 3.668 82.77-.58 6.06-2.457 12.52-2.522 18.52-2.46 12.509-4.713 25.134-6.984 37.684q-7.3-15.346-14.821-30.585c-17.97-29.547-35.274-51-66.221-68.084-8.674-4.737-18.04-8.165-27.259-11.653Z"/><path fill="#F3D5AD" d="M602.983 197.945c11.234-14.551 28.215-30.664 47.162-33.095 5.807-.746 11.772.037 16.499 3.71 7.017 5.451 9.139 14.261 9.984 22.67 1.685 16.766.166 60.999-7.424 74.799-17.97-29.547-35.274-51-66.221-68.084Z"/><path fill="#FC8A06" d="M315.82 173.155c2.35-10.843 5.115-25.745 14.974-32.412 5.72-3.868 13.047-3.659 19.529-2.25 30.066 6.534 62.654 26.484 83.829 48.522-9.629 3.37-18.629 7.368-27.809 11.795-30.229 18.292-49.557 36.042-68.607 66.307-5.211 8.828-9.864 17.7-14.307 26.942l-3.662-14.645c-7.387-33.796-9.21-70.061-3.947-104.259Z"/><path fill="#F3D5AD" d="M337.736 265.117c-8.381-17.238-8.455-57.913-6.015-77.052.944-7.402 3.286-17.198 9.602-21.831 4.676-3.43 10.524-4.284 16.164-3.452 20.423 3.012 37.115 20.221 48.856 36.028-30.229 18.292-49.557 36.042-68.607 66.307Z"/><path fill="#FC8A06" d="M457.345 600.108c14.012 2.715 22.762 12.739 30.965 23.71 17.51-5.642 33.754-4.045 51.231.449 6.893-8.502 15.535-18.19 26.096-22.102 3.309-1.226 6.983-1.803 10.236-.099 3.435 1.799 5.342 5.485 6.44 9.05 4.747 15.413 1.602 34.337-5.805 48.361 7.389 17.526 11.718 34.836 9.311 53.926-4.818-4.331-8.982-10.618-16.261-10.028-7.557.612-13.363 6.776-21.287 6.626-13.597-.258-18.496-18.221-43.939-10.934-8.705 2.494-16.112 8.695-24.682 11.865l-.674-.104c-6.601-1.077-17.07-8.397-19.333-8.522-1.918-.106-3.807 1.115-5.284 2.204-4.787 3.532-7.674 8.529-11.663 12.778-.058-.118-.121-.234-.175-.354-7.861-17.342-.647-39.057 5.567-55.695-2.073-1.752-3.4-3.192-4.328-5.78-4.083-11.38-1.789-35.166 3.517-46.004 2.416-4.934 4.895-7.534 10.068-9.347Z"/><path fill="#020203" d="M542.654 681.996c1.657-.026 3.445.236 4.968.92 2.317 1.042 4.231 3.043 4.998 5.481.697 2.214.465 4.539-.75 6.529-1.64 2.688-3.94 3.343-6.86 4.002-1.283.047-2.64.076-3.884-.276-2.166-.614-4.113-1.958-5.141-3.999-1.055-2.096-.945-4.502-.122-6.652 1.276-3.338 3.692-4.61 6.791-6.005Z"/><path fill="#FDFAF5" d="M544.094 683.464c.465.094.934.176 1.393.3 1.559.423 2.025 1.009 2.746 2.335-.036 1.669-.645 2.531-1.516 3.875-.774-.115-1.752-.181-2.476-.464-1.243-.486-1.433-.856-2.018-1.955.047-1.683.962-2.756 1.871-4.091Z"/><path fill="#020203" d="M478.928 697.372c-1.157-1.112-2.157-2.181-2.771-3.693q-.16-.394-.278-.803-.119-.409-.194-.827-.076-.419-.108-.843-.031-.425-.019-.85t.069-.847q.056-.422.156-.836.099-.413.241-.815.142-.401.325-.785c1.118-2.327 3.23-3.98 5.698-4.669 3.051-.851 5.527-.118 8.191 1.404 1.43.912 2.548 2.463 3.083 4.072.614 1.844.399 3.699-.482 5.422-1.272 2.49-3.674 4.317-6.313 5.156-2.809.893-5.054.167-7.598-1.086Z"/><path fill="#FDFAF5" d="m485.147 688.622-.841-1.743c.084-1.399.118-1.501.978-2.606 1.832-.813 2.988-.702 4.954-.465.132.87.329 1.834.289 2.713-.06 1.356-.602 1.906-1.565 2.747-1.608.269-2.384-.023-3.815-.646Z"/><path fill="#F3D5AD" d="M537.586 647.533c1.974-.064 4.037-.201 6.003.023 3.251.369 6.979 2.055 8.998 4.705 1.147 1.503 1.501 3.189 1.099 5.032-.76 3.477-4.604 5.498-7.423 7.108-2.416.253-5.174.666-7.547.032-3.136-.838-6.368-2.751-7.86-5.744-.746-1.495-.956-3.213-.393-4.806 1.144-3.232 4.256-4.894 7.123-6.35ZM485.806 647.647c2.014.165 3.987.402 5.875 1.169 2.449.995 4.723 2.842 5.6 5.408.644 1.888.412 3.897-.547 5.635-1.886 3.416-5.299 4.571-8.785 5.665l-.394.001-.657-.007c-2.842-.008-5.205-.062-7.742-1.485-2.197-1.232-4.02-3.161-4.616-5.665q-.091-.377-.142-.761-.05-.385-.06-.772-.01-.388.021-.774.032-.387.104-.768t.183-.752q.112-.371.263-.729.15-.357.337-.697.188-.339.41-.657c2.445-3.52 6.21-4.221 10.15-4.811Z"/><path fill="#FDFAF5" d="M566.193 614.484c.89-.023 1.941-.114 2.814.052 2.092.397 3.743 2.17 4.733 3.961 4.473 8.099 1.008 21.477-1.412 29.69-1.583-2.336-3.279-4.611-4.921-6.906-4.519-5.62-10.078-9.886-15.625-14.435 3.812-5.881 8.1-9.394 14.411-12.362ZM457.762 613.989c1.321.017 2.682.016 3.98.283 6.643 1.367 10.634 7.535 14.227 12.708-5.974 3.877-11.244 8.061-15.845 13.518-2.177 2.986-4.61 5.797-6.967 8.642-3.007-6.941-3.553-14.244-2.421-21.686.825-5.421 2.489-10.117 7.026-13.465Z"/><path fill="#FC8A06" d="M555.654 750.959q5.781-2.944 11.393-6.199c3.307 9.292 6.761 18.449 8.889 28.109 6.975 31.656.988 64.431-12.747 93.43-1.215 2.567-2.52 5.264-4.092 7.632-9.942-4.45-19.408-7.28-30.365-7.05 5.924-14.908 14.43-34.065 10.439-50.251l-.187.795c-1.323 5.747-1.566 11.635-2.491 17.444-1.803 11.325-5.485 21.942-10.616 32.156-6.571-.002-13.292.051-19.617 2.054-3.789-10.936-7.794-22.341-9.467-33.825-.631-4.331-.046-13.027-2.588-16.418-4.434 9.012 4.94 36.857 8.132 46.642-11.234.704-21.053 3.4-31.51 7.519-3.469-9.353-6.398-18.838-9.272-28.389-10.384-34.502-13.869-64.398 1.372-98.581 3.433 2.169 7.016 4.202 10.799 5.688 28.637 11.753 53.587 10.156 81.928-.756Z"/><path fill="#FDFAF5" d="M473.726 751.715c28.637 11.753 53.587 10.156 81.928-.756.345 3.971.65 8.247.022 12.196-3.353 16.904-10.014 33.665-24.85 43.727-5.977 4.053-13.479 6.477-20.711 5.124-10.681-1.999-20.162-11.661-25.887-20.417-5.497-8.408-8.467-17.459-10.522-27.224-1.333-4.095-.627-8.493.02-12.65Z"/><path fill="#F3D5AD" d="M473.726 751.715c28.637 11.753 53.587 10.156 81.928-.756.345 3.971.65 8.247.022 12.196l-.513.112c-5.22 1.195-10.26 3.295-15.387 4.852-12.943 3.931-27.266 5.466-40.682 3.185-5.479-.932-10.971-2.703-16.201-4.541-2.253-.792-5.129-2.322-7.446-2.675-.735-.112-1.109-.043-1.741.277-1.333-4.095-.627-8.493.02-12.65ZM398.766 509.603c29.806 14.873 63.294 22.106 96.578 22.622 6.254.097 12.512-.394 18.758-.658 27.27-1.153 51.008-4.967 77.052-13.665 3.633-1.213 7.401-2.502 10.907-4.041 1.048 13.726 1.028 35.186-2.802 48.226-3.149 15.347-7.415 30.692-16.312 43.818-2.849-4.311-5.106-6.128-9.988-7.998-14.649 2.569-25.171 12.586-34.617 23.483-16.255-4.324-32.708-5.591-49.063-.63-6.812-9.339-17.031-20.051-28.964-22.21-3.425-.619-6.865-.107-9.696 1.995-8.711 6.469-9.187 22.935-10.795 32.818-1.133-.315-1.813-.831-2.749-1.533-17.625-13.221-33.275-58.878-36.344-80.933-1.922-6.095-4.123-36.148-1.965-41.294Z"/><path fill="#FDFAF5" d="m400.731 550.897.804-.616c6.124 1.704 12.452 6.737 18.114 9.801q13.435 7.376 27.863 12.547 1.783.628 3.578 1.219 1.795.592 3.602 1.146 1.807.555 3.624 1.073 1.818.518 3.646.998 1.828.481 3.665.924 1.838.443 3.684.849 1.846.405 3.7.773t3.715.698q1.861.33 3.728.622 1.867.293 3.74.546 1.873.254 3.751.47 1.878.216 3.759.393 1.882.177 3.767.316t3.772.24q1.888.1 3.777.162 1.889.062 3.779.086 1.89.023 3.78.008t3.779-.069q1.889-.053 3.777-.145 1.888-.092 3.773-.223 1.886-.131 3.768-.3 1.883-.169 3.761-.376 1.879-.207 3.753-.453 1.874-.245 3.743-.529 1.868-.284 3.731-.606 1.862-.322 3.718-.681 1.855-.36 3.703-.757 1.848-.398 3.687-.833 1.84-.435 3.67-.907 1.83-.473 3.65-.983 1.82-.509 3.629-1.056 1.809-.546 3.607-1.13c7.374-2.326 14.563-5.271 21.768-8.068 3.601-1.397 7.375-3.204 11.163-3.949-3.149 15.347-7.415 30.692-16.312 43.818-2.849-4.311-5.106-6.128-9.988-7.998-14.649 2.569-25.171 12.586-34.617 23.483-16.255-4.324-32.708-5.591-49.063-.63-6.812-9.339-17.031-20.051-28.964-22.21-3.425-.619-6.865-.107-9.696 1.995-8.711 6.469-9.187 22.935-10.795 32.818-1.133-.315-1.813-.831-2.749-1.533-17.625-13.221-33.275-58.878-36.344-80.933ZM114.292 546.527c5.727-6.214 11.347-10.498 20.191-10.789 6.951-.229 13.155 2.379 18.13 7.157 10.064 9.664 10.54 21.505 28.458 21.217 22.175-.357 19.381-29.633 65.983-24.953 9.51.955 18.463 3.562 25.598 10.182 7.908 7.337 13.701 16.842 25.807 16.494 5.799-.166 12.394-2.005 16.383-6.386 3.114-3.419 5.094-7.819 7.539-11.705 4.052-6.442 11.643-11.596 19.357-12.07 6.619-.407 13.366 2.122 18.195 6.657 1.494 1.403 2.881 2.94 4.232 4.479 3.021 7.941 5.852 14.841 4.361 23.59-3.191 18.733-20.134 33.711-34.837 44.129-34.786 24.649-84.285 30.733-125.61 23.682-31.336-5.346-64.533-19.78-83.254-46.528-9.827-14.041-13.523-28.232-10.533-45.156Z"/><path fill="#020203" d="M215.375 597.441c.101.108.204.213.302.322 2.144 2.363 3.529 5.205 5.427 7.744 4.012 5.363 10.955 8.391 17.529 8.774 6.105.355 13.756-1.883 18.22-6.289 2.13-2.102 4.311-6.054 6.975-7.321a15.686 15.686 0 0 1-.703 1.587c-3.368 6.406-8.696 10.94-15.653 13.056q-.627.196-1.263.361-.636.164-1.279.296-.643.132-1.293.231-.649.099-1.302.165-.654.066-1.31.099t-1.313.033q-.657-.001-1.313-.035-.656-.034-1.309-.1-.653-.067-1.302-.167-.65-.1-1.293-.233-.643-.133-1.279-.298-.635-.165-1.262-.363-.626-.197-1.242-.426-.616-.228-1.219-.488-.603-.26-1.193-.55-.589-.29-1.163-.609c-6.445-3.6-9.919-8.814-11.762-15.789Z"/><path fill="#F3D5AD" d="M218.745 594.272c4.833 4.372 8.126 4.979 14.532 5.569 5.777.062 11.004.239 16.657 1.569.795.023 1.541-.068 2.332-.159 4.169-.477 6.255-2.006 8.842-5.236 1.27 1.017 2.831 1.949 3.451 3.469l-.731 1.187c-2.664 1.267-4.845 5.219-6.975 7.321-4.464 4.406-12.115 6.644-18.22 6.289-6.574-.383-13.517-3.411-17.529-8.774-1.898-2.539-3.283-5.381-5.427-7.744-.098-.109-.201-.214-.302-.322.398-.501.204-.319.71-.707 1.021-.784 1.824-1.48 2.66-2.462Z"/><path fill="#FDFAF5" d="M233.277 599.841c5.777.062 11.004.239 16.657 1.569-.288 1.306-.574 2.632-1.082 3.873-.955 2.328-2.454 4.223-4.853 5.153-2.468.957-5.158.588-7.47-.615-2.026-1.055-3.605-2.881-4.21-5.097-.546-2.001-.072-3.155.958-4.883Z"/><path fill="#020203" d="M238.992 572.769c-6.324-3.483-15.393-8.824-17.451-16.362-.419-1.537-.292-3.145.584-4.515 2.212-3.457 7.409-4.921 11.228-5.573 6.808-1.162 16.363-.86 22.23 3.117 1.591 1.078 3.009 2.603 3.303 4.574.485 3.242-2.07 6.654-4.097 8.909-3.991 4.438-8.485 7.504-13.717 10.297 2 6.474 5.142 13.168 11.491 16.42 4.609 2.36 10.484 2.35 15.279.569 4.758-1.767 8.756-6.094 13.413-7.437l.598.421c-1.404 3.854-6.695 7.462-10.283 9.109-3.367 1.546-6.78 2.189-10.454 2.442l-.008 1.275c-2.587 3.23-4.673 4.759-8.842 5.236-.791.091-1.537.182-2.332.159-5.653-1.33-10.88-1.507-16.657-1.569-6.406-.59-9.699-1.197-14.532-5.569l-1.025-.68c-5.397-.916-14.401-3.725-17.7-8.593-.728-1.076-.738-1.273-.45-2.437l.757-.528c2.808.877 4.784 3.905 7.158 5.558 5.279 3.676 14.76 3.994 20.407 1.076 6.251-3.23 8.781-9.694 11.1-15.899Z"/><path fill="#FDFAF5" d="M231.507 552.244c5.61-.666 13.3-1.251 18.357 1.57l-.466.648q-3.173.224-6.352.357c-2.976.113-9.416.432-11.662-1.655l.123-.92ZM233.116 588.017c2.656-3.15 4.926-6.335 6.648-10.099 1.684 3.311 3.436 6.445 5.499 9.536-4.07.354-8.062.597-12.147.563Z"/><path fill="#DD4538" d="M245.263 587.454c5.096 3.831 9.704 5.723 15.853 7.286l-.008 1.275c-2.587 3.23-4.673 4.759-8.842 5.236-.791.091-1.537.182-2.332.159-5.653-1.33-10.88-1.507-16.657-1.569-6.406-.59-9.699-1.197-14.532-5.569l-1.025-.68c4.675-.366 9.863-.891 13.955-3.408 1.203-.74 1.165-.851 1.441-2.167 4.085.034 8.077-.209 12.147-.563Z"/><path fill="#FC8A06" d="M602.061 513.861q16.995-7.795 32.905-17.616c4.956 12.745 11.64 26.766 13.758 40.268.964 6.142-.42 12.596-.257 18.804.569 21.57 9.376 38.262 23.689 53.919-6.528 23.81-12.337 47.613-16.78 71.909-2.232 12.206-2.976 24.731-5.789 36.825-2.393 10.287-9.304 18.717-11.762 29.168-2.859 12.162-1.051 22.1-1.454 34.075-.409 12.162-13.657 37.091-20.618 47.498-9.925-6.996-22.314-13.222-34.564-14.346 1.983-24.579-2.83-48.508-12.252-71.135 7.191-6.002 13.301-11.862 16.95-20.7 8.205-19.87 1.473-43.419-6.299-62.291 8.032-17.268 9.293-36.216 3.359-54.334 8.897-13.126 13.163-28.471 16.312-43.818 3.83-13.04 3.85-34.5 2.802-48.226Z"/><path fill="#FDFAF5" d="M818.423 557.047c6.452 3.659 14.841 7.043 22.406 6.593 15.798-.94 16.415-20.422 25.09-29.766 3.389-3.651 7.668-5.367 12.618-5.415 10.494-.101 18.864 5.519 26.067 12.582 3.975 15.771 1.194 30.778-7.097 44.724-15.927 26.792-49.419 41.268-78.563 48.473-43.332 10.712-92.382 6.036-130.952-17.23-16.903-10.195-29.892-25.217-34.619-44.662-2.416-9.939-2.321-19.943-1.884-30.084 3.934-.865 7.743-2.74 11.497-4.196 30.665-11.896 28.242 16.421 45.053 23.34 12.902 5.31 28.401-7.697 38.424-14.239 4.712-3.076 9.653-5.979 14.853-8.15q1.23-.507 2.484-.953 1.253-.447 2.527-.832 1.274-.385 2.565-.708 1.291-.322 2.596-.582 1.305-.26 2.621-.455 1.316-.196 2.641-.328 1.324-.132 2.653-.199t2.659-.069q1.331-.003 2.66.059 1.329.063 2.654.189 1.325.127 2.642.318t2.623.446q1.306.254 2.598.572 1.292.318 2.567.699 1.275.38 2.53.822 1.256.442 2.488.944c8.801 3.689 12.201 9.648 15.599 18.107Z"/><path fill="#020203" d="M776.254 540.177c4.758-.317 9.864.441 14.005 2.893 2.901 1.719 5.269 4.346 5.952 7.723.533 2.636-.147 5.338-1.666 7.531-3.764 5.432-10.389 6.665-16.424 7.797-.065 3.294-.225 6.495-.631 9.765 1.5 1.956 2.982 3.963 4.881 5.555 5.257 4.406 12 6.05 18.746 5.217 8.257-1.02 12.205-5.739 17.009-11.867-.482 1.914-.964 3.948-1.795 5.743-2.211 4.777-7.185 6.384-11.749 8.064-1.17 6.253-2.674 12.354-6.296 17.689-5.058 7.45-11.847 10.175-20.322 11.753-7.55-.431-13.925-1.661-19.99-6.544-7.176-5.778-9.643-14.159-10.719-22.922-2.351-.879-4.661-1.812-6.759-3.217-4.203-2.813-5.468-6.766-6.486-11.432 1.298 2.094 2.602 4.374 4.282 6.178 4.356 4.679 10.698 6.693 16.964 6.69 5.742-.002 12.076-1.546 16.11-5.878 3.966-4.26 4.222-8.912 4.114-14.382-3.712-1.794-7.518-3.564-10.746-6.171-2.678-2.163-5.24-5.145-5.49-8.735-.141-2.029.53-3.905 1.848-5.439 3.598-4.183 9.936-5.43 15.162-6.011Z"/><path fill="#FDFAF5" d="M776.776 578.873c1.923 2.521 3.914 4.705 6.212 6.889-3.686.484-9.539 1.158-13.011-.318 2.437-2.073 4.632-4.218 6.799-6.571Z"/><path fill="#F3D5AD" d="M779.981 598.198c6.813.962 11.04 2.285 15.811 7.442-4.499 5.559-9.819 8.976-17.08 9.763-6.947.754-13.803-1.21-19.161-5.725-1.45-1.222-2.711-2.603-3.964-4.02 3.188-3.265 8.464-6.69 13.045-7.271 2.559-.324 3.591.389 5.564 1.917.183.141.363.287.544.431 1.711-.093 3.738-1.673 5.241-2.537Z"/><path fill="#DD4538" d="M749.176 589.134c7.374.437 14.054-.697 20.801-3.69 3.472 1.476 9.325.802 13.011.318 6.348 2.401 12.077 3.196 18.809 3.555-1.05 6.201-2.435 11.061-6.005 16.323-4.771-5.157-8.998-6.48-15.811-7.442-1.503.864-3.53 2.444-5.241 2.537-.181-.144-.361-.29-.544-.431-1.973-1.528-3.005-2.241-5.564-1.917-4.581.581-9.857 4.006-13.045 7.271-3.211-5.207-5.066-10.584-6.411-16.524Z"/><path fill="#FC8A06" d="M363.946 485.009c11.171 8.875 22.908 16.765 34.82 24.594-2.158 5.146.043 35.199 1.965 41.294 3.069 22.055 18.719 67.712 36.344 80.933.936.702 1.616 1.218 2.749 1.533-.008 10.68-.171 20.216 4.932 29.909-7.818 18.211-10.801 37.85-3.348 56.766q.732 1.862 1.596 3.666.865 1.804 1.856 3.542.992 1.737 2.106 3.399 1.115 1.661 2.346 3.238t2.572 3.061q1.341 1.485 2.785 2.869 1.445 1.384 2.985 2.66 1.541 1.277 3.169 2.439c-2.668 6.116-4.909 12.145-6.586 18.624-1.106 4.274-1.822 8.72-3.07 12.94q-4.444-11.771-7.736-23.915-3.293-12.143-5.404-24.547c-1.255-7.814-1.37-15.879-2.994-23.606-2.489 20.405 2.533 40.359 8.967 59.607 1.974 5.906 4.696 11.646 5.866 17.785 1.453 7.629-.1 15.482.304 23.177-26.111.769-43.074 8.335-62.958 24.745-5.3-8.912-9.344-18.5-13.309-28.057 4.264-16.672 8.012-33.583 6.218-50.915-1.173-11.331-6.491-21.667-10.294-32.28-9.793-27.332-19.819-55.047-21.629-84.262-.545-8.8-1.964-21.955 2.833-29.654 1.911-3.066 4.807-5.6 7.181-8.309 9.797-11.179 16.086-24.985 12.338-39.954-1.633-6.522-4.25-13.239-5.071-19.909-.881-7.172 1.932-13.475 1.391-19.162-.354-3.726-2.646-5.209-5.383-7.341 1.557-8.12 1.797-16.632 2.459-24.87Z"/><path fill="#FC8A06" d="M114.292 546.527c6.286-39.602 21.268-79.492 54.923-103.805 27.109-19.585 61.641-25.157 94.22-19.766 30.674 5.075 58.202 20.064 76.468 45.689 16.261 22.811 22.173 50.751 24.262 78.165-1.351-1.539-2.738-3.076-4.232-4.479-4.829-4.535-11.576-7.064-18.195-6.657-7.714.474-15.305 5.628-19.357 12.07-2.445 3.886-4.425 8.286-7.539 11.705-3.989 4.381-10.584 6.22-16.383 6.386-12.106.348-17.899-9.157-25.807-16.494-7.135-6.62-16.088-9.227-25.598-10.182-46.602-4.68-43.808 24.596-65.983 24.953-17.918.288-18.394-11.553-28.458-21.217-4.975-4.778-11.179-7.386-18.13-7.157-8.844.291-14.464 4.575-20.191 10.789Z"/><path fill="#FDFAF5" d="M286.055 539.769c6.38 3.022 11.271 4.145 18.161 1.642a39.93 39.93 0 0 0 2.29-.934c-.597 1.606-2.298 2.932-3.806 3.729-3.239 1.712-7.224 1.657-10.661.614-2.84-.863-4.57-2.502-5.984-5.051ZM176.131 536.518c4.249 2.835 8.403 5.336 13.738 4.364 2.422-.441 4.818-1.664 7.028-2.722-.07.155-.128.316-.209.467-1.156 2.152-3.487 3.671-5.779 4.363q-.673.199-1.363.329t-1.39.191q-.699.061-1.401.052-.702-.01-1.4-.089-.697-.08-1.384-.229-.686-.149-1.353-.366-.668-.217-1.311-.499-.643-.283-1.254-.628c-2.275-1.315-3.248-2.731-3.922-5.233ZM286.616 485.6c3.039-.291 6.558-.072 9.369 1.203 1.782.808 3.206 2.189 3.838 4.065.873 2.593.318 5.442-.872 7.838-2.918 5.877-8.866 8.862-14.814 10.759-2.965.407-6.242.503-8.881-1.138-3.115-1.935-4.051-5.025-4.954-8.341.464-2.109.98-4.252 2.078-6.135 3.113-5.345 8.622-6.909 14.236-8.251Z"/><path fill="#020203" d="M286.055 539.769c-2.356-3.769-3.728-8.643-2.612-13.059.857-3.388 3.115-6.107 6.138-7.813q.685-.388 1.407-.704.721-.315 1.471-.555.75-.24 1.52-.401.771-.162 1.554-.244.783-.081 1.571-.082.787-.001 1.57.079.784.08 1.555.24.771.16 1.521.398c3.286 1.065 6.091 3.297 7.618 6.426 1.317 2.699 1.852 7.04.818 9.903-.837 2.319-2.963 4.347-3.68 6.52a39.93 39.93 0 0 1-2.29.934c-6.89 2.503-11.781 1.38-18.161-1.642Z"/><path fill="#FDFAF5" d="M296.046 519.465c1.954-.002 4.101.136 5.703 1.41 1.005.8 1.646 1.603 1.746 2.928.157 2.081-1.135 3.433-2.385 4.892-1.429.251-2.732.475-4.138-.062-1.218-.466-2.133-1.366-2.528-2.616-.816-2.587.303-4.442 1.602-6.552ZM189.416 483.194c5.257.106 9.831.949 14.336 3.885 3.562 2.321 6.852 5.881 7.694 10.173.413 2.105.242 4.61-1.13 6.36-1.841 2.348-5.206 4.15-8.109 4.554-4.88-.182-9.145-1.794-13.202-4.444-4.022-2.627-8.409-6.916-9.28-11.856-.285-1.615-.069-3.321.961-4.649 1.925-2.481 5.739-3.709 8.73-4.023Z"/><path fill="#020203" d="M176.131 536.518c-2.289-3.426-3.722-7.195-2.867-11.382.772-3.776 3.269-7.046 6.474-9.123 3.191-2.067 6.975-2.86 10.7-2.001 3.616.833 7.25 3.139 9.123 6.401 2.126 3.704 1.64 8.078.547 12.029-.612 2.213-1.851 3.904-3.211 5.718-2.21 1.058-4.606 2.281-7.028 2.722-5.335.972-9.489-1.529-13.738-4.364Z"/><path fill="#FDFAF5" d="M186.247 515.988c.591-.014.886-.035 1.512.024 1.809.17 3.482.918 4.573 2.434.763 1.061 1.05 2.488.833 3.769-.375 2.215-1.787 3.385-3.498 4.649-.471.073-.67.119-1.191.111-1.727-.028-3.574-.532-4.704-1.932-.749-.927-.984-2.014-.944-3.181.097-2.852 1.437-4.037 3.419-5.874Z"/><path fill="#FC8A06" d="M651.489 542.262c1.112-20.855 10.526-43.994 20.704-62.041 15.582-27.63 38.318-49.039 69.401-57.528q1.621-.44 3.253-.84 1.632-.4 3.273-.76 1.64-.36 3.29-.679 1.649-.32 3.306-.599 1.656-.279 3.319-.517t3.332-.435q1.668-.198 3.341-.354 1.672-.156 3.348-.272 1.676-.115 3.354-.189 1.679-.074 3.358-.107 1.68-.033 3.36-.024 1.68.008 3.359.058t3.357.14q1.677.091 3.352.223 1.675.132 3.346.305t3.337.387q1.666.214 3.327.469 1.66.255 3.314.55 1.654.296 3.3.632t3.283.712q1.637.376 3.265.793 1.628.416 3.244.872 1.617.456 3.222.952 1.606.496 3.198 1.031 1.593.535 3.172 1.109 1.578.573 3.143 1.186 1.564.612 3.113 1.263 1.549.651 3.081 1.339 1.533.689 3.048 1.414 1.515.726 3.011 1.489 1.497.763 2.975 1.562 1.477.8 2.935 1.635c19.02 10.963 36.186 29.065 42.83 50.279 2.731 8.721 3.971 17.897 6.497 26.696 2.735 9.528 7.204 18.382 9.767 28.028-7.203-7.063-15.573-12.683-26.067-12.582-4.95.048-9.229 1.764-12.618 5.415-8.675 9.344-9.292 28.826-25.09 29.766-7.565.45-15.954-2.934-22.406-6.593-3.398-8.459-6.798-14.418-15.599-18.107q-1.232-.502-2.487-.944-1.256-.442-2.531-.822-1.275-.381-2.567-.699-1.292-.318-2.598-.572-1.306-.255-2.623-.446-1.317-.191-2.642-.318-1.325-.126-2.654-.189-1.329-.062-2.66-.059-1.33.002-2.659.069-1.329.067-2.653.199-1.325.132-2.641.328-1.316.195-2.621.455t-2.596.582q-1.291.323-2.565.708-1.274.385-2.527.832-1.254.446-2.484.953c-5.2 2.171-10.141 5.074-14.853 8.15-10.023 6.542-25.522 19.549-38.424 14.239-16.811-6.919-14.388-35.236-45.053-23.34-3.754 1.456-7.563 3.331-11.497 4.196Z"/><path fill="#FDFAF5" d="M819.343 477.519c1.925-.055 3.776.046 5.654.524 2.937.747 5.578 2.546 7.129 5.176 1.712 2.902 1.955 6.574.946 9.756-1.583 4.998-5.278 7.385-9.719 9.546-1.759.059-3.387-.09-5.089-.579-3.385-.974-6.306-3.17-7.916-6.331q-.288-.564-.516-1.155-.228-.591-.393-1.203-.165-.612-.266-1.237-.1-.626-.134-1.259-.035-.632-.003-1.265.031-.633.129-1.259.097-.626.259-1.238.163-.613.388-1.205c1.828-4.668 5.175-6.492 9.531-8.271Z"/><path fill="#020203" d="M718.241 515.079c2.884-.131 5.727-.14 8.458.931 3.222 1.263 5.978 3.685 7.285 6.933q.213.524.372 1.067.16.543.264 1.099.104.556.151 1.12.048.564.038 1.129-.009.566-.075 1.128-.066.562-.188 1.114-.122.553-.299 1.09t-.407 1.054c-1.857 4.113-5.414 6.207-9.484 7.709-2.922.279-5.358.177-8.119-.95-3.566-1.456-6.641-4.209-8.071-7.832-1.098-2.781-1.035-5.901.308-8.587 1.98-3.959 5.751-5.73 9.767-7.005Z"/><path fill="#FDFAF5" d="M722.84 520.424c1.808.063 3.305.309 4.699 1.565.951.858 1.586 2.031 1.548 3.343-.059 2.107-1.406 3.194-2.934 4.358-1.688-.12-4.355-.57-5.496-1.986-.853-1.058-1.153-1.978-.92-3.34.291-1.695 1.895-2.875 3.103-3.94ZM727.289 475.523c2.112-.042 4.134.037 6.175.629 3.681 1.069 6.857 3.318 8.599 6.789q.287.564.514 1.155.227.591.39 1.203.164.611.263 1.236.099.626.132 1.258t-.001 1.264q-.033.632-.132 1.257-.1.625-.264 1.237-.164.611-.391 1.202c-1.908 4.855-5.536 6.748-10.02 8.696-2.591.176-5.116-.011-7.566-.924q-.602-.219-1.179-.498-.577-.278-1.123-.613-.546-.335-1.056-.722-.51-.388-.979-.825-.469-.436-.892-.917-.423-.482-.795-1.003-.373-.521-.692-1.076-.318-.556-.58-1.141-.26-.584-.46-1.191-.2-.607-.338-1.232-.137-.624-.211-1.259-.075-.635-.084-1.274-.01-.639.044-1.276.055-.637.173-1.265.118-.628.299-1.241.181-.613.423-1.205c1.916-4.585 5.453-6.435 9.751-8.264Z"/><path fill="#020203" d="M828.383 514.608c3.696-.37 6.973-.169 10.365 1.476 3.37 1.633 6.031 4.631 7.094 8.241 1.096 3.725.46 7.708-1.496 11.035-2.796 4.753-7.103 6.787-12.226 8.081-3.467.325-6.887.203-10.142-1.16-3.313-1.387-5.967-3.96-7.262-7.331-1.394-3.625-1.054-7.638.69-11.078 2.799-5.521 7.41-7.552 12.977-9.264Z"/><path fill="#FDFAF5" d="M829.572 520.92c2.04.022 4.617.215 6.236 1.628.929.812 1.422 1.847 1.388 3.096-.047 1.716-1.396 3.106-2.422 4.35-1.924.01-4.406-.015-6.04-1.186-1.021-.731-1.723-1.526-1.803-2.835-.132-2.141 1.316-3.594 2.641-5.053ZM302.27 374.637c8.572-7.824 17.812-13.902 29.31-16.341 26.191-5.556 38.155 14.227 57.652 26.691q1.627 1.056 3.311 2.019 1.685.962 3.421 1.828 1.736.865 3.519 1.63 1.782.766 3.605 1.429 1.824.663 3.681 1.222 1.858.558 3.745 1.01 1.886.452 3.795.797 1.909.344 3.835.58c41.559 4.987 51.443-31.508 94.815-26.206 32.632 3.989 47.05 31.648 84.162 25.797 27.612-4.353 42.726-29.479 68.012-34.811 14.659-3.092 26.819 2.982 38.69 10.819 2.041 7.933 3.334 16.021 4.648 24.099-9.238-4.265-27.922-14.547-38.073-10.94-3.995 1.42-6.557 4.888-8.181 8.656-8.413 19.522-7.931 50.09-5.055 71.118-.159.067-.319.133-.477.203-9.828 4.295-18.652 10.73-28.545 15.099-29.336 12.955-61.95 17.08-93.537 20.305-5.021.512-21.266 2.743-25.068.854-.528-.263-.866-.603-1.293-.981l-5.222.11c-.103.391-.381.803-.571 1.163-4.502 2.398-15.58 1.387-20.804 1.184-39.023-1.516-89.346-18.17-116.339-47.163 2.242-16.12 3.855-48.676-5.913-61.998-2.496-3.405-5.72-5.66-9.931-6.274-15.637-2.282-41.799 14.525-54.365 23.796q2.398-18.086 7.173-35.695Z"/><path fill="#020203" d="M502.301 415.577c-10.045-2.898-21.764-7.818-27.252-17.37-1.57-2.732-2.26-5.766-1.372-8.849 1.22-4.234 4.828-7.212 8.648-9.085 11.994-5.878 29.536-5.791 41.931-1.26 4.239 1.549 8.672 3.942 10.636 8.23 1.167 2.547 1.207 5.285.216 7.893-3.269 8.6-14.726 14.538-22.735 17.856-2.579 1.068-5.222 1.951-7.874 2.817-.015 4.8-.109 9.616.04 14.413 8.897 9.549 21.493 17.798 34.979 18.104 9.702.22 18.85-4.908 25.599-11.559 4.115-4.055 5.605-9.488 9.265-13.693l.628.288c.697 3.464-2.489 9.358-4.394 12.256-6.086 9.259-14.592 14.564-24.83 18.229-2.953 14.75-9.332 31.562-22.485 40.178-4.703 3.081-9.609 4.365-15.059 5.489l-5.222.11c-11.079-1.227-21.435-4.095-28.626-13.224-7.179-9.113-7.436-20.297-7.244-31.407-10.751-2.917-20.974-7.268-26.815-17.334-2.841-4.896-3.924-9.863-4.196-15.477 7.571 11.782 9.529 22.05 25.383 25.54 10.527 2.318 21.945-1.966 30.705-7.638 4.344-2.812 8.873-6.553 9.932-11.877.793-3.984.275-8.573.142-12.63Z"/><path fill="#FC8A06" d="M504.169 444.337c11.833.142 17.653 3.812 28.542 7.319 3.674 1.184 7.466 1.797 11.265 2.425-1.924 6.364-3.666 13.126-6.764 19.034-2.776-3.163-4.772-6.841-7.882-9.769-6.771-6.376-16.013-7.544-24.908-7.245-.804-3.374-.048-8.133-.253-11.764Z"/><path fill="#0B244F" d="M481.873 384.839c11.05-5.938 26.434-6.08 38.249-2.56 2.676.797 5.442 1.833 7.945 3.073.52.446 1.038.883 1.508 1.382 1.376 1.462 2.037 3.182 1.872 5.198-.354 4.322-3.672 7.812-6.856 10.428-5.946 4.886-14.03 10.125-22.041 9.211-8.101-.925-16.902-6.302-21.826-12.742-1.802-2.358-3.397-4.758-2.885-7.854.45-2.723 1.91-4.498 4.034-6.136Z"/><path fill="#48424E" d="M481.873 384.839c11.05-5.938 26.434-6.08 38.249-2.56 2.676.797 5.442 1.833 7.945 3.073-2.524 4.98-6.784 8.377-12.055 10.141-7.876 2.635-19.563 1.715-26.92-2.127-3.876-2.025-5.995-4.344-7.219-8.527Z"/><path fill="#F3D5AD" d="m501.785 444.343 2.384-.006c.205 3.631-.551 8.39.253 11.764 8.895-.299 18.137.869 24.908 7.245 3.11 2.928 5.106 6.606 7.882 9.769-4.51 8.466-10.576 17.083-19.683 21.013-8.549 3.689-19.454 3.576-28.008.018-10.001-4.159-14.894-11.485-18.932-21.105a25.83 25.83 0 0 1-.28-1.773c-.688-5.86.651-11.3 4.402-15.928 6.632-8.183 17.243-9.918 27.074-10.997Z"/><path fill="#DD4538" d="m501.785 444.343 2.384-.006c.205 3.631-.551 8.39.253 11.764.115 4.308-.27 8.431-1.455 12.586l-.419.193c-1.04-4.132-1.07-8.214-.938-12.443.648-3.942.365-8.123.175-12.094Z"/><path fill="#FC8A06" d="M470.589 473.041a25.83 25.83 0 0 1-.28-1.773c-.688-5.86.651-11.3 4.402-15.928 6.632-8.183 17.243-9.918 27.074-10.997.19 3.971.473 8.152-.175 12.094-9.729.504-20.475 3.754-27.26 11.127-.96 1.043-1.67 2.216-2.425 3.407l-1.336 2.07ZM325.85 622.979c28.996 64.699 27.596 123.224 2.584 188.94-3.641 9.564-7.468 19.894-12.763 28.677-15.258-9.288-37.669-15.974-55.383-18.308 7.383-24.057 14.016-47.653 17.469-72.627-5.01 9.621-6.694 22.537-9.243 33.079-4.818 19.919-10.132 40.008-19.177 58.467q-7.256-.769-14.531-1.331c-8.516-14.307-15.526-44.869-19.997-62.069-2.127-8.185-3.92-16.902-7.87-24.426 2.826 11.571 4.999 23.256 7.993 34.804 2.826 10.904 6.536 21.654 8.891 32.662-16.346.881-39.692 8.886-54.168 16.348-4.902-7.447-8.34-17.758-11.395-26.167-23.416-64.433-29.321-122.875.322-186.525q7.058 3.5 14.229 6.762c10.558 4.78 21.782 7.295 33.153 9.198 37.662 6.304 68.668 1.77 104.655-10.379 5.288-1.882 10.252-4.534 15.231-7.105Z"/><path fill="#FDFAF5" d="M310.619 630.084c1.413 6.399 2.571 19.17 2.039 25.515-2.058 27.946-8.862 54.534-31.015 73.583-11.634 10.005-27.266 15.799-42.671 14.57-18.334-1.462-34.158-11.653-45.788-25.506-14.446-17.208-18.934-38.867-21.395-60.575-1.365-8.609-.27-17.864 1.022-26.406 10.558 4.78 21.782 7.295 33.153 9.198 37.662 6.304 68.668 1.77 104.655-10.379Z"/><path fill="#F3D5AD" d="M310.619 630.084c1.413 6.399 2.571 19.17 2.039 25.515-.219.052-.44.102-.659.157-7.568 1.892-14.32 6.177-21.741 8.541q-2.547.817-5.121 1.545-2.574.727-5.172 1.365-2.597.638-5.216 1.185-2.618.548-5.254 1.003-2.635.456-5.285.82-2.65.364-5.311.636t-5.33.451q-2.669.179-5.342.265-2.674.087-5.349.08-2.675-.007-5.348-.106-2.673-.1-5.34-.293-2.668-.192-5.328-.477t-5.308-.663q-2.648-.377-5.281-.846-2.634-.469-5.249-1.03-2.616-.56-5.21-1.211-9.087-2.299-17.839-5.656c-3.962-1.534-11.99-6.199-15.578-6.502-.311.96-.504 1.804-.608 2.808-1.365-8.609-.27-17.864 1.022-26.406 10.558 4.78 21.782 7.295 33.153 9.198 37.662 6.304 68.668 1.77 104.655-10.379Z"/><path fill="#FC8A06" d="M684.299 617.925c5.831 3.937 12.328 7.243 18.888 9.751 49.374 17.715 88.377 19.453 138.496 2.5 5.488-1.927 10.76-4.498 16.053-6.9 9.947 15.58 14.499 32.061 18.768 49.814.833 5.262 1.84 10.533 2.431 15.827q.974 8.7 1.074 17.453.1 8.753-.676 17.473c-2.931 33.927-16.821 81.889-31.998 112.268-15.167-7.571-36.446-14.368-53.213-17.56 5.275-18.211 12.718-45.197 11.659-64.008-4.256 11.686-5.568 24.888-7.81 37.079-3.031 16.478-8.073 31.282-15.345 46.344-6.288.519-11.937.811-18.213-.157-6.444-12.671-11.527-25.416-14.738-39.302-3.192-13.809-3.484-31.925-10.474-44.215 1.24 6.308 1.876 12.799 2.876 19.158 2.373 15.101 5.412 30.592 10.485 45.036-18.046 4.679-35.721 10.98-53.188 17.476-1.356-2.288-2.579-4.706-3.682-7.125-20.047-43.973-32.949-98.97-27.513-147.37 2.42-21.551 8.577-43.259 16.12-63.542Z"/><path fill="#FDFAF5" d="M703.187 627.676c49.374 17.715 88.377 19.453 138.496 2.5 2.587 8.106 3.274 15.974 3.43 24.447-.713 25.422-6.234 47.547-23.614 67.004-11.589 12.975-26.711 21.375-44.289 22.248-16.54.822-31.73-5.632-43.825-16.738-20.87-19.163-29.89-46.556-31.023-74.254-1.562-7.784-.001-17.342.825-25.207Z"/><path fill="#F3D5AD" d="M703.187 627.676c49.374 17.715 88.377 19.453 138.496 2.5 2.587 8.106 3.274 15.974 3.43 24.447-7.616 1.808-14.873 5.864-22.244 8.519-7.708 2.777-15.828 4.435-23.9 5.766-34.964 5.762-64.916-1.28-96.607-16.025-1.562-7.784-.001-17.342.825-25.207Z"/><path fill="#FC8A06" d="M302.27 374.637c.949-8.436 3.798-17.164 5.95-25.396 8.449-32.324 18.678-63.244 37.349-91.226 26.815-40.187 68.461-66.347 115.675-75.713 50.834-10.083 110.094-3.473 153.755 26.001 34.455 23.259 54.479 59.677 69.352 97.433q6.42 15.838 11.3 32.217 4.879 16.378 8.172 33.148c-11.871-7.837-24.031-13.911-38.69-10.819-25.286 5.332-40.4 30.458-68.012 34.811-37.112 5.851-51.53-21.808-84.162-25.797-43.372-5.302-53.256 31.193-94.815 26.206q-1.926-.236-3.835-.58-1.909-.345-3.795-.797-1.887-.452-3.745-1.011-1.857-.558-3.681-1.221-1.823-.663-3.605-1.429-1.783-.765-3.519-1.63-1.736-.866-3.421-1.828-1.684-.963-3.311-2.019c-19.497-12.464-31.461-32.247-57.652-26.691-11.498 2.439-20.738 8.517-29.31 16.341Z"/><path fill="#020203" d="M416.824 330.111c4.151-.497 8.285-.201 12.169 1.457 4.885 2.085 8.558 6.081 10.434 11.03q.195.501.365 1.011.17.511.313 1.029.143.519.26 1.044.116.525.206 1.055.089.53.151 1.065.063.534.098 1.07.034.537.042 1.075.007.538-.013 1.075-.02.538-.068 1.073-.047.536-.122 1.069-.075.532-.177 1.06-.103.528-.232 1.05t-.284 1.037q-.156.515-.337 1.021-.182.507-.389 1.003-.208.496-.44.981c-3.158 6.433-8.289 9.247-14.794 11.406-4.267.494-8.808.125-12.771-1.613-4.969-2.18-8.674-6.383-10.463-11.482q-.178-.498-.33-1.004-.152-.506-.278-1.019-.125-.514-.224-1.033-.099-.519-.171-1.043-.072-.523-.117-1.05-.045-.526-.063-1.055-.018-.528-.008-1.056.009-.529.046-1.056t.101-1.052q.064-.524.155-1.045.091-.521.208-1.036.118-.515.262-1.023.144-.509.314-1.009.171-.501.366-.992.196-.491.417-.971.221-.48.466-.948c3.27-6.277 8.423-9.107 14.908-11.124Z"/><path fill="#FDFAF5" d="M423.724 336.01c.978-.031 1.941-.067 2.914.061 2.505.33 4.845 1.561 6.291 3.68 1.176 1.722 1.518 3.796 1.093 5.825-.705 3.363-2.942 4.972-5.701 6.707-.992.048-1.965.106-2.953-.037-2.446-.354-4.712-1.604-6.071-3.713-1.209-1.879-1.479-4.141-.942-6.293.79-3.163 2.721-4.576 5.369-6.23ZM574.94 278.662c4.038-.552 9.132.27 12.901 1.74 3.235 1.262 5.854 3.373 7.173 6.651 1.482 3.684.968 7.757-.698 11.279-4.338 9.171-15.187 15.368-24.272 18.839q-1.387.424-2.8.751c-4.044.903-8.709 1.236-12.325-1.177-2.594-1.731-3.998-4.488-4.525-7.504-1.162-6.638 1.341-13.976 5.16-19.395 4.871-6.911 11.318-9.861 19.386-11.184Z"/><path fill="#020203" d="M583.7 329.549c4.37-.184 8.464-.211 12.582 1.529 5.278 2.23 9.305 6.81 11.245 12.158q.183.494.34.996.158.503.291 1.013.132.51.239 1.025.106.516.187 1.037.08.52.135 1.044.054.524.083 1.05.028.526.029 1.052.002.527-.023 1.053-.024.526-.075 1.05-.051.525-.128 1.046-.078.521-.181 1.037-.103.517-.232 1.027-.129.511-.283 1.014-.155.504-.334.999-.18.495-.384.981-.204.485-.432.96c-2.891 5.866-7.715 8.863-13.647 11.017-4.431.627-8.447.694-12.725-.926q-.462-.173-.915-.37-.453-.196-.895-.415-.442-.22-.872-.461-.431-.242-.848-.505-.418-.263-.821-.546-.404-.284-.793-.588-.388-.304-.761-.628-.373-.323-.729-.665t-.694-.702q-.338-.359-.657-.735-.319-.377-.619-.769t-.579-.799q-.28-.406-.538-.827-.258-.42-.495-.853t-.451-.878q-.215-.444-.406-.899c-2.281-5.28-2.228-11.127-.085-16.442 2.774-6.878 7.902-10.342 14.471-13.08Z"/><path fill="#FDFAF5" d="M583.074 335.48c1.043-.037 2.082-.052 3.112.15 2.538.497 4.904 1.825 6.266 4.079q.181.302.331.62.151.318.269.649.118.332.204.673.085.341.136.689.051.349.068.7.017.351-.002.703-.018.351-.07.699-.053.348-.139.689c-.817 3.229-3.058 4.834-5.823 6.361-1.156.052-2.358.123-3.503-.085-2.217-.404-4.4-1.928-5.601-3.826-1.197-1.893-1.441-4.147-.804-6.283.897-3.009 2.954-4.339 5.556-5.818ZM428.587 278.569q2.367-.114 4.736-.093c7.619.107 14.588 3.019 19.853 8.618 4.904 5.216 8.247 13.031 7.778 20.239-.212 3.252-1.364 6.371-3.88 8.536-3.33 2.865-6.7 2.929-10.825 2.749-4.678-1.021-9.169-2.479-13.464-4.612-7.433-3.691-16.241-9.812-18.811-18.113-.918-2.966-.941-6.191.59-8.956 2.757-4.982 8.902-6.892 14.023-8.368Z"/></svg>