<?xml version="1.0" encoding="utf-8" ?>
<svg xmlns="http://www.w3.org/2000/svg" xmlns:xlink="http://www.w3.org/1999/xlink" width="2474" height="858">
	<path fill="#DF5764" transform="scale(3.3523 3.35156)" d="M305.691 169.254C313.651 169.746 321.671 169.062 329.626 169.565C329.641 169.742 329.734 170.173 329.691 170.325C329.331 171.598 320.409 181.729 318.923 183.499C318.309 184.23 317.659 185.047 316.92 185.65C313.236 186.044 309.476 185.969 305.772 186.01C305.933 185.749 306.083 185.472 306.165 185.175C306.874 182.612 306.813 171.373 305.691 169.254Z"/>
	<path fill="#5F2B90" transform="scale(3.3523 3.35156)" d="M413.252 68.6113C422.931 68.0375 432.784 68.456 442.49 68.4743C445.745 68.4804 450.526 69.0651 453.648 68.2455C454.374 71.0526 454.55 82.6017 453.544 85.0404C449.511 84.3698 444.917 84.753 440.812 84.7571L414.184 84.7923C409.75 84.798 405.027 85.146 400.634 84.6755C402.452 83.6623 411.518 72.0188 413.161 69.6987C413.467 69.2666 413.339 69.1208 413.252 68.6113Z"/>
	<path fill="#5F2B90" transform="scale(3.3523 3.35156)" d="M515.761 38.7603C516.133 38.7896 516.439 38.8857 516.739 39.1157C521.89 43.0634 543.548 76.3242 544.297 82.4305C543.642 83.3934 530.898 90.4236 529.083 91.2003L528.753 91.5727C527.948 91.2759 527.664 90.5849 527.249 89.8547C525.141 86.1457 523.533 82.1242 521.488 78.3705C517.749 71.5078 506.226 52.3784 500.004 48.0778C505.221 46.1274 510.782 41.5614 515.761 38.7603Z"/>
	<path fill="#5F2B90" transform="scale(3.3523 3.35156)" d="M645.559 39.8417C648.017 39.3991 661.226 44.0973 663.895 45.3783C663.895 45.5086 663.898 45.6389 663.897 45.7692C663.88 47.8325 662.215 50.838 661.396 52.7338C656.695 63.6096 646.773 84.0074 638.801 92.1243L638.505 92.5125C632.455 89.9481 627.148 85.3293 620.918 83.0826C621.312 82.7935 621.609 82.4837 621.908 82.1009C630.499 71.0673 637.934 58.1261 643.621 45.3853C644.283 43.903 645.755 41.4734 645.559 39.8417Z"/>
	<path fill="#5F2B90" transform="scale(3.3523 3.35156)" d="M390.594 96.8708C393.164 98.7957 398.415 109.304 400.692 112.746C403.589 117.125 406.735 121.477 409.877 125.684C417.212 135.505 425.578 144.962 434.697 153.159C440.11 158.024 445.773 162.772 451.701 167C453.719 168.439 462.065 173.115 462.774 174.718C463.013 176.475 455.505 190.159 454.003 192.199C453.817 192.452 453.595 192.681 453.37 192.898C452.651 191.039 443.071 184.99 440.895 183.294C436.488 179.858 432.122 176.166 428.016 172.375Q423.211 167.925 418.659 163.216Q414.106 158.508 409.819 153.557Q405.532 148.605 401.523 143.425Q397.515 138.246 393.797 132.853C391.343 129.345 380.638 111.345 379.076 109.97C379.122 109.953 379.168 109.938 379.213 109.919C379.287 109.887 379.358 109.851 379.432 109.818C381.773 108.768 388.942 99.422 390.594 96.8708Z"/>
	<path fill="#5F2B90" transform="scale(3.3523 3.35156)" d="M354.273 140.224C356.377 139.171 368.804 123.512 371.004 120.695C371.461 120.11 371.393 120.047 371.301 119.296C371.596 119.917 371.772 120.493 371.813 121.18C372.105 126.104 372.355 166.641 371.685 168.556C371.568 168.888 371.4 169.187 371.209 169.481L403.636 169.433C408.988 169.435 414.598 169.763 419.927 169.323C421.211 171.537 420.946 183.063 420.443 185.901Q395.914 185.724 371.384 185.801C372.243 188.037 372.378 225.477 371.558 227.383C371.53 227.448 371.498 227.513 371.47 227.578C371.449 227.625 371.431 227.672 371.411 227.718C371.376 227.801 371.335 227.881 371.295 227.96C365.486 227.644 359.542 227.703 353.733 228.02C354.018 227.544 354.204 227.107 354.249 226.55C354.546 222.831 354.836 188.643 354.292 186.323C354.246 186.128 354.147 185.937 354.048 185.764L329.149 185.793C325.202 185.796 320.824 186.147 316.92 185.65C317.659 185.047 318.309 184.23 318.923 183.499C320.409 181.729 329.331 171.598 329.691 170.325C329.734 170.173 329.641 169.742 329.626 169.565C337.601 168.939 345.964 169.429 353.98 169.457C354.756 167.958 354.757 143.18 354.273 140.224Z"/>
	<path fill="#DF5764" transform="scale(3.3523 3.35156)" d="M353.695 29.9748L371.721 29.952C371.798 30.0864 371.864 30.2229 371.918 30.3689C372.223 31.1899 372.052 63.3225 371.863 66.6606C371.825 67.3317 371.647 67.8701 371.332 68.4619L397.537 68.4303C402.73 68.4302 408.079 68.1793 413.252 68.6113C413.339 69.1208 413.467 69.2666 413.161 69.6987C411.518 72.0188 402.452 83.6623 400.634 84.6755C395.332 85.0664 389.374 85.1707 384.073 84.7567C385.509 85.932 390.44 94.1897 390.643 96.0652C390.674 96.3581 390.658 96.5855 390.594 96.8708C388.942 99.422 381.773 108.768 379.432 109.818C379.358 109.851 379.287 109.887 379.213 109.919C379.168 109.938 379.122 109.953 379.076 109.97C378.923 107.274 372.806 96.9643 370.793 94.9749C371.178 95.5667 371.529 96.2072 371.655 96.9092C372.203 99.9658 372.397 114.975 371.79 118.074C371.703 118.52 371.53 118.908 371.301 119.296C371.393 120.047 371.461 120.11 371.004 120.695C368.804 123.512 356.377 139.171 354.273 140.224C354.676 138.688 354.673 101.771 354.36 98.3752C354.308 97.8094 354.069 97.253 353.798 96.7591C353.856 97.7792 353.629 98.5801 353.227 99.5038C350.915 104.819 347.757 109.908 344.828 114.906C329.367 141.286 309.273 166.036 285.098 184.92C281.985 187.352 278.12 191.222 274.463 192.65C274.456 192.526 274.457 192.436 274.428 192.319C273.907 190.207 265.089 178.485 263.173 177.226Q263.529 177.09 263.87 176.92C268.3 174.661 274.029 169.564 277.844 166.236C300.231 146.705 324.051 118.592 337.785 92.1333C338.976 89.8387 340.642 87.3598 341.454 84.9245C329.544 84.6471 317.594 84.8294 305.679 84.8304C294.373 84.8314 283.026 84.631 271.728 85.0674C271.755 85.0164 271.784 84.966 271.811 84.9145C272.927 82.7558 272.436 70.5296 271.654 68.1912C281.315 68.8508 291.174 68.4538 300.864 68.4542L354.115 68.4604C354.846 65.9455 354.626 31.8846 353.695 29.9748Z"/>
	<path fill="#5F2B90" transform="scale(3.3523 3.35156)" d="M573.991 30.1068C579.618 29.5366 585.603 29.918 591.264 29.9336C591.289 29.9934 591.314 30.0534 591.34 30.1129C591.429 30.3202 591.515 30.5255 591.584 30.7411C592.251 32.8375 591.734 48.4696 591.734 51.6533C591.738 67.0398 592.308 82.6541 591.684 98.0172C591.651 98.8469 591.509 99.4788 591.113 100.217C614.514 99.8715 637.947 100.607 661.345 100.105C661.373 100.172 661.401 100.238 661.43 100.304C661.558 100.589 661.686 100.872 661.769 101.174C662.454 103.656 661.882 121.392 661.881 125.769L661.885 205.11C661.889 209.031 662.563 225.703 661.347 227.966C655.663 227.348 649.468 227.78 643.754 228.014C643.902 227.769 644.042 227.513 644.136 227.242C644.781 225.388 644.876 217.41 644.137 215.726C640.061 216.146 635.658 215.843 631.552 215.839L607.232 215.813L538.081 215.816C525.246 215.819 512.247 215.373 499.435 216.037C499.683 215.704 499.84 215.368 499.91 214.959C500.299 212.696 500.374 200.726 499.387 199.291C505.09 199.609 510.899 199.408 516.612 199.408L547.007 199.409L643.805 199.433C643.974 199.155 644.132 198.86 644.214 198.544C644.799 196.293 644.747 180.975 643.746 179.38C643.871 179.182 643.987 178.979 644.083 178.765C644.928 176.885 644.621 167.893 643.916 165.961C639.47 166.518 634.474 166.134 629.978 166.131L602.213 166.106L505.983 166.193C506.197 165.85 506.394 165.483 506.481 165.085C506.999 162.727 507.141 151.333 505.976 149.604L644.045 149.615C644.104 149.498 644.119 149.473 644.172 149.337C644.641 148.113 644.631 117.75 644.099 116.489C640.145 116.749 636.046 116.537 632.072 116.541L607.972 116.542L538.977 116.534C526.36 116.535 513.654 116.183 501.054 116.685C501.153 116.491 501.235 116.294 501.292 116.084C501.874 113.933 502.122 102.023 501.067 100.172C525.298 100.346 549.536 99.9667 573.765 100.233C574.123 99.6623 574.238 99.178 574.268 98.5091C574.909 84.1901 574.317 68.7666 574.311 54.3363C574.309 48.677 575.028 34.7535 573.991 30.1068Z"/>
	<path fill="#DF5764" transform="scale(3.3523 3.35156)" d="M72.9945 40.0189C78.9608 40.362 85.0316 40.1647 91.0106 40.1658L121.884 40.1662L216.335 40.1511C216.036 44.2348 216.26 48.436 216.282 52.5317L216.301 72.5257L216.313 139.588L216.29 198.646C216.288 207.782 215.696 219.011 216.432 227.918L199.545 227.89L198.822 227.668C197.822 224.753 198.541 215.021 198.556 211.599L90.4323 211.585C90.503 216.954 90.1113 222.63 90.8106 227.942C84.886 227.894 78.9511 227.773 73.03 228.025C73.3177 219.46 73.0861 210.813 73.0871 202.24L73.089 153.386C73.0885 115.614 73.4968 77.785 72.9945 40.0189ZM90.4272 132.744C90.8933 153.573 90.3797 174.458 90.5222 195.296C97.3015 194.988 104.131 195.158 110.918 195.157L145.737 195.158L180.247 195.164C186.411 195.166 192.636 194.963 198.79 195.238C197.909 187.685 198.564 179.411 198.564 171.77C198.565 158.775 198.285 145.72 198.51 132.733C189.873 133.177 181.108 132.878 172.452 132.875L125.303 132.855L102.01 132.91C98.3298 132.922 94.0305 133.345 90.4272 132.744ZM90.4259 56.5397Q90.5643 75.0662 90.5036 93.5932C90.5046 101.169 90.8132 108.889 90.4205 116.45L169.744 116.427L189.66 116.472C192.429 116.472 196.096 116.873 198.763 116.256C197.92 108.205 198.567 99.4138 198.565 91.2978C198.562 79.779 198.115 68.0787 198.559 56.5866L126.133 56.5883L102.847 56.5928C98.7366 56.5952 94.5202 56.7961 90.4259 56.5397Z"/>
</svg>
