<?xml version="1.0" encoding="utf-8" ?>
<svg xmlns="http://www.w3.org/2000/svg" xmlns:xlink="http://www.w3.org/1999/xlink" width="1024" height="1024">
	<path fill="#812300" d="M279.684 287.419C273.615 269.269 271.858 249.315 272.634 230.252C273.162 217.281 275.082 204.152 277.728 191.453C281.889 171.48 296.265 120.288 311.368 106.954C315.663 103.162 320.533 101.974 326.169 102.31C338.113 103.022 350.703 109.559 361.197 115.067C390.446 130.422 418.218 149.104 440.015 174.236C481.404 169.358 522.319 172.495 561.041 188.839C577.15 179.107 592.476 169.836 609.893 162.597C630.055 154.217 674.826 137.214 695.342 146.257C701.848 149.125 705.942 155.261 708.349 161.708C711.739 170.79 713.254 181.083 714.574 190.671C721.225 238.972 715.064 295.186 694.494 339.58Q702.612 364.84 708.682 390.669Q714.752 416.497 718.735 442.729C719.881 450.627 722.186 460.938 719.926 468.714C718.009 475.31 713.102 481.704 709.29 487.352C687.318 519.912 659.843 539.192 626.221 558.554C631.039 564.091 636.764 569.08 641.993 574.247C650.467 582.623 658.342 591.197 665.621 600.638C668.093 598.479 670.572 596.306 673.204 594.342C697.838 575.963 733.042 567.677 763.328 572.367C799.279 577.935 830.494 597.853 851.726 627.252C874.801 659.201 883.22 699.814 876.848 738.514C871.372 771.776 855.267 803.23 827.31 822.983C805.314 838.525 778.823 844.296 752.353 839.778C747.473 851.457 740.887 861.405 733.061 871.269C735.517 876.287 737.43 881.578 737.663 887.208C737.951 894.142 735.808 900.479 731.131 905.637C720.576 917.279 702.636 921.021 687.638 921.669C658.953 922.908 628.612 913.343 605.001 897.239C596.739 891.603 589.442 885.095 582.116 878.333C579.217 877.886 576.304 877.635 573.384 877.368Q566.499 887.554 558.116 896.548C544.501 910.984 531.711 917.955 511.671 918.455C499.081 918.769 487.92 914.856 478.769 906.091C470.098 897.785 467.241 887.723 466.965 875.996C451.865 873.983 437.339 870.369 423.408 864.073C423.024 864.637 422.645 865.18 422.222 865.717C399.257 894.892 353.455 916.002 317.128 920.307C300.861 922.234 279.964 922.125 266.458 911.375C260.425 906.574 256.396 899.943 255.549 892.202C254.309 880.878 259.661 871.084 266.544 862.549C254.872 848.351 248.705 828.114 246.281 810.178C242.735 783.941 246.201 754.04 262.719 732.48C274.775 716.744 291.089 708.901 310.478 706.288C307.557 688.451 306.384 670.664 306.03 652.61Q295.028 648.011 284.868 641.767C250.286 620.568 220.287 588.846 195.617 556.945C187.033 545.844 179.548 533.701 170.392 523.073C162.15 513.504 147.852 507.415 144.935 494.128C141.7 479.388 152.971 462.608 160.775 450.849Q158.765 448.702 156.917 446.414C151.888 440.227 147.316 432.012 148.357 423.75C148.85 419.838 150.836 416.614 153.983 414.26C159.469 410.157 166.592 409.818 173.117 410.871C192.569 414.008 211.089 430.583 222.203 446.153Q223.338 446.581 224.449 447.066C230.064 449.562 231.824 454.608 233.927 459.916L240.018 465.029C241.389 465.014 242.539 464.903 243.881 464.623C243.882 464.613 231.691 435.99 230.41 431.259C227.729 421.351 226.711 410.885 228.199 400.698C232.532 371.052 263.692 315.273 279.684 287.419Z"/>
	<path fill="#F3D5AD" d="M273.219 911.094C270.653 909.18 268.039 907.281 265.859 904.922C260.438 899.057 259.311 892.806 259.661 885.119C260.752 888.293 262.257 890.342 265.329 891.817C267.085 892.66 268.799 892.969 270.712 893.243C270.265 899.687 271.209 904.968 273.219 911.094Z"/>
	<path fill="#FBEDDA" d="M152.414 473.709C153.828 478.088 155.714 482.147 158.038 486.112C155.341 490.96 155.502 496.474 153.275 501.399Q152.178 499.941 151.304 498.34Q150.429 496.739 149.796 495.028C147.061 487.419 149.14 480.672 152.414 473.709Z"/>
	<path fill="#F3D5AD" d="M733.734 886.876C733.713 893.435 731.922 898.747 727.254 903.52C722.753 908.124 716.979 910.827 711.07 913.152C712.014 908.638 712.787 904.213 713.352 899.64C713.692 901.436 713.674 902.236 715.104 903.421C716.094 903.609 716.868 903.698 717.833 903.387C722.865 901.768 729.518 894.462 731.826 889.772C732.25 888.912 732.596 888.139 733.237 887.413C733.398 887.23 733.568 887.055 733.734 886.876Z"/>
	<path fill="#F3D5AD" d="M484.152 898.428C490.141 901.147 502.185 907.074 508.782 904.61C509.824 903.525 509.881 902.408 510.103 900.99C510.559 905.803 511.478 909.976 513.205 914.5C507.462 914.584 501.548 914.501 496.16 912.258C489.686 909.563 486.59 904.681 484.152 898.428Z"/>
	<path fill="#F3D5AD" d="M514.203 904.976C522.955 905.299 532.624 903.152 540.877 900.364C544.273 899.217 547.537 897.636 551.021 896.775C551.168 896.739 551.317 896.706 551.465 896.672C544.924 903.317 532.192 913.603 522.333 913.505C520.362 913.485 518.234 912.817 516.838 911.37C515.257 909.73 514.752 907.101 514.203 904.976Z"/>
	<path fill="#F3D5AD" d="M275.147 903.516C283.842 906.71 294.141 909.662 303.181 905.787C304.159 905.367 304.977 904.778 305.79 904.098C306.182 908.821 307.288 912.621 309.065 916.99C298.709 917.098 289.381 916.883 279.461 913.662C277.518 910.431 276.227 907.112 275.147 903.516Z"/>
	<path fill="#F3D5AD" d="M674.608 901.207C674.866 901.268 675.126 901.323 675.383 901.388C679.299 902.371 682.783 905.268 686.714 906.478C694.474 908.865 701.153 906.499 708.862 906.949L706.583 914.778C694.384 916.971 683.412 917.578 671.032 916.419C672.98 911.273 674.116 906.69 674.608 901.207Z"/>
	<path fill="#F3D5AD" d="M158.038 486.112C164.252 493.221 171.406 499.925 181.399 500.432C185.318 500.631 189.314 499.838 193.131 499.026C191.17 504.488 188.943 509.326 183.42 512.031C178.288 514.546 172.19 513.853 166.989 511.908C161.615 509.898 156.446 506.229 153.275 501.399C155.502 496.474 155.341 490.96 158.038 486.112Z"/>
	<path fill="#F3D5AD" d="M153.034 422.859C153.207 422.962 153.382 423.062 153.554 423.168C157.268 425.467 160.406 428.731 163.655 431.631C172.898 439.881 181.418 442.309 193.603 443.449C197.535 443.817 206.075 443.578 209.042 446.312C200.112 448.915 194.318 453.035 187.722 459.524C177.715 457.173 168.641 452.721 161.506 445.171C155.573 438.892 152.855 431.472 153.034 422.859Z"/>
	<path fill="#FBEDDA" d="M164.293 454.215C171.042 458.255 177.547 461.563 185.051 463.978C182.058 472.285 180.475 481.078 187.249 488.097C189.088 490.003 191.187 491.691 192.023 494.281C191.139 495.548 189.337 495.836 187.93 496.296C181.56 497.084 174.457 494.642 169.259 491.021C163.447 486.973 158.662 480.71 157.503 473.61C156.246 465.917 159.948 460.095 164.293 454.215Z"/>
	<path fill="#FBEDDA" d="M153.034 422.859C155.427 418.891 157.944 416.008 162.592 414.767C171.92 412.277 183.17 417.809 190.899 422.535C200.884 428.642 208.737 436.707 216.515 445.325C214.016 445.614 211.522 445.886 209.042 446.312C206.075 443.578 197.535 443.817 193.603 443.449C181.418 442.309 172.898 439.881 163.655 431.631C160.406 428.731 157.268 425.467 153.554 423.168C153.382 423.062 153.207 422.962 153.034 422.859Z"/>
	<path fill="#F3D5AD" d="M635.524 863.289L645.341 859.741C645.293 860.02 645.249 860.299 645.198 860.577C644.789 862.816 643.767 865.103 643.01 867.257C639.712 876.639 639.026 884.049 644.812 892.798C648.845 898.896 655.887 904.329 663.128 905.715C665.449 906.159 668.012 906.026 670.373 906.026C669.447 909.578 668.106 912.73 666.488 916.015C636.523 910.991 618.323 901.609 593.981 884.091C598.514 881.336 604.533 879.545 609.473 877.417C618.411 873.567 627.485 868.798 635.524 863.289Z"/>
	<path fill="#FC8B0A" d="M609.662 216.183C617.391 209.471 625.33 203.306 634.107 198.015C642.278 193.09 667.134 179.436 675.749 181.565C676.822 182.458 676.934 182.63 677.392 183.95C668.725 192.651 649.932 217.467 645.24 228.515Q644.427 230.425 643.804 232.406Q643.182 234.386 642.756 236.418Q642.331 238.45 642.106 240.514Q641.881 242.578 641.859 244.654C641.857 245.059 641.874 245.463 641.889 245.867C635.843 240.677 630.432 234.679 624.699 229.142C619.933 224.538 614.812 220.344 609.662 216.183Z"/>
	<path fill="#FC8B0A" d="M327.586 143.737C354.758 154.617 369.771 167.263 386.243 191.325C366.175 200.802 353.983 208.671 336.277 221.612C338.04 217.061 341.332 213.165 343.53 208.802C348.383 199.167 350.484 186.916 347.098 176.504C343.142 164.341 333.888 157.222 322.911 151.663L327.586 143.737Z"/>
	<path fill="#F3D5AD" d="M220.473 479.251C222.79 481.611 223.899 485.99 225.564 488.92C228.455 494.008 233.672 498.542 238.082 502.3C229.575 518.606 212.503 529.594 195.34 535.021C192.572 535.897 189.61 536.786 186.742 537.242Q179.188 527.476 171.395 517.9C177.104 518.27 182.711 518.411 187.658 515.043C194.414 510.444 195.851 502.517 197.234 495.066C201.121 494.763 204.85 494.481 208.49 492.922C214.678 490.27 218.042 485.274 220.473 479.251Z"/>
	<path fill="#FBEDDA" d="M188.982 483.692C187.39 479.597 186.598 475.745 187.394 471.365C188.62 464.615 193.575 459.052 199.162 455.373C205.405 451.263 214.956 448.253 222.411 449.953C227.835 451.19 230.464 456.382 233.165 460.747L233.927 459.916L240.018 465.029C241.255 466.838 242.884 468.7 243.933 470.596C245.504 481.6 243.11 492.39 238.082 502.3C233.672 498.542 228.455 494.008 225.564 488.92C223.899 485.99 222.79 481.611 220.473 479.251L220.361 478.958C219.203 478.896 219.67 478.716 218.803 479.478C217.218 480.869 216.069 482.686 214.624 484.216C210.915 488.14 205.106 491.422 199.583 491.126C196.438 490.958 193.254 489.161 191.193 486.814C190.367 485.874 189.667 484.733 188.982 483.692Z"/>
	<path fill="#F3D5AD" d="M188.982 483.692C191.478 482.528 193.698 480.602 196.014 479.098C201.909 475.269 209.013 472.258 215.996 471.2C218.984 470.748 222.407 470.624 224.973 472.47L225.011 473.527C224.009 475.678 222.025 477.301 220.361 478.958C219.203 478.896 219.67 478.716 218.803 479.478C217.218 480.869 216.069 482.686 214.624 484.216C210.915 488.14 205.106 491.422 199.583 491.126C196.438 490.958 193.254 489.161 191.193 486.814C190.367 485.874 189.667 484.733 188.982 483.692Z"/>
	<path fill="#F3D5AD" d="M328.873 852.722C337.528 854.519 345.972 857.293 354.446 859.787C368.761 866.238 385.313 871.925 395.045 884.923C373.689 898.983 351.651 909.058 326.544 914.35C323.266 915.041 317.404 917.004 314.144 916.127C312.997 915.819 312.036 914.298 311.566 913.268C310.666 911.295 310.253 909.009 309.761 906.903C320.504 904.432 332.232 902.64 340.969 895.359C344.58 892.35 347.432 888.397 347.731 883.574C348.509 871.034 336.096 861.303 328.873 852.722Z"/>
	<path fill="#FBEDDA" d="M641.889 245.867C641.874 245.463 641.857 245.059 641.859 244.654Q641.881 242.578 642.106 240.514Q642.331 238.45 642.756 236.418Q643.182 234.386 643.805 232.406Q644.427 230.425 645.24 228.515C649.932 217.467 668.725 192.651 677.392 183.95C684.154 213.037 686.876 242.608 679.892 272.022C678.306 278.702 676.474 285.48 673.474 291.68C664.337 275.225 653.877 260.363 641.889 245.867Z"/>
	<path fill="#FBEDDA" d="M322.911 151.663C333.888 157.222 343.142 164.341 347.098 176.504C350.484 186.916 348.383 199.167 343.53 208.802C341.332 213.165 338.04 217.061 336.277 221.612C325.132 231.778 314.171 241.844 304.18 253.173C303.649 244.896 302.539 236.686 302.538 228.375C302.537 201.975 310.081 174.655 322.911 151.663Z"/>
	<path fill="#FBEDDA" d="M259.661 885.119C259.685 884.985 259.706 884.85 259.734 884.716C262.079 873.446 268.903 864.533 278.489 858.34C293.634 848.556 311.887 849.162 328.873 852.722C336.096 861.303 348.509 871.034 347.731 883.574C347.432 888.397 344.58 892.35 340.969 895.359C332.232 902.64 320.504 904.432 309.761 906.903C308.863 898.716 313.768 892.42 315.058 884.609C314.876 884.765 314.695 884.923 314.511 885.077C308.285 890.301 307.194 896.503 305.79 904.098C304.977 904.778 304.159 905.367 303.181 905.787C294.141 909.662 283.842 906.71 275.147 903.516C272.641 894.876 275.356 891.66 276.912 883.975C277.113 882.984 277.15 883.052 276.58 882.142L275.752 882.211C273.082 885.052 271.945 889.618 270.712 893.243C268.799 892.969 267.085 892.66 265.329 891.817C262.257 890.342 260.752 888.293 259.661 885.119Z"/>
	<path fill="#FBEDDA" d="M645.341 859.741C668.766 853.287 694.155 849.033 716.491 861.541C724.175 865.844 730.827 872.484 733.066 881.253C733.532 883.079 733.645 885 733.734 886.876C733.568 887.055 733.398 887.23 733.237 887.413C732.596 888.139 732.25 888.912 731.826 889.772C729.518 894.462 722.865 901.768 717.833 903.387C716.868 903.698 716.094 903.609 715.104 903.421C713.674 902.236 713.692 901.436 713.352 899.64C712.364 894.732 710.553 882.889 705.998 880.256C705.317 879.863 705.014 880.103 704.304 880.254C704.271 881.968 705.417 883.399 706.179 884.926C709.684 891.952 710.696 899.243 708.862 906.949C701.153 906.499 694.474 908.865 686.714 906.478C682.783 905.268 679.299 902.371 675.383 901.388C675.126 901.323 674.866 901.268 674.608 901.207C673.996 895.78 672.624 886.718 668.34 883.003L667.158 882.885L666.51 883.439C666.672 886.067 668.109 888.363 668.993 890.807C670.813 895.836 670.75 900.78 670.373 906.026C668.012 906.026 665.449 906.159 663.128 905.715C655.887 904.329 648.845 898.896 644.812 892.798C639.026 884.049 639.712 876.639 643.01 867.257C643.767 865.103 644.789 862.816 645.198 860.577C645.249 860.299 645.293 860.02 645.341 859.741Z"/>
	<path fill="#F3D5AD" d="M812.585 774.278C813.424 774.172 814.211 774.005 815.029 773.791C837.25 767.959 857.051 746.097 866.86 726.127C869.847 720.048 871.147 713.425 874.599 707.479L874.964 706.861C878.372 737.849 865.967 776.042 846.432 800.182Q845.633 801.162 844.809 802.123Q843.986 803.084 843.14 804.024Q842.293 804.964 841.424 805.883Q840.555 806.803 839.664 807.7Q838.772 808.598 837.859 809.473Q836.946 810.349 836.012 811.202Q835.077 812.055 834.122 812.885Q833.167 813.715 832.193 814.521Q831.218 815.327 830.223 816.109Q829.229 816.892 828.216 817.649Q827.203 818.407 826.171 819.139Q825.14 819.872 824.091 820.579Q823.042 821.286 821.976 821.967Q820.91 822.649 819.827 823.304Q818.745 823.959 817.647 824.587Q816.549 825.215 815.436 825.816Q814.323 826.418 813.195 826.991Q812.068 827.565 810.927 828.111Q809.785 828.657 808.631 829.175Q807.477 829.693 806.311 830.183Q805.144 830.672 803.966 831.133Q802.788 831.594 801.599 832.026Q800.409 832.458 799.21 832.86Q798.011 833.263 796.802 833.636Q795.593 834.009 794.376 834.353Q793.158 834.696 791.933 835.01Q790.707 835.324 789.474 835.607Q788.241 835.891 787.002 836.144Q785.762 836.397 784.517 836.62Q783.272 836.843 782.021 837.035Q780.771 837.228 779.516 837.389Q778.261 837.551 777.003 837.682C769.097 838.445 761.39 837.652 753.604 836.244C755.881 826.532 757.68 817.069 758.577 807.121C758.983 807.074 759.391 807.031 759.795 806.967C781.508 803.513 799.858 792.048 812.585 774.278Z"/>
	<path fill="#FC8B0A" d="M320.052 106.615C321.76 106.405 323.428 106.285 325.151 106.35C333.083 106.646 341.416 110.619 348.586 113.809Q354.697 116.545 360.668 119.574Q366.64 122.602 372.458 125.915Q378.276 129.229 383.927 132.819Q389.579 136.41 395.05 140.269Q400.521 144.129 405.799 148.248Q411.077 152.368 416.15 156.737Q421.224 161.107 426.079 165.716Q430.935 170.326 435.563 175.165C419.835 178.787 405.083 183.178 390.119 189.26C386.478 184.187 382.956 179.089 378.911 174.318C366.65 159.854 345.128 140.993 325.276 139.335C321.079 145.84 317.754 152.863 314.381 159.815C303.74 183.077 296.999 208.637 298.04 234.352C298.347 241.94 300.387 249.353 300.617 256.967L300.639 257.875C294.125 266.169 288.246 274.926 282.303 283.63C269.092 241.11 278.95 191.343 293.492 150.395C298.39 136.603 306.274 113.187 320.052 106.615Z"/>
	<path fill="#FC8B0A" d="M676.867 147.703C682.569 146.853 689.45 147.835 694.543 150.537C700.321 153.602 703.539 159.366 705.444 165.404C707.789 172.84 708.927 180.863 710.028 188.571Q711.022 195.47 711.685 202.408Q712.347 209.347 712.677 216.309Q713.006 223.272 713.002 230.242Q712.997 237.212 712.659 244.174Q712.32 251.136 711.649 258.073Q710.977 265.011 709.974 271.909Q708.971 278.806 707.638 285.648Q706.306 292.489 704.647 299.259C701.746 311.335 698.253 323.506 692.445 334.533C687.335 321.605 682.304 308.91 676.496 296.262C678.122 289.109 681.182 282.445 683.075 275.375C687.523 258.766 688.125 241.597 688.002 224.508C687.404 208.301 685.614 192.157 678.752 177.273C654.286 177.954 623.371 196.604 606.106 213.729C593.488 204.339 580.141 197.247 566.023 190.409C599.006 169.299 637.602 152.028 676.867 147.703Z"/>
	<path fill="#FBEDDA" d="M490.864 798.616C509.434 816.623 529.724 830.081 556.561 829.776C566.343 829.665 576.557 828.527 585.768 825.086C590.613 823.276 595.328 820.974 600.297 819.53C588.027 844.95 572.18 877.492 551.465 896.672C551.317 896.706 551.168 896.739 551.021 896.775C547.537 897.636 544.273 899.217 540.877 900.364C532.624 903.152 522.955 905.299 514.203 904.976C514.449 901.147 515.062 896.942 513.889 893.225L513.144 892.927C510.878 895.02 510.595 898.113 510.103 900.99C509.881 902.408 509.824 903.525 508.782 904.61C502.185 907.074 490.141 901.147 484.152 898.428C482.311 892.962 483.383 886.901 481.99 883.332L481.215 883.54C477.83 889.511 479.604 896.804 481.084 903.062C478.512 899.804 476.061 896.334 474.372 892.527C464.216 869.633 482.317 821.079 490.864 798.616Z"/>
	<path fill="#F3D5AD" d="M693.29 432.187C701.825 438.447 708.846 445.574 715.957 453.353C718.318 468.965 713.427 475.504 704.499 487.626C662.979 543.994 599.917 571.708 532.119 581.85C473.813 590.572 418.224 584.008 364.122 560.249Q356.462 556.899 348.996 553.137Q341.529 549.376 334.278 545.215Q327.027 541.054 320.012 536.505Q312.997 531.956 306.24 527.033C293.366 517.487 279.835 506.447 270.011 493.68C271.956 493.793 273.418 494.373 275.081 495.34C279.734 498.044 283.889 501.84 288.27 504.975C294.598 509.504 301.281 513.494 308.03 517.354Q320.033 524.318 332.453 530.506Q344.874 536.695 357.662 542.083Q370.45 547.471 383.554 552.037Q396.659 556.603 410.026 560.328C476.811 578.568 552.767 570.188 613.031 535.691C654.042 512.216 680.925 477.647 693.29 432.187Z"/>
	<path fill="#FC8B0A" d="M243.933 470.596C253.317 479.776 260.806 490.207 269.399 500.05C284.876 517.779 304.572 533.289 324.904 545.029C314.132 578.159 306.249 613.731 306.447 648.74C267.127 628.541 235.334 598.723 207.546 564.664C200.281 555.759 193.036 546.873 186.742 537.242C189.61 536.786 192.572 535.897 195.34 535.021C212.503 529.594 229.575 518.606 238.082 502.3C243.11 492.39 245.504 481.6 243.933 470.596Z"/>
	<path fill="#FC8B0A" d="M269.487 860.04C251.67 834.813 245.673 801.344 250.898 771.021C254.369 750.873 263.584 733.518 280.568 721.697C289.691 715.347 299.763 712.418 310.584 710.393C314.096 723.266 317.294 736.346 321.868 748.893C337.345 791.354 365.317 831.82 405.199 854.5C410.015 857.239 415.033 859.675 419.794 862.497C412.623 871.154 404.252 878.507 395.045 884.923C385.313 871.925 368.761 866.238 354.446 859.787C353.981 858.113 352.412 857.266 350.999 856.435C347.295 854.256 343.101 852.909 339.037 851.582C323.386 846.473 306.757 844.576 290.662 848.967C282.838 851.101 275.82 855.024 269.487 860.04Z"/>
	<path fill="#FC8B0A" d="M696.304 643.238C710.517 631.686 731.621 627.801 749.519 629.69C771.429 632.003 791.678 644.282 805.357 661.326C822.214 682.331 829.106 710.349 826.069 736.96C824.467 750.997 819.323 762.097 812.585 774.278C799.858 792.048 781.508 803.513 759.795 806.967C759.391 807.031 758.983 807.074 758.577 807.121C758.498 783.259 757.552 770.201 746.81 748.216C750.15 747.788 753.303 747.253 756.414 745.892Q757.06 745.608 757.691 745.292Q758.322 744.977 758.938 744.632Q759.553 744.286 760.15 743.91Q760.748 743.535 761.326 743.131Q761.905 742.727 762.463 742.295Q763.021 741.863 763.557 741.405Q764.094 740.947 764.607 740.462Q765.121 739.978 765.61 739.47Q766.099 738.961 766.563 738.429Q767.026 737.898 767.464 737.344Q767.901 736.79 768.31 736.215Q768.72 735.641 769.101 735.047Q769.483 734.453 769.834 733.841Q770.186 733.23 770.508 732.602Q770.829 731.974 771.12 731.331Q771.41 730.688 771.669 730.031C775.609 719.891 774.752 708.174 770.259 698.389C764.116 685.006 753.757 679.674 740.567 674.863L739.574 676.16C739.315 675.937 739.052 675.72 738.805 675.485C743.156 678.308 748.382 679.747 752.827 682.589Q753.632 683.114 754.41 683.679Q755.187 684.243 755.936 684.845Q756.686 685.447 757.404 686.085Q758.123 686.723 758.809 687.395Q759.495 688.068 760.148 688.774Q760.8 689.479 761.417 690.216Q762.034 690.953 762.614 691.719Q763.194 692.485 763.735 693.279Q764.277 694.073 764.779 694.892Q765.281 695.712 765.742 696.555Q766.202 697.398 766.621 698.263Q767.04 699.128 767.416 700.013Q767.792 700.897 768.123 701.799Q768.455 702.701 768.742 703.618Q769.029 704.535 769.271 705.465Q769.512 706.395 769.708 707.336C771.609 716.182 770.75 725.533 765.577 733.165C760.34 740.89 753.355 743.253 744.7 745.073C738.755 736.27 731.727 729.133 723.317 722.703C718.678 694.038 710.058 668.798 696.304 643.238Z"/>
	<path fill="#FBEDDA" d="M668.027 603.453C696.354 582.144 727.029 571.257 762.834 576.294Q764.397 576.527 765.954 576.799Q767.511 577.071 769.061 577.381Q770.611 577.691 772.153 578.039Q773.694 578.387 775.227 578.773Q776.76 579.159 778.283 579.582Q779.805 580.006 781.317 580.467Q782.829 580.927 784.329 581.425Q785.829 581.923 787.317 582.458Q788.804 582.993 790.278 583.564Q791.751 584.135 793.211 584.742Q794.67 585.349 796.114 585.992Q797.558 586.635 798.985 587.313Q800.413 587.992 801.823 588.705Q803.234 589.418 804.626 590.166Q806.019 590.914 807.393 591.695Q808.766 592.477 810.12 593.292Q811.474 594.108 812.808 594.956Q814.141 595.805 815.453 596.685Q816.766 597.566 818.056 598.479Q819.346 599.392 820.613 600.337Q821.881 601.281 823.124 602.257Q824.368 603.232 825.587 604.238Q826.807 605.244 828.001 606.279Q829.195 607.314 830.363 608.379Q831.532 609.443 832.674 610.536Q833.815 611.629 834.93 612.75Q836.044 613.87 837.131 615.018Q838.218 616.166 839.276 617.34Q840.334 618.514 841.363 619.714Q842.391 620.914 843.39 622.139Q844.389 623.363 845.358 624.612Q846.326 625.862 847.264 627.134C863.796 649.353 875.493 678.921 874.964 706.861L874.599 707.479C871.147 713.425 869.847 720.048 866.86 726.127C857.051 746.097 837.25 767.959 815.029 773.791C814.211 774.005 813.424 774.172 812.585 774.278C819.323 762.097 824.467 750.997 826.069 736.96C829.106 710.349 822.214 682.331 805.357 661.326C791.678 644.282 771.429 632.003 749.519 629.69C731.621 627.801 710.517 631.686 696.304 643.238C687.304 629.518 678.027 616.457 668.027 603.453Z"/>
	<path fill="#FC8B0A" d="M592.097 571.841C602.293 568.649 612.28 564.609 622.046 560.289C672.041 609.881 706.555 648.57 719.212 719.842C702.536 709.828 685.402 703.938 665.705 704.548C665.855 704.598 666.005 704.65 666.155 704.699C672.254 706.655 678.821 707.311 685.03 709.027C710.462 716.055 732.134 729.316 744.721 753.229C756.751 776.086 757.495 810.583 749.738 835.016C745.817 847.368 738.852 857.998 730.872 868.078C718.039 855.248 701.436 850.06 683.47 850.098C671.595 850.123 645.452 853.47 636.593 862.122C636.216 862.49 635.873 862.893 635.524 863.289C627.485 868.798 618.411 873.567 609.473 877.417C604.533 879.545 598.514 881.336 593.981 884.091C588.11 879.79 583.442 873.574 578.875 867.97C605.315 821.587 629.664 772.677 642.657 720.638C644.343 713.886 646.846 706.363 647.42 699.446C647.511 698.36 647.75 697.892 647.024 697.056C645.151 698.704 644.262 703.023 643.46 705.457C640.22 715.295 637.936 725.414 634.79 735.282Q624.989 765.921 612.165 795.423C608.777 803.295 605.658 811.927 600.71 818.954L600.297 819.53C595.328 820.974 590.613 823.276 585.768 825.086C576.557 828.527 566.343 829.665 556.561 829.776C529.724 830.081 509.434 816.623 490.864 798.616C491.854 792.822 495.217 786.281 497.4 780.772C502.592 767.67 518.753 729.581 516.081 716.623C516.73 716.582 517.234 716.461 517.83 716.194C523.547 713.632 528.428 707.447 532.77 702.999C556.081 679.119 571.9 655.321 583.351 623.913C589.356 610.759 591.888 586.29 592.097 571.841Z"/>
	<path fill="#FBEDDA" d="M231.93 402.773C241.638 391.628 254.074 384.684 268.983 383.646C282.363 382.715 296.548 385.364 306.822 394.467C313.071 400.004 318.05 406.851 323.796 412.886C336.303 426.025 354.653 437.939 373.516 436.918C385.517 436.269 395.182 429.348 405.022 423.183C429.351 407.938 454.738 399.197 483.483 406.351C497.82 409.919 511.924 416.649 523.008 426.524C541.201 442.732 546.295 459.94 574.747 458.377C610.604 456.408 627.238 420.04 664.819 423.153C675.072 424.003 684.381 427.111 693.29 432.187C680.925 477.647 654.042 512.216 613.031 535.691C552.767 570.188 476.811 578.568 410.026 560.328Q396.659 556.603 383.554 552.037Q370.45 547.471 357.662 542.083Q344.874 536.695 332.453 530.506Q320.033 524.318 308.03 517.354C301.281 513.494 294.598 509.504 288.27 504.975C283.889 501.84 279.734 498.044 275.081 495.34C273.418 494.373 271.956 493.793 270.011 493.68C269.878 493.557 269.737 493.441 269.612 493.31C253.566 476.472 238.451 449.367 233.615 426.781C231.894 418.743 231.49 410.964 231.93 402.773Z"/>
	<path fill="#060809" d="M434.649 440.978C434.575 440.827 434.497 440.677 434.427 440.524C432.34 435.886 431.769 430.735 433.698 425.934C435.897 420.464 440.586 416.969 445.851 414.737C445.638 415.74 445.447 416.641 445.014 417.574C444.261 419.323 438.405 422.621 436.117 427.413C434.248 432.443 436.31 437.509 434.649 440.978Z"/>
	<path fill="#01021A" d="M445.851 414.737C458.422 408.533 473.155 409.879 486.126 414.28C489.701 415.492 493.695 417.172 496.485 419.753C497.085 421.219 498.246 423.278 497.989 424.842L497.07 425.332C493.956 423.459 491.27 421.129 487.991 419.461C475.095 412.899 460.18 413.735 446.795 418.058L445.014 417.574C445.447 416.641 445.638 415.74 445.851 414.737Z"/>
	<path fill="#0A234F" d="M446.795 418.058C460.18 413.735 475.095 412.899 487.991 419.461C491.27 421.129 493.956 423.459 497.07 425.332L497.989 424.842C498.246 423.278 497.085 421.219 496.485 419.753C497.152 420.275 498.128 420.855 498.647 421.505C502.522 424.376 506.142 428.873 506.737 433.775C507.392 439.167 504.645 444.304 501.271 448.309C493.551 457.475 482.692 462.248 471.098 464.029L468.615 463.825C467.171 463.515 465.674 463.587 464.202 463.574C461.798 463.196 459.386 462.443 457.023 461.846C452.699 459.984 448.936 457.949 445.493 454.683C440.505 451.138 437.197 446.47 434.649 440.978C436.31 437.509 434.248 432.443 436.117 427.413C438.405 422.621 444.261 419.323 445.014 417.574L446.795 418.058Z"/>
	<path fill="#01021A" d="M436.117 427.413C438.083 430.307 438.556 434.143 439.843 437.389C442.908 445.116 448.792 450.485 454.423 456.337C451.291 456.17 448.714 454.405 445.493 454.683C440.505 451.138 437.197 446.47 434.649 440.978C436.31 437.509 434.248 432.443 436.117 427.413Z"/>
	<path fill="#060809" d="M498.647 421.505C502.522 424.376 506.142 428.873 506.737 433.775C507.392 439.167 504.645 444.304 501.271 448.309C493.551 457.475 482.692 462.248 471.098 464.029L468.615 463.825C467.171 463.515 465.674 463.587 464.202 463.574C461.798 463.196 459.386 462.443 457.023 461.846C452.699 459.984 448.936 457.949 445.493 454.683C448.714 454.405 451.291 456.17 454.423 456.337C458.666 459.472 464.117 460.418 469.273 460.068C480.554 459.302 491.838 453.008 499.102 444.45C503.339 439.46 504.493 435.138 503.991 428.791C501.931 426.511 499.933 424.326 498.647 421.505Z"/>
	<path fill="#527CB8" d="M446.795 418.058C460.18 413.735 475.095 412.899 487.991 419.461C491.27 421.129 493.956 423.459 497.07 425.332C493.957 428.406 491.454 427.825 487.732 426.317C468.888 418.682 463.307 421.943 444.21 422.314C445.211 420.922 446.041 419.599 446.795 418.058Z"/>
	<path fill="#812300" d="M422.886 487.793C420.505 487.028 418.092 486.244 415.781 485.287C405.669 481.098 396.88 474.335 392.672 464.002C390.977 459.841 390.25 454.837 392.287 450.624C392.877 449.403 393.339 448.896 394.573 448.387C397.428 450.737 395.223 458.836 397.852 464.559C402.576 474.838 413.341 479.787 423.399 483.306C425.09 481.802 427.654 481.515 429.814 480.925C442.365 477.497 449.711 472.796 457.023 461.846C459.386 462.443 461.798 463.196 464.202 463.574C465.674 463.587 467.171 463.515 468.615 463.825L471.098 464.029C474.816 475.371 485.422 484.239 495.746 489.491C499.445 491.373 503.792 492.186 507.302 494.033C511.741 493.984 516.112 492.883 520.169 491.122C526.536 488.358 534.243 482.808 536.24 475.846C536.926 473.454 536.515 470.694 537.545 468.375C537.948 467.467 538.036 467.401 538.972 467.01C540.206 467.658 540.584 467.814 541.137 469.184C542.554 472.692 539.816 478.655 538.071 481.592C531.529 492.601 519.319 495.725 507.723 498.424C505.442 510.184 501.821 521.659 494.352 531.226C487.879 539.518 477.898 546.341 467.236 547.415C458.495 548.295 449.619 544.99 442.91 539.477C427.318 526.662 424.77 506.642 422.886 487.793Z"/>
	<path fill="#F3D5AD" d="M468.615 463.825L471.098 464.029C474.816 475.371 485.422 484.239 495.746 489.491C499.445 491.373 503.792 492.186 507.302 494.033C504.797 494.587 502.161 494.562 499.621 494.287C489.52 493.194 478.62 487.832 472.326 479.722C468.268 474.494 467.813 470.113 468.615 463.825Z"/>
	<path fill="#F3D5AD" d="M457.023 461.846C459.386 462.443 461.798 463.196 464.202 463.574C463.075 469.964 461.491 475.343 455.931 479.339C447.788 485.19 434.909 485.46 425.39 483.694Q424.393 483.509 423.399 483.306C425.09 481.802 427.654 481.515 429.814 480.925C442.365 477.497 449.711 472.796 457.023 461.846Z"/>
	<path fill="#9C3B0E" d="M464.767 475.809C466.842 477.73 467.871 480.911 469.63 483.168C477.898 493.775 491.312 496.979 503.918 498.604C502.124 505.869 499.798 512.721 496.646 519.521C489.095 510.677 481.723 506.048 470.757 502.164C464.669 501.095 458.532 500.684 452.385 501.513C443.743 502.68 436.521 506.272 431.172 513.253C429.182 504.994 427.911 496.915 426.943 488.483C432.27 488.875 437.579 489.089 442.893 488.393C452.298 487.16 458.964 483.319 464.767 475.809Z"/>
	<path fill="#FC8B0A" d="M454.63 505.179C459.544 504.491 464.656 504.91 469.48 506.039C480.319 508.574 488.575 514.686 494.382 524.082C488.023 532.99 482.571 538.045 472.121 541.654C466.488 543.657 459.216 542.955 453.82 540.628C443.39 536.128 437.29 527.144 433.101 516.992Q434.051 515.615 435.05 514.272C439.934 507.8 447.078 506.244 454.63 505.179Z"/>
	<path fill="#FBEDDA" d="M467.373 871.665C460.999 871.329 454.761 870.271 448.569 868.732C406.725 858.328 366.223 823.274 344.293 786.559C307.115 724.315 302.492 645.729 320.05 576.485C321.281 571.628 325.831 551.172 328.106 548.763C328.407 548.444 328.86 548.314 329.237 548.089L331.031 548.557C343.401 555.03 355.663 561.495 368.591 566.809C425.88 590.356 487.525 595.346 548.205 583.278C563.084 580.319 577.573 576.183 592.097 571.841C591.888 586.29 589.356 610.759 583.351 623.913C571.9 655.321 556.081 679.119 532.77 702.999C528.428 707.447 523.547 713.632 517.83 716.194C517.234 716.461 516.73 716.582 516.081 716.623C513.064 719.966 507.254 742.606 505.282 748.494C496.047 776.073 483.397 802.389 475.445 830.436C471.587 844.045 469.155 857.649 467.373 871.665Z"/>
	<path fill="#F3D5AD" d="M331.031 548.557C343.401 555.03 355.663 561.495 368.591 566.809C425.88 590.356 487.525 595.346 548.205 583.278C563.084 580.319 577.573 576.183 592.097 571.841C591.888 586.29 589.356 610.759 583.351 623.913C579.597 622.581 552.045 625.975 545.763 626.297C534.662 626.865 523.441 626.401 512.332 626.119C463.708 624.884 413.561 617.684 372.171 590.283C362.175 583.666 333.468 560.531 331.031 548.557Z"/>
	<path fill="#FC8B0A" d="M231.93 402.773C233.475 387.248 241.392 371.539 247.736 357.451C269.789 308.488 296.188 259.871 338.391 225.383Q340.428 223.696 342.506 222.06Q344.584 220.424 346.702 218.84Q348.819 217.256 350.975 215.724Q353.131 214.192 355.324 212.714Q357.517 211.236 359.746 209.812Q361.975 208.388 364.238 207.02Q366.501 205.651 368.797 204.339Q371.093 203.026 373.421 201.771Q375.748 200.515 378.106 199.318Q380.464 198.12 382.851 196.98Q385.237 195.841 387.651 194.76Q390.065 193.68 392.505 192.659Q394.945 191.638 397.409 190.678Q399.873 189.718 402.36 188.818Q404.847 187.919 407.356 187.081Q409.864 186.243 412.392 185.467Q414.921 184.691 417.467 183.977Q420.014 183.264 422.577 182.613Q425.141 181.963 427.719 181.375Q430.298 180.788 432.89 180.264Q435.483 179.74 438.087 179.281Q440.692 178.821 443.307 178.425Q445.921 178.03 448.545 177.698Q451.169 177.367 453.8 177.101Q456.432 176.834 459.069 176.633Q461.706 176.431 464.347 176.295Q466.988 176.158 469.632 176.086Q472.275 176.015 474.92 176.008Q477.565 176.001 480.209 176.06Q482.853 176.118 485.495 176.242Q488.137 176.366 490.775 176.554Q493.412 176.743 496.045 176.996C555.138 182.956 606.136 209.112 643.736 255.366C666.737 283.659 683.197 316.622 694.204 351.297C698.734 365.57 702.158 380.581 705.629 395.16C710.142 414.112 714.761 433.856 715.957 453.353C708.846 445.574 701.825 438.447 693.29 432.187C684.381 427.111 675.072 424.003 664.819 423.153C627.238 420.04 610.604 456.408 574.747 458.377C546.295 459.94 541.201 442.732 523.008 426.524C511.924 416.649 497.82 409.919 483.483 406.351C454.738 399.197 429.351 407.938 405.022 423.183C395.182 429.348 385.517 436.269 373.516 436.918C354.653 437.939 336.303 426.025 323.796 412.886C318.05 406.851 313.071 400.004 306.822 394.467C296.548 385.364 282.363 382.715 268.983 383.646C254.074 384.684 241.638 391.628 231.93 402.773Z"/>
	<path fill="#FBEDDA" d="M578.548 304.651C583.936 303.974 591.04 304.949 595.788 307.54C599.205 309.403 601.663 312.304 602.626 316.102C603.794 320.704 602.613 325.535 600.165 329.512C593.05 341.073 577.631 346.317 565.181 349.377C558.992 350.678 551.116 350.927 545.565 347.305C542.902 345.568 541.405 342.909 540.853 339.817C539.841 334.151 542.048 328.723 545.265 324.159C553.153 312.973 565.394 307.023 578.548 304.651Z"/>
	<path fill="#FBEDDA" d="M375.349 282.504C381.536 282.416 387.31 282.987 393.077 285.362C404.67 290.138 414.788 300.189 419.459 311.846C421.378 316.635 422.61 322.398 420.33 327.271C418.364 331.474 414.913 333.469 410.74 335.039C405.286 335.971 399.933 334.624 394.87 332.59C382.348 327.559 371.543 316.933 366.414 304.441C364.63 300.095 363.28 294.785 365.302 290.295C367.292 285.875 371.071 284.082 375.349 282.504Z"/>
	<path fill="#060809" d="M369.477 343.19C375.224 342.438 382.265 344.602 386.937 347.806C393.902 352.581 397.816 360.411 399.149 368.581C400.697 378.08 398.746 388.237 393.031 396.07C387.299 403.925 379.049 407.699 369.625 409.202C362.566 408.905 356.211 407.228 350.513 402.946C343.768 397.877 339.521 390.51 338.41 382.145C337.165 372.771 339.481 362.888 345.309 355.364C351.556 347.299 359.712 344.433 369.477 343.19Z"/>
	<path fill="#FBEDDA" d="M351.806 373.962C353.922 374.017 356.176 374.117 357.752 375.736C358.704 376.714 358.963 377.896 358.893 379.218C358.773 381.502 357.071 383.121 355.553 384.621C353.342 384.524 350.649 384.098 349.215 382.203C348.309 381.006 348.066 380.043 348.286 378.559C348.595 376.466 350.275 375.195 351.806 373.962Z"/>
	<path fill="#FBEDDA" d="M371.242 349.52C373.67 349.414 376.154 349.418 378.503 350.115C382.608 351.334 386.115 354.153 387.988 358.023C389.487 361.121 389.849 364.726 388.695 367.999C387.048 372.67 383.621 374.852 379.351 376.749C376.546 377.058 373.999 377.264 371.266 376.408Q370.567 376.196 369.893 375.914Q369.219 375.633 368.577 375.286Q367.934 374.938 367.33 374.529Q366.726 374.119 366.165 373.65Q365.605 373.182 365.094 372.66Q364.584 372.137 364.128 371.567Q363.672 370.996 363.276 370.383Q362.88 369.769 362.547 369.119C360.866 365.847 360.494 361.73 361.787 358.264C363.56 353.511 366.918 351.56 371.242 349.52Z"/>
	<path fill="#060809" d="M579.501 365.194C586.576 364.585 593.837 366.751 599.638 370.8Q600.33 371.291 600.997 371.815Q601.664 372.339 602.304 372.896Q602.944 373.453 603.556 374.041Q604.168 374.628 604.749 375.246Q605.331 375.863 605.882 376.508Q606.433 377.154 606.951 377.826Q607.469 378.497 607.953 379.194Q608.437 379.891 608.886 380.61Q609.335 381.33 609.748 382.071Q610.16 382.812 610.536 383.573Q610.912 384.334 611.249 385.112Q611.587 385.89 611.885 386.684Q612.184 387.479 612.442 388.286Q612.701 389.094 612.92 389.914Q613.138 390.734 613.316 391.563Q613.494 392.393 613.63 393.23Q613.777 394.098 613.881 394.973Q613.985 395.847 614.046 396.726Q614.107 397.604 614.124 398.485Q614.142 399.365 614.116 400.246Q614.09 401.126 614.021 402.004Q613.952 402.882 613.839 403.755Q613.727 404.629 613.572 405.496Q613.417 406.363 613.219 407.221Q613.022 408.079 612.782 408.926Q612.542 409.774 612.261 410.608Q611.98 411.443 611.658 412.263Q611.336 413.083 610.975 413.885Q610.613 414.688 610.212 415.473Q609.811 416.257 609.372 417.02Q608.933 417.784 608.457 418.525Q607.981 419.265 607.469 419.982C601.687 427.951 593.583 431.394 584.117 432.92C576.342 433.184 569.004 431.62 562.718 426.816C555.454 421.266 550.874 412.513 549.702 403.517C548.459 393.979 550.731 384.313 556.741 376.718C562.615 369.294 570.331 366.211 579.501 365.194Z"/>
	<path fill="#FBEDDA" d="M596.724 401.101C598.487 401.268 600.125 401.525 601.488 402.775C602.423 403.631 603.001 404.838 602.891 406.123C602.71 408.242 601.205 409.441 599.679 410.671C597.814 410.538 595.955 410.381 594.68 408.806C593.865 407.799 593.382 406.788 593.591 405.459C593.891 403.554 595.303 402.24 596.724 401.101Z"/>
	<path fill="#FBEDDA" d="M572.789 371.524C575.551 371.456 577.949 371.48 580.57 372.546C584.241 374.039 587.109 376.798 588.593 380.491C590.094 384.229 590.046 388.653 588.239 392.278C585.974 396.824 582.565 398.637 578.033 400.282C575.581 400.386 573.088 399.927 570.785 399.079Q570.12 398.838 569.482 398.53Q568.845 398.222 568.242 397.85Q567.64 397.479 567.078 397.048Q566.517 396.616 566.003 396.13Q565.488 395.644 565.026 395.107Q564.565 394.571 564.16 393.99Q563.755 393.409 563.412 392.79Q563.069 392.171 562.791 391.52C561.301 388.009 561.163 383.965 562.6 380.412C564.576 375.527 568.158 373.385 572.789 371.524Z"/>
</svg>
