<?xml version="1.0" encoding="utf-8" ?>
<svg xmlns="http://www.w3.org/2000/svg" xmlns:xlink="http://www.w3.org/1999/xlink" width="1024" height="1024">
	<path d="M682.731 62.6076C685.401 62.4092 688.058 62.5098 690.65 63.2405C699.486 65.7307 705.039 74.0382 709.09 81.7195C718.093 98.7933 722.659 118.428 725.801 137.36C735.179 193.865 730.999 244.186 714.333 298.869C720.178 314.201 725.496 329.688 730.973 345.151C736.705 361.332 744.135 378.546 745.82 395.747Q746.002 397.516 746.082 399.292Q746.161 401.068 746.139 402.846Q746.116 404.624 745.991 406.398Q745.866 408.172 745.639 409.935Q745.412 411.699 745.084 413.446Q744.756 415.194 744.328 416.92Q743.9 418.645 743.373 420.344Q742.847 422.042 742.223 423.707C729.365 458.128 689.964 484.331 658.854 501.394C652.758 504.737 646.688 508.224 640.365 511.12C644.673 517.639 648.796 524.411 652.313 531.39C668.722 563.951 667.858 591.066 656.814 624.934C663.898 641.689 669.419 658.855 675.879 675.827Q682.345 672.721 688.405 668.882Q694.465 665.044 700.037 660.526C733.433 633.058 755.731 586.608 747.027 543.013C745.102 533.371 737.789 518.438 738.961 509.114C739.342 506.08 740.899 503.122 743.451 501.376C747.898 498.333 754.066 498.83 759.09 499.86C796.998 507.633 829.734 532.625 850.814 564.633C873.242 598.687 882.861 643.988 874.326 683.934C867.647 715.194 847.282 741.712 820.583 758.801C781.919 783.547 738.56 786.705 694.727 777.043C695.361 783.42 695.316 790.06 695.401 796.47C695.809 826.94 691.601 855.462 682.892 884.585C685.33 885.821 687.827 887.167 690.045 888.772C699.74 895.788 706.715 908.627 708.608 920.323C709.775 927.534 708.404 934.79 703.954 940.692C695.523 951.873 678.211 956.326 665.079 958.121C649.715 960.221 633.319 959.374 618.562 954.386C582.287 942.123 586.294 919.033 578.868 888.009C572.66 862.076 559.656 840.997 538.495 824.808C515.581 830.932 488.721 830.656 465.752 825.213C444.281 842.809 427.26 864.564 421.633 892.25C419.602 902.242 418.898 912.697 416.015 922.486C412.508 934.397 405.721 943.249 394.762 949.177C374.848 959.95 347.093 961.956 325.516 955.496C314.374 952.16 303.976 946.48 298.323 935.923C293.997 927.842 293.978 919.005 296.552 910.384C300.287 899.473 309.23 892.123 318.385 885.806C306.601 842.269 303.664 773.769 319.703 731.165C316.711 724.702 314.432 717.895 312.02 711.2Q311.047 711.289 310.071 711.33Q309.095 711.371 308.118 711.364Q307.141 711.356 306.166 711.3Q305.19 711.244 304.219 711.14Q303.247 711.036 302.282 710.884Q301.317 710.732 300.361 710.532Q299.405 710.332 298.46 710.085Q297.514 709.839 296.582 709.545Q295.651 709.252 294.734 708.913Q293.818 708.573 292.92 708.189Q292.022 707.805 291.143 707.377Q290.265 706.949 289.409 706.478Q288.554 706.007 287.722 705.494Q286.891 704.981 286.086 704.427Q285.281 703.874 284.504 703.281Q283.727 702.688 282.981 702.058C271.133 692.136 261.895 675.815 260.529 660.322C259.271 646.043 265.865 635.489 274.727 624.93C266.139 610.29 259.073 594.339 251.706 579.035Q233.338 541.188 215.762 502.967L187.258 440.416C175.485 414.451 163.598 388.641 156.401 360.948C149.682 335.09 146.582 305.588 150.83 279.135C151.578 274.476 153.715 261.183 158.441 258.773C159.131 258.421 159.683 258.244 160.435 258.464C162.591 259.096 164.05 261.478 165.122 263.304C171.259 273.758 175.965 285.705 180.914 296.772L204.25 348.939Q240.83 431.326 276.256 514.214L297.41 563.539C301.426 572.96 305.217 582.518 309.569 591.789C314.875 582.382 317.861 571.307 322.423 561.438C330.901 543.101 341.311 526.071 352.272 509.14C318.3 492.352 278.189 465.625 261.947 430.053Q260.966 427.947 260.122 425.782Q259.279 423.617 258.578 421.401Q257.877 419.186 257.32 416.931Q256.763 414.675 256.354 412.388Q255.944 410.1 255.684 407.792Q255.423 405.483 255.312 403.162Q255.201 400.841 255.241 398.518Q255.28 396.195 255.47 393.879C257.422 366.763 275.848 329.448 285.655 303.227C270.001 266.465 265.339 223.483 267.257 183.876C268.696 154.147 278.523 89.9905 301.229 69.7535C306.121 65.394 311.924 63.1817 318.494 63.6724C328.679 64.4329 339.077 69.0873 348.192 73.4682C383.724 90.545 412.127 115.439 437.856 144.953C479.827 136.339 519.873 134.46 561.694 145.771C591.895 110.781 636.023 71.4353 682.731 62.6076Z"/>
	<path fill="#BFC8C9" d="M392.24 634.16L395.59 637.083C393.313 640.54 392.585 652.425 391.417 656.973Q388.48 668.44 383.703 679.271L382.397 674.447C383.106 669.434 384.713 664.301 385.991 659.398C388.179 651.005 390.4 642.64 392.24 634.16Z"/>
	<path fill="#EF6504" d="M443.597 816.589C449.233 819.297 454.842 822.127 460.815 824.028C442.572 840.433 428.49 857.982 419.219 881.052C418.901 880.587 418.725 880.372 418.491 879.901C415.158 873.189 429.655 840.344 433.371 833.696C436.659 827.813 441.473 823.133 443.597 816.589Z"/>
	<path fill="#BFC8C9" d="M559.079 700.44C578.46 696.457 595.776 689.066 612.237 678.096C613.263 685.416 613.416 692.791 614.287 700.119L614.077 700.685C606.535 702.687 600.359 707.005 593.132 709.582C577.944 715 561.911 717.804 546.007 720.134C552.36 714.138 556.316 708.76 559.079 700.44Z"/>
	<path fill="#F09282" d="M470.585 476.591C480.112 469.097 490.903 466.565 502.917 467.95C510.658 468.842 518.438 471.608 523.484 477.865C524.945 479.677 526.006 481.856 527.013 483.945C523.635 487.576 519.225 490.723 514.825 492.992C507.241 496.903 498.772 498.654 490.467 495.933C480.756 492.753 475.082 485.284 470.585 476.591Z"/>
	<path fill="#882C35" d="M462.639 455.451C476.469 457.245 486.702 455.286 499.522 450.067C513.561 455.418 527.508 461.001 542.726 457.467C538.575 467.092 533.997 476.044 527.013 483.945C526.006 481.856 524.945 479.677 523.484 477.865C518.438 471.608 510.658 468.842 502.917 467.95C490.903 466.565 480.112 469.097 470.585 476.591C467.228 469.732 465.29 462.562 462.639 455.451Z"/>
	<path fill="#EF6504" d="M612.237 678.096C629.47 664.771 642.414 649.362 653.477 630.613C656.839 639.433 660.356 648.238 663.25 657.224C663.145 657.318 663.039 657.411 662.935 657.506C659.976 660.232 657.511 663.649 654.885 666.701Q649.321 673.106 643.037 678.806C637.082 684.1 630.718 688.783 624.176 693.317C620.946 695.556 617.312 697.648 614.287 700.119C613.416 692.791 613.263 685.416 612.237 678.096Z"/>
	<path fill="#FEFEFE" d="M160.298 265.079L164.564 274.825C162.813 279.245 161.701 283.359 161.249 288.101C159.738 303.957 162.952 321.368 166.474 336.842C172.965 365.36 182.405 393.193 191.335 421.019C194.47 430.788 198.08 440.558 200.743 450.456C201.36 452.749 202.441 455.685 201.271 457.91C178.885 410.864 156.392 362.459 154.968 309.487C154.558 294.254 155.67 279.689 160.298 265.079Z"/>
	<path fill="#0457E3" d="M344.589 695.995C348.667 699.288 363.465 734.491 365.89 741.293C364.376 744.768 362.381 747.24 359.378 749.582C353.392 754.251 346.993 755.367 339.678 754.342C329.901 745.996 321.975 722.18 316.918 709.984C327.479 707.281 335.968 702.583 344.589 695.995Z"/>
	<path fill="#FE9209" d="M308.556 612.644C314.262 612.216 320.177 613.064 325.301 615.704C333.734 620.048 336.987 627.482 339.728 635.975C335.029 637.878 331.119 640.204 327.004 643.164C331.685 641.87 336.176 640.844 340.912 642.568C345.575 644.266 348.65 648.171 350.612 652.582C354.062 660.336 353.916 670.047 350.882 677.897C345.721 691.248 334.186 697.575 321.795 703.112C319.59 703.742 317.365 704.408 315.116 704.859C306.14 706.661 297.231 705.293 289.561 700.159C278.057 692.458 268.861 676.392 266.253 662.973C264.361 653.24 267.361 644.231 272.841 636.231C281.591 623.455 293.354 615.415 308.556 612.644Z"/>
	<path fill="#FEFEFE" d="M668.479 108.514L673.723 108.546C677.769 110.757 680.42 113.565 682.766 117.485C700.342 146.859 694.238 209.778 686.174 242.477C679.03 230.525 671.478 219.617 662.836 208.693C646.057 188.497 625.336 174.702 602.992 161.448C620.127 139.6 642.218 118.47 668.479 108.514Z"/>
	<path fill="#FEFEFE" d="M322.47 108.517C324.039 108.39 325.579 108.323 327.148 108.511C348.902 111.113 381.162 144.325 394.57 161.558C370.331 175.051 354.577 187.894 335.655 208.114C325.305 220.105 317.433 232.703 309.801 246.547C301.003 218.301 299.313 185.26 303.741 156.133C306.012 141.19 309.611 117.964 322.47 108.517Z"/>
	<path fill="#EF6504" d="M357.235 511.797C362.478 514.169 367.71 516.599 373.027 518.8C393.291 527.189 414.25 533.685 435.264 539.89C455.009 545.72 475.744 551.709 496.422 552.59C536.993 554.319 597.273 528.588 634.644 513.056C638.017 517.978 640.981 523.099 643.914 528.288C632.869 535.163 621.684 542.073 609.973 547.768C582.417 561.167 537.268 576.151 506.368 576.02C489.887 575.95 473.149 572.198 457.177 568.481C439.865 564.452 421.803 559.816 405.375 553.027C387.361 545.582 364.88 533.426 346.289 529.247C349.695 523.3 353.54 517.569 357.235 511.797Z"/>
	<path fill="#FEFEFE" d="M499.91 372.211C512.846 371.216 527.566 374.496 539.804 378.699C550.161 382.255 574.297 392.086 578.764 401.924C580.349 405.414 578.918 409.578 577.682 412.978C572.342 427.663 563.194 444.517 548.337 451.266C532.734 458.353 516.538 452.643 501.514 447.027L501.515 433.964C508.756 432.337 515.782 429.786 521.98 425.637C527.48 421.957 533.235 416.549 534.348 409.73Q534.457 409.102 534.498 408.467Q534.539 407.831 534.513 407.195Q534.487 406.558 534.393 405.928Q534.299 405.298 534.139 404.682Q533.979 404.065 533.755 403.469Q533.531 402.873 533.244 402.304Q532.958 401.735 532.613 401.199Q532.268 400.664 531.868 400.168C526.167 393.04 515.41 391.126 506.887 390.074C497.585 389.471 487.812 390.046 479.174 393.876C474.629 395.89 470.143 399.163 468.4 404.007C467.178 407.401 467.562 410.94 469.077 414.172C474.34 425.391 487.355 429.941 498.143 433.851C498.65 438.286 498.513 442.753 498.479 447.209C493.238 450.065 487.313 451.922 481.42 452.8C469.512 454.575 458.469 452.1 448.838 444.775C438.672 437.044 431.966 426.317 426.623 414.905C425.254 411.98 423.501 408.559 423.196 405.299C423.023 403.445 423.798 401.983 424.967 400.618C427.632 397.501 431.688 395.1 435.083 392.81C454.712 379.576 476.501 373.736 499.91 372.211Z"/>
	<path fill="#FE9209" d="M312.126 69.5217C313.652 69.3261 315.132 69.3318 316.669 69.4102C326.002 69.887 335.012 73.9502 343.368 77.838C377.981 93.9406 406.457 118.499 431.76 146.705C419.984 150.443 408.527 154.348 397.394 159.759C391.82 154.17 387.097 147.704 381.668 141.955C369.96 129.558 345.202 107.437 328.545 105.556C324.621 105.113 320.728 105.733 317.61 108.275C306.605 117.245 302.225 143.329 300.643 156.881C296.772 189.333 299.697 218.742 307.669 250.402C300.823 265.512 294.714 280.489 288.974 296.055C267.34 248.177 269.767 165.94 284.404 116.28C289.416 99.2751 295.596 78.5198 312.126 69.5217Z"/>
	<path fill="#FE9209" d="M681.853 68.584C684.067 68.2246 686.591 68.2056 688.762 68.7968C695.335 70.586 699.62 76.3271 702.808 81.9795C709.897 94.549 713.966 109.117 717.199 123.125C730.219 179.532 726.068 238.107 710.437 293.462C703.719 277.158 696.413 261.359 688.446 245.637C696.094 218.087 697.63 190.328 696.475 161.875C695.97 148.112 691.313 119.781 681.154 110.056C678.003 107.04 673.87 105.414 669.496 105.663C648.247 106.873 613.613 144.881 599.823 159.992C589.282 155.588 578.88 151.334 567.953 147.946C596.969 113.882 637.387 79.1106 681.853 68.584Z"/>
	<path fill="#BFC8C9" d="M164.564 274.825Q213.49 382.712 260.31 491.529L292.344 566.078C298.118 579.584 303.346 593.671 310.059 606.724C297.39 608.896 288.447 612.886 278.59 621.182L220.243 499.073Q214.74 487.316 209.116 475.617C206.383 469.975 202.999 463.946 201.271 457.91C202.441 455.685 201.36 452.749 200.743 450.456C198.08 440.558 194.47 430.788 191.335 421.019C182.405 393.193 172.965 365.36 166.474 336.842C162.952 321.368 159.738 303.957 161.249 288.101C161.701 283.359 162.813 279.245 164.564 274.825Z"/>
	<path fill="#FEFEFE" d="M689.286 734.127C694.004 732.849 698.703 733.182 703.533 733.118C736.273 732.68 771.103 717.605 793.806 694.083Q794.819 693.051 795.806 691.993Q796.792 690.935 797.753 689.854Q798.713 688.772 799.645 687.666Q800.578 686.561 801.483 685.432Q802.388 684.304 803.264 683.153Q804.14 682.002 804.987 680.83Q805.834 679.658 806.652 678.464Q807.47 677.271 808.257 676.058Q809.045 674.845 809.802 673.612Q810.559 672.38 811.285 671.129Q812.01 669.878 812.705 668.609Q813.399 667.34 814.062 666.054Q814.724 664.768 815.354 663.466Q815.984 662.164 816.581 660.847Q817.179 659.53 817.743 658.198Q818.307 656.866 818.838 655.521Q819.368 654.175 819.865 652.817Q820.362 651.458 820.825 650.088Q821.287 648.717 821.716 647.336Q822.144 645.954 822.538 644.563Q822.931 643.171 823.29 641.769Q823.648 640.368 823.972 638.958Q824.295 637.549 824.584 636.131Q824.872 634.714 825.124 633.29Q825.377 631.866 825.594 630.436Q825.811 629.005 825.992 627.57Q826.173 626.135 826.318 624.696Q826.463 623.257 826.572 621.815Q826.681 620.373 826.754 618.928Q826.827 617.484 826.864 616.038Q826.901 614.592 826.902 613.145Q826.902 611.699 826.867 610.253C826.115 579.85 812.653 551.74 792.566 529.316C786.779 522.856 780.218 516.986 773.953 510.992L774.028 510.242C806.921 520.082 835.381 547.024 851.563 577.012C869.829 610.861 878.197 653.557 866.795 690.937C857.465 721.525 834.755 745.845 806.696 760.506C769.88 779.743 733.711 779.733 694.172 771.246C692.489 758.881 691.189 746.462 689.286 734.127Z"/>
	<path fill="#FE9209" d="M677.136 681.473C685.801 677.063 693.892 672.578 701.615 666.57C731.593 643.251 751.493 607.364 754.004 569.349C754.523 561.486 754.552 552.533 753.034 544.75C751.693 537.869 743.285 514.289 744.649 509.165C745.004 507.831 745.95 506.803 747.141 506.14C753.764 502.454 767.326 508.068 774.028 510.242L773.953 510.992C780.218 516.986 786.779 522.856 792.566 529.316C812.653 551.74 826.115 579.85 826.867 610.253Q826.902 611.699 826.902 613.145Q826.901 614.592 826.864 616.038Q826.827 617.484 826.754 618.928Q826.681 620.373 826.572 621.815Q826.463 623.257 826.318 624.696Q826.173 626.135 825.992 627.57Q825.811 629.005 825.594 630.436Q825.377 631.866 825.125 633.29Q824.872 634.714 824.584 636.131Q824.296 637.549 823.972 638.959Q823.648 640.368 823.29 641.77Q822.931 643.171 822.538 644.563Q822.144 645.954 821.716 647.336Q821.287 648.717 820.825 650.088Q820.362 651.458 819.865 652.817Q819.368 654.175 818.838 655.521Q818.307 656.866 817.743 658.198Q817.179 659.53 816.581 660.847Q815.984 662.164 815.354 663.466Q814.724 664.768 814.062 666.054Q813.399 667.34 812.705 668.609Q812.01 669.878 811.285 671.129Q810.559 672.38 809.802 673.612Q809.045 674.845 808.257 676.058Q807.47 677.271 806.652 678.465Q805.834 679.658 804.987 680.83Q804.14 682.002 803.264 683.153Q802.388 684.304 801.483 685.432Q800.578 686.561 799.645 687.666Q798.713 688.772 797.753 689.854Q796.792 690.935 795.806 691.993Q794.819 693.051 793.806 694.083C771.103 717.605 736.273 732.68 703.533 733.118C698.703 733.182 694.004 732.849 689.286 734.127C685.794 716.392 681.445 699.014 677.136 681.473Z"/>
	<path fill="#FE9209" d="M382.397 674.447L383.703 679.271C380.36 714.463 379.999 752.942 404.013 781.777C410.297 789.323 418.301 795.713 425.635 802.216C428.455 808.617 437.809 813.186 443.597 816.589C441.473 823.133 436.659 827.813 433.371 833.696C429.655 840.344 415.158 873.189 418.491 879.901C418.725 880.372 418.901 880.587 419.219 881.052C417.101 888.335 415.649 895.611 414.327 903.067C411.431 919.395 409.01 934.933 393.141 943.596C383.073 949.093 369.666 951.917 358.317 952.686C354.545 943.696 352.196 935.116 356.035 925.563C357.864 921.01 360.676 917.173 363.607 913.278C356.324 919.077 349.983 924.782 348.949 934.695C348.285 941.052 350.15 947.068 352.197 952.999C340.401 952.27 329.995 951.187 318.953 946.655C315.593 938.262 314.183 929.725 317.914 921.103C319.807 916.731 322.641 913.081 325.61 909.398C318.451 914.727 312.646 919.775 311.134 929.151C310.393 933.745 310.993 938.472 311.671 943.035C305.658 936.79 300.667 930.405 300.691 921.218C300.715 912.578 304.87 905.178 310.992 899.345C311.952 898.43 312.931 897.58 313.989 896.778C317.593 893.373 321.96 891.631 324.683 887.255C322.067 880.279 320.825 872.086 319.596 864.726C313.226 826.576 312.255 775.742 323.303 738.381C326.587 745.708 330.096 755.995 338.14 759.206C344.223 761.635 351.218 760.302 356.996 757.628C362.27 755.187 367.83 751.112 369.775 745.432C372.75 736.747 366.09 726.231 362.322 718.736C366.536 711.181 370.62 703.676 373.943 695.673C376.868 688.63 379.071 681.323 382.397 674.447Z"/>
	<path fill="#EF6504" d="M324.683 887.255C341.666 883.916 357.177 884.933 371.998 894.82Q377.029 898.198 381.361 902.436C365.247 896.875 348.129 890.211 330.728 892.724C325.166 893.527 319.509 896.857 313.989 896.778C317.593 893.373 321.96 891.631 324.683 887.255Z"/>
	<path fill="#FEFEFE" d="M383.703 679.271Q388.48 668.44 391.417 656.973C392.585 652.425 393.313 640.54 395.59 637.083C417.561 650.274 439.679 662.321 463.889 670.983C464.549 678.334 467.583 680.254 469.171 686.339C469.87 689.017 469.464 691.87 469.477 694.607C469.505 700.943 473.631 707.268 478.377 711.173C484.269 716.02 492.115 716.846 497.796 721.436C505.319 727.513 515.472 729.065 524.909 727.923C532.432 727.013 539.536 723.993 546.007 720.134C561.911 717.804 577.944 715 593.132 709.582C600.359 707.005 606.535 702.687 614.077 700.685C614.278 728.478 606.748 771.783 586.804 791.788C584.084 794.516 580.868 796.82 578.219 799.58C552.527 819.569 514.006 826.622 482.19 822.762C461.24 820.221 443.745 812.567 425.635 802.216C418.301 795.713 410.297 789.323 404.013 781.777C379.999 752.942 380.36 714.463 383.703 679.271Z"/>
	<path fill="#FE9209" d="M663.25 657.224C684.67 718.133 696.336 785.968 685.418 850.189C683.333 862.451 680.726 874.903 676.281 886.541C676.881 888.266 677.652 888.832 679.113 889.881C684.585 892.412 689.2 895.502 693.12 900.133C699.18 907.293 703.87 917.727 702.922 927.279C702.167 934.886 697.589 939.348 692.111 944.017C692.499 940.059 692.721 936.269 691.965 932.328C690.068 922.44 683.636 916.003 675.648 910.578C677.47 912.666 679.374 914.774 680.914 917.082C687.217 926.525 687.834 935.766 685.649 946.676C675.543 950.721 664.969 952.422 654.206 953.562C654.996 949.547 655.674 945.672 655.498 941.565C654.981 929.538 647.808 922.196 639.409 914.581C640.924 916.682 642.467 918.784 643.857 920.969C650.897 932.042 650.926 941.192 648.154 953.71C626.833 952.768 597.957 945.842 591.071 922.335C589.46 916.834 588.863 911.049 587.978 905.399C586.592 896.545 584.844 887.821 581.913 879.326C573.927 856.176 560.779 839.936 543.19 823.467C557.977 819.036 569.197 811.073 580.389 800.696L580.375 800.258L581.277 799.728L580.838 799.335L578.219 799.58C580.868 796.82 584.084 794.516 586.804 791.788C606.748 771.783 614.278 728.478 614.077 700.685L614.287 700.119C617.312 697.648 620.946 695.556 624.176 693.317C630.718 688.783 637.082 684.1 643.037 678.806Q649.321 673.106 654.885 666.701C657.511 663.649 659.976 660.232 662.935 657.506C663.039 657.411 663.145 657.318 663.25 657.224Z"/>
	<path fill="#EF6504" d="M609.228 906.321C617.26 899.446 625.242 892.768 635.121 888.713C647.204 883.753 663.928 881.319 676.281 886.541C676.881 888.266 677.652 888.832 679.113 889.881C671.011 893.066 660.455 891.722 651.855 893.145C637.085 895.589 623.048 900.728 609.228 906.321Z"/>
	<path fill="#FE9209" d="M346.289 529.247C364.88 533.426 387.361 545.582 405.375 553.027C421.803 559.816 439.865 564.452 457.177 568.481C473.149 572.198 489.887 575.95 506.368 576.02C537.268 576.151 582.417 561.167 609.973 547.768C621.684 542.073 632.869 535.163 643.914 528.288C657.489 553.144 663.887 582.074 655.703 609.765C646.624 640.487 621.973 668.188 594.068 683.277C583.196 689.156 571.526 692.915 559.469 695.466C559.065 688.14 558.013 681.587 555.198 674.783C557.133 687.317 558.33 698.018 550.321 708.804C544.718 716.352 535.952 720.923 526.74 722.224C516.765 723.633 507.769 722.088 499.254 716.646C504.178 711.437 509.641 707.028 515.222 702.554C511.081 703.95 507.08 705.438 503.168 707.396C497.61 710.179 498.294 715.276 490.301 712.684C484.341 710.751 479.236 705.432 476.564 699.848C474.34 695.201 473.633 689.601 475.612 684.736C477.946 678.999 485.094 674.351 489.845 670.684C482.674 672.824 477.419 675.155 472.418 681.026C469.972 674.57 469.828 669.114 472.779 662.7C476.857 653.837 485.509 646.236 494.63 642.917C505.171 639.082 514.495 641.203 524.632 645.096C520.046 641.579 515.132 640.186 509.577 638.965C526.593 616.678 547.479 602.096 573.067 591.204C580.255 588.144 587.963 585.904 594.973 582.558C595.699 582.212 596.972 581.893 597.273 581.165L596.4 581.112L597.119 581.663L596.515 582.244L596.235 581.256C591.171 582.221 585.937 584.438 581.034 586.143C553.785 595.617 525.554 610.092 508.924 634.498Q507.935 635.949 507.01 637.441C494.176 637.928 483.89 640.588 474.878 650.331C470.638 654.915 467.743 659.969 465.516 665.772C438.074 656.076 403.119 640.223 381.931 619.915C377.478 615.646 373.28 610.912 369.476 606.048C368.035 604.205 365.489 599.407 363.64 598.355C363.402 601.445 373.859 614.06 376.036 616.6C380.367 621.655 384.84 626.468 390.009 630.686C382.565 660.354 376.284 688.348 359.947 714.66Q354.308 703.482 348.83 692.225C355.65 682.072 360.327 671.684 357.876 659.213C356.205 650.708 351.452 643.721 345.134 637.944C343.288 627.821 340.376 618.94 331.417 612.836C326.899 609.758 321.892 608.407 316.629 607.215L313.035 599.962C322.102 575.12 332.587 551.88 346.289 529.247Z"/>
	<path fill="#FEFEFE" d="M268.364 364.33C274.292 368.317 280.229 372.311 286.577 375.609C327.12 396.674 375.21 402.25 420.12 405.996C420.226 406.5 420.345 407.003 420.48 407.5C426.156 428.411 440.107 443.724 458.613 454.113C461.744 464.121 465.006 474.839 470.688 483.715C475.786 491.678 483.038 498.02 492.493 499.956C502.239 501.951 512.402 498.742 520.508 493.333C533.247 484.832 542.814 471.097 545.817 456.066Q548.543 455.046 551.13 453.712C569.096 444.444 577.136 424.337 582.856 406.182C634.326 400.58 687.48 394.318 732.033 365.822C739.457 383.034 741.996 399.606 738.167 418.038C725.776 455.57 681.555 482.884 648.297 500.455C613.403 518.891 537.947 549.175 498.211 547.389C469.08 546.08 440.013 536.493 412.371 527.917C363.815 512.852 293.357 478.758 268.87 431.749C256.899 408.768 261.01 387.933 268.364 364.33Z"/>
	<path fill="#FE9209" d="M485.282 141.697C491.153 140.66 498.062 141.291 504.014 141.433C536.619 142.211 568.517 148.757 598 163.02C661.382 193.684 692.109 251.075 715.007 314.85C720.845 331.109 725.819 347.708 731.483 364.041C695.655 387.329 625.946 403.144 583.734 403.51C582.847 401.925 581.954 400.314 580.831 398.88C568.12 382.646 537.142 372.784 516.881 370.402Q513.392 369.904 509.878 369.635Q506.364 369.365 502.84 369.325Q499.316 369.285 495.797 369.475Q492.277 369.664 488.778 370.083C463.48 372.988 435.478 382.46 419.246 403.016C382.017 402.705 330.601 393.017 296.49 377.751Q289.249 374.535 282.423 370.512Q275.597 366.489 269.276 361.712C275.053 345.205 281.591 328.975 287.369 312.478C290.517 303.49 293.001 294.272 296.188 285.297C305.393 259.369 318 234.568 335.56 213.277Q336.808 211.748 338.087 210.246Q339.366 208.743 340.677 207.267Q341.987 205.792 343.328 204.344Q344.669 202.896 346.039 201.476Q347.41 200.057 348.81 198.666Q350.21 197.275 351.639 195.914Q353.067 194.553 354.524 193.221Q355.981 191.89 357.465 190.589Q358.949 189.289 360.46 188.02Q361.971 186.75 363.508 185.513Q365.045 184.275 366.608 183.07Q368.17 181.864 369.757 180.692Q371.345 179.519 372.956 178.38Q374.568 177.241 376.202 176.136Q377.837 175.031 379.495 173.96Q381.152 172.889 382.831 171.852Q384.511 170.816 386.212 169.815Q387.912 168.814 389.633 167.849Q391.355 166.884 393.096 165.954Q394.836 165.025 396.596 164.132Q398.356 163.24 400.134 162.384Q401.913 161.528 403.708 160.709Q405.504 159.891 407.316 159.11Q409.128 158.329 410.956 157.586Q412.784 156.843 414.628 156.138Q416.471 155.433 418.328 154.767Q420.186 154.1 422.057 153.473Q423.928 152.846 425.812 152.257Q427.695 151.669 429.591 151.12Q431.486 150.572 433.393 150.062Q435.299 149.553 437.216 149.084Q439.133 148.614 441.059 148.185C455.686 144.811 470.37 143.13 485.282 141.697Z"/>
	<path d="M567.714 255.67C567.843 255.645 567.97 255.613 568.099 255.595C572.397 255.011 578.999 256.242 582.379 258.978C584.725 260.878 586.024 263.771 586.328 266.735C586.833 271.665 584.731 276.299 581.543 279.958C574.956 287.52 564.843 290.945 555.124 291.737C550.861 292.249 545.689 291.417 542.047 289.053C539.15 287.174 537.272 284.3 536.728 280.884C536.039 276.553 537.502 272.303 540.035 268.811C546.53 259.859 557.386 257.181 567.714 255.67Z"/>
	<path fill="#FEFEFE" d="M568.578 258.709C572.459 258.614 576.937 259.267 580.233 261.461C581.928 262.589 583.144 264.146 583.477 266.188C584.026 269.549 582.365 273.287 580.436 275.943C574.955 283.494 564.824 287.333 555.895 288.56C551.563 288.541 546.989 288.103 543.293 285.619C541.371 284.328 540.007 282.533 539.699 280.2C539.242 276.747 541.162 272.938 543.198 270.282C549.236 262.405 559.187 259.76 568.578 258.709Z"/>
	<path d="M429 256.128Q430.331 255.988 431.669 255.931Q433.007 255.875 434.345 255.902Q435.684 255.93 437.018 256.042Q438.352 256.154 439.677 256.349Q441.002 256.544 442.311 256.823Q443.621 257.101 444.91 257.461Q446.2 257.821 447.464 258.262Q448.729 258.702 449.963 259.221C456.79 262.096 463.455 267.104 466.131 274.244C467.334 277.454 467.696 281.056 466.097 284.201C463.797 288.723 459.237 290.966 454.639 292.429Q453.222 292.517 451.803 292.514Q450.384 292.511 448.968 292.418Q447.551 292.324 446.144 292.14Q444.737 291.956 443.344 291.682Q441.951 291.409 440.579 291.047Q439.207 290.685 437.86 290.236Q436.514 289.787 435.199 289.252Q433.884 288.718 432.606 288.101C425.822 284.812 419.607 279.367 417.241 272.004C416.287 269.035 416.099 265.809 417.671 263.014C420.146 258.613 424.453 257.279 429 256.128Z"/>
	<path fill="#FEFEFE" d="M428.824 259.071C436.515 258.828 444.129 259.699 451.14 263.064C457.983 266.348 461.411 271.111 463.827 278.093C463.3 279.884 462.764 281.695 461.896 283.357C460.217 286.57 457.757 287.779 454.451 288.887C446.748 289.234 439.918 287.915 433.036 284.339C427.402 281.412 421.308 276.349 419.537 270.045C419.007 268.157 419.065 266.259 420.096 264.551C421.926 261.521 425.566 259.935 428.824 259.071Z"/>
	<path d="M406.251 297.643C413.677 297.041 420.992 298.19 427.573 301.844C435.813 306.419 441.486 314.986 443.955 323.944Q444.217 324.89 444.432 325.848Q444.647 326.806 444.813 327.774Q444.979 328.742 445.097 329.716Q445.215 330.691 445.283 331.671Q445.352 332.65 445.371 333.632Q445.39 334.613 445.36 335.595Q445.33 336.576 445.25 337.555Q445.171 338.533 445.043 339.507Q444.915 340.48 444.737 341.446Q444.56 342.412 444.335 343.367Q444.11 344.323 443.837 345.266Q443.564 346.209 443.244 347.138Q442.924 348.066 442.558 348.977Q442.192 349.888 441.78 350.779Q441.369 351.671 440.913 352.54Q440.458 353.41 439.959 354.256C434.003 364.472 424.759 369.643 413.59 372.506C404.215 372.728 396.01 371.509 388.185 365.963C379.866 360.068 374.948 351.555 373.246 341.568C371.563 331.686 373.352 321.238 379.216 312.989C385.9 303.587 395.165 299.501 406.251 297.643Z"/>
	<path fill="#FEFEFE" d="M401.302 333.333C402.969 333.874 404.753 334.46 405.963 335.803C406.764 336.693 407.245 337.837 407.055 339.048C406.717 341.197 404.944 342.305 403.302 343.436C401.626 343.362 399.893 343.003 398.711 341.716C397.999 340.941 397.658 340.018 397.744 338.945C397.954 336.341 399.494 334.997 401.302 333.333Z"/>
	<path fill="#FEFEFE" d="M416.182 309.509C418.129 309.473 420.339 309.294 422.231 309.795C425.717 310.718 428.971 313.235 430.662 316.42C432.243 319.396 432.641 322.802 431.615 326.03C430.068 330.9 426.424 333.227 422.095 335.323C419.746 335.599 417.278 335.615 415.002 334.904Q414.391 334.717 413.802 334.467Q413.214 334.217 412.654 333.908Q412.095 333.599 411.57 333.233Q411.046 332.867 410.562 332.448Q410.079 332.03 409.641 331.564Q409.204 331.098 408.817 330.588Q408.431 330.079 408.099 329.533Q407.767 328.986 407.494 328.408Q407.206 327.806 406.978 327.178Q406.751 326.55 406.586 325.903Q406.421 325.256 406.321 324.595Q406.221 323.935 406.186 323.268Q406.151 322.602 406.181 321.934Q406.212 321.267 406.308 320.607Q406.404 319.946 406.565 319.297Q406.726 318.649 406.949 318.02C408.654 313.342 411.881 311.374 416.182 309.509Z"/>
	<path d="M590.258 297.637C598.562 297.033 606.089 298.253 613.3 302.632C621.726 307.749 627.348 316.083 629.561 325.64C631.869 335.61 630.315 346.039 624.855 354.724C618.673 364.559 609.888 369.395 598.813 372.004C589.798 372.678 581.043 371.104 573.49 365.932C564.929 360.07 559.436 351.522 557.545 341.314C555.76 331.679 557.843 320.954 563.478 312.891C570.082 303.441 579.208 299.534 590.258 297.637Z"/>
	<path fill="#FEFEFE" d="M588.458 334.314C589.805 334.505 591.077 334.694 592.303 335.321C593.197 335.777 593.924 336.535 594.168 337.513C594.692 339.607 593.572 341.061 592.509 342.74C590.911 342.697 588.968 342.793 587.639 341.738C586.991 341.222 586.564 340.606 586.422 339.798C586.023 337.527 587.212 336.058 588.458 334.314Z"/>
	<path fill="#FEFEFE" d="M604.487 308.633C606.371 308.601 608.239 308.848 610.023 309.466C613.55 310.687 616.457 313.062 617.997 316.508C619.56 320.003 619.423 324.001 617.89 327.48C616.029 331.701 612.835 333.974 608.651 335.577C605.969 335.706 603.536 335.583 601.043 334.477Q600.449 334.216 599.885 333.896Q599.321 333.576 598.792 333.201Q598.263 332.826 597.774 332.4Q597.286 331.973 596.843 331.5Q596.4 331.026 596.007 330.51Q595.614 329.995 595.275 329.442Q594.936 328.889 594.654 328.305Q594.372 327.721 594.151 327.111Q593.914 326.459 593.743 325.787Q593.572 325.114 593.47 324.428Q593.368 323.742 593.334 323.049Q593.301 322.357 593.337 321.664Q593.374 320.971 593.479 320.286Q593.585 319.6 593.759 318.928Q593.932 318.257 594.173 317.606Q594.413 316.955 594.717 316.332C596.829 312.109 600.195 310.177 604.487 308.633Z"/>
</svg>
